<?xml version="1.0" standalone="no"?>
<!DOCTYPE svg PUBLIC "-//W3C//DTD SVG 1.1//EN" "http://www.w3.org/Graphics/SVG/1.1/DTD/svg11.dtd" >
<svg>
<metadata>
Created by FontForge 20090914 at Wed May  6 02:48:51 2015
 By www-data
Copyright 2005 Process Type Foundry. All rights reserved.
</metadata>
<defs>
<font id="BryantPro-Regular" horiz-adv-x="1466" >
  <font-face 
    font-family="Bryant Pro"
    font-weight="400"
    font-stretch="normal"
    units-per-em="2048"
    panose-1="2 0 6 3 4 0 0 2 0 4"
    ascent="1536"
    descent="-512"
    x-height="889"
    cap-height="1380"
    bbox="-88 -406 2263 1718.04"
    underline-thickness="40"
    underline-position="-231"
    unicode-range="U+0020-U+FB04"
  />
<missing-glyph horiz-adv-x="1404" 
d="M225 0v1364h955v-1364h-955zM326 100h694l-694 1080v-1080zM383 1262l696 -1080v1080h-696z" />
    <glyph glyph-name=".notdef" horiz-adv-x="1404" 
d="M225 0v1364h955v-1364h-955zM326 100h694l-694 1080v-1080zM383 1262l696 -1080v1080h-696z" />
    <glyph glyph-name="space" unicode=" " horiz-adv-x="614" 
 />
    <glyph glyph-name="exclam" unicode="!" horiz-adv-x="573" 
d="M201 74c0 23.333 8.5 43.5 25.5 60.5s37.167 25.5 60.5 25.5s43.5 -8.5 60.5 -25.5s25.5 -37.167 25.5 -60.5s-8.5 -43.5 -25.5 -60.5s-37.167 -25.5 -60.5 -25.5s-43.5 8.5 -60.5 25.5s-25.5 37.167 -25.5 60.5zM225 756l-0.00195312 563c0 16.667 5.83301 31 17.5 43
s26.334 18 44.001 18s32.334 -6.16699 44.001 -18.5s17.5 -26.5 17.5 -42.5v-563l-29 -400c-2.66699 -24.667 -13.5 -37 -32.5 -37s-29.833 12.333 -32.5 37z" />
    <glyph glyph-name="quotedbl" unicode="&#x22;" horiz-adv-x="782" 
d="M154 938v387c0 15.333 5 28.333 15 39s23.167 16 39.5 16s29.666 -5.33301 39.999 -16s15.5 -23.667 15.5 -39v-387c0 -15.333 -5.16699 -28.333 -15.5 -39s-23.666 -16 -39.999 -16s-29.5 5.33301 -39.5 16s-15 23.667 -15 39zM518 938v387
c0 15.333 5.16699 28.333 15.5 39s23.666 16 39.999 16s29.666 -5.33301 39.999 -16s15.5 -23.667 15.5 -39v-387c0 -15.333 -5.16699 -28.333 -15.5 -39s-23.666 -16 -39.999 -16s-29.666 5.33301 -39.999 16s-15.5 23.667 -15.5 39z" />
    <glyph glyph-name="numbersign" unicode="#" 
d="M123 442c0 34 17 51.332 51 51.999h197l43 395h-195c-12 0 -22.5 4.33301 -31.5 13s-13.5 19.334 -13.5 32.001c0 34 18.333 51 55 51h195l39 344c4 34 22.333 51 55 51c35.333 0 51 -19.667 47 -59l-39 -336h490l39 344c4 34 23 51 57 51c35.333 0 51 -18.333 47 -55
l-39 -340h193c12 0 22.833 -4 32.5 -12s14.5 -18.833 14.5 -32.5s-4.83301 -25.667 -14.5 -36s-21.834 -15.5 -36.501 -15.5h-199l-43 -395h195c30 0 45 -15 45 -45c0 -13.333 -4.83301 -25.333 -14.5 -36s-22.167 -16 -37.5 -16h-198l-41 -360
c-4 -35.333 -22.333 -53 -55 -53c-36.667 0 -52.667 20.333 -48 61l39 352h-489l-43 -362c-5.33301 -34 -23.666 -51 -54.999 -51c-16.667 0 -29.167 5 -37.5 15s-11.833 22.667 -10.5 38l41 360h-188c-13.333 0 -24.5 4.5 -33.5 13.5s-13.5 19.5 -13.5 31.5zM473 493.999
h490l45 395h-490z" />
    <glyph glyph-name="dollar" unicode="$" horiz-adv-x="1251" 
d="M154 219c0 13.333 4.66699 24.834 14 34.501s21.5 14.5 36.5 14.5s31.5 -6 49.5 -18c60 -42 118.667 -74 176 -96s129 -33 215 -33c104 0 187 21.167 249 63.5s93 100.166 93 173.499c0 28.667 -7.16699 55.667 -21.5 81s-31 46.5 -50 63.5s-47.333 35.167 -85 54.5
s-70.167 34 -97.5 44l-117 42c-162.667 57.333 -277.334 114.666 -344.001 171.999s-100 127 -100 209c0 96.667 37.5 173 112.5 229s178.167 87 309.5 93v186c0 13.333 5.16699 25.5 15.5 36.5s24.333 16.5 42 16.5s31.667 -5.5 42 -16.5s15.5 -23.167 15.5 -36.5v-189
c120 -10.667 229.667 -48 329 -112c19.333 -12 29 -26.333 29 -43c0 -13.333 -4.83301 -25.5 -14.5 -36.5s-23.167 -16.5 -40.5 -16.5c-10.667 0 -21.667 3.33301 -33 10c-117.333 65.333 -230.666 98 -339.999 98c-230.667 0 -346 -72.333 -346 -217
c0 -62.667 23.833 -111.5 71.5 -146.5s135.167 -76.167 262.5 -123.5c182.667 -68 308.5 -127.333 377.5 -178s103.5 -124 103.5 -220c0 -94 -36.5 -171.667 -109.5 -233s-174.5 -97.666 -304.5 -108.999v-184c0 -13.333 -5 -25.5 -15 -36.5s-24 -16.5 -42 -16.5
s-32 5.5 -42 16.5s-15 23.167 -15 36.5v186c-154 12 -286.667 62.667 -398 152c-18.667 16 -28 32.333 -28 49z" />
    <glyph glyph-name="percent" unicode="%" horiz-adv-x="1734" 
d="M123 1063c0 90 31.333 166.833 94 230.5s140.5 95.5 233.5 95.5s170.833 -31.833 233.5 -95.5s94 -140.5 94 -230.5c0 -91.333 -31.333 -168.5 -94 -231.5s-140.5 -94.5 -233.5 -94.5s-170.833 31.5 -233.5 94.5s-94 140.167 -94 231.5zM227 1063
c0 -65.333 20.5 -120.666 61.5 -165.999s95 -68 162 -68s121 22.667 162 68s61.5 100.666 61.5 165.999s-20.5 120.5 -61.5 165.5s-95 67.5 -162 67.5s-121 -22.5 -162 -67.5s-61.5 -100.167 -61.5 -165.5zM418 25c0 9.33301 5.99902 24.333 17.999 45l787 1286
c9.33301 18 24.333 26.667 45 26c13.333 0 24.833 -4.33301 34.5 -13s14.5 -20.667 14.5 -36c0 -10.667 -3.33301 -21.667 -10 -33l-797 -1298c-9.33301 -18 -23.666 -27 -42.999 -27c-15.333 0 -27.333 5 -36 15s-13 21.667 -13 35zM951.999 301
c0 90 31.5 166.833 94.5 230.5s140.833 95.5 233.5 95.5s170.5 -31.833 233.5 -95.5s94.5 -140.5 94.5 -230.5c0 -91.333 -31.5 -168.5 -94.5 -231.5s-140.833 -94.5 -233.5 -94.5s-170.5 31.5 -233.5 94.5s-94.5 140.167 -94.5 231.5zM1057 301
c0 -65.333 20.5 -120.5 61.5 -165.5s94.833 -67.5 161.5 -67.5s120.5 22.5 161.5 67.5s61.5 100.167 61.5 165.5s-20.5 120.666 -61.5 165.999s-94.833 68 -161.5 68s-120.5 -22.667 -161.5 -68s-61.5 -100.666 -61.5 -165.999z" />
    <glyph glyph-name="ampersand" unicode="&#x26;" 
d="M143 326c0 106.667 33.1689 195 99.502 265s160.833 135 283.5 195c-101.333 130 -151.666 243.333 -150.999 340c0 76.667 25.833 139.667 77.5 189s123.5 74 215.5 74c84.667 0 152.5 -25 203.5 -75s76.5 -113.333 76.5 -190
c0 -70.667 -24.833 -137.834 -74.5 -201.501s-116.167 -119.167 -199.5 -166.5l307 -457c38 50.667 84.333 138 139 262c9.33301 20.667 24.333 31 45 31c16.667 0 30.167 -4.83301 40.5 -14.5s15.5 -21.834 15.5 -36.501c0 -4 -1.33301 -10.333 -4 -19
c-48 -116 -106.333 -219 -175 -309c27.333 -38 47.166 -64.167 59.499 -78.5s30.5 -29 54.5 -44s50.333 -22.5 79 -22.5c39.333 0 81.666 12.667 126.999 38c6.66699 4 14 6.33301 22 7c12 0 21.833 -4.16699 29.5 -12.5s11.5 -18.666 11.5 -30.999
s-4.66699 -23.166 -14 -32.499c-39.333 -40.667 -98 -61.334 -176 -62.001c-64 0 -113.5 12 -148.5 36s-74.833 66 -119.5 126c-49.333 -49.333 -110.5 -88.666 -183.5 -117.999s-148.5 -44 -226.5 -44c-132.667 0 -234.834 33.5 -306.501 100.5s-107.5 150.5 -107.5 250.5z
M262.002 330c0 -78 25.999 -140.497 77.999 -187.497s126.333 -70.5 223 -70.5c132.667 0 247.334 49.667 344.001 149l-329 484c-72.667 -40.667 -128.167 -74.834 -166.5 -102.501s-72.833 -65.334 -103.5 -113.001s-46 -100.834 -46 -159.501zM489.001 1124
c0 -80.667 44.667 -177.333 134 -290c60 30 110.833 71.5 152.5 124.5s62.5 106.167 62.5 159.5c0 52 -15 94.333 -45 127s-73 49 -129 49c-53.333 0 -95.833 -14 -127.5 -42s-47.5 -70.667 -47.5 -128z" />
    <glyph glyph-name="quotesingle" unicode="'" horiz-adv-x="417" 
d="M154 938v387c0 15.333 5 28.333 15 39s23.167 16 39.5 16s29.666 -5.33301 39.999 -16s15.5 -23.667 15.5 -39v-387c0 -15.333 -5.16699 -28.333 -15.5 -39s-23.666 -16 -39.999 -16s-29.5 5.33301 -39.5 16s-15 23.667 -15 39z" />
    <glyph glyph-name="parenleft" unicode="(" horiz-adv-x="645" 
d="M184 553c0 296 88.999 588.333 266.999 877c12 16.667 27 24.667 45 24c16.667 0 30.334 -5.5 41.001 -16.5s16 -23.167 16 -36.5c0 -10.667 -3.33301 -21.667 -10 -33c-82 -142 -141.833 -276.5 -179.5 -403.5s-56.5 -264.167 -56.5 -411.5s18.833 -284.5 56.5 -411.5
s97.5 -261.5 179.5 -403.5c6.66699 -10.667 10 -21.667 10 -33c0 -13.333 -5.5 -25.5 -16.5 -36.5s-24.5 -16.5 -40.5 -16.5c-18 0 -33 8 -45 24c-178 288.667 -267 581 -267 877z" />
    <glyph glyph-name="parenright" unicode=")" horiz-adv-x="645" 
d="M92 -295c0 10.667 3.33301 21.667 10 33c82 142 141.833 276.5 179.5 403.5s56.5 264.167 56.5 411.5s-18.833 284.5 -56.5 411.5s-97.5 261.5 -179.5 403.5c-6.66699 10.667 -10 21.667 -10 33c0 13.333 5.5 25.5 16.5 36.5s24.833 16.5 41.5 16.5c18 0 33 -8 45 -24
c177.333 -288 266 -580.167 266 -876.5s-88.667 -588.833 -266 -877.5c-12 -16.667 -27 -24.667 -45 -24c-16.667 0 -30.5 5.5 -41.5 16.5s-16.5 23.167 -16.5 36.5z" />
    <glyph glyph-name="asterisk" unicode="*" horiz-adv-x="839" 
d="M92 1093.5c0 23 11.668 34.5 35.001 34.5h231l-118 197c-4 8 -6.33301 15.667 -7 23c0 22 12.333 32.667 37 32c13.333 0 23.666 -5.33301 30.999 -16l119 -205l119 205c6.66699 10.667 16.667 16 30 16c24.667 0 37 -10.667 37 -32c0 -6.66699 -2 -14.334 -6 -23.001
l-119 -197h232c23.333 0 35 -11.5 35 -34.5s-11.667 -34.5 -35 -34.5h-232l119 -195c5.33301 -9.33301 8 -17.333 8 -24c0 -22 -13 -33 -39 -33c-13.333 0 -24 7.33301 -32 22l-117 201l-117 -201c-8 -15.333 -19 -22.666 -33 -21.999c-26 0 -39 11 -39 33
c0 6.66699 3 14.667 9 24l118 195h-231c-23.333 0 -35 11.5 -35 34.5z" />
    <glyph glyph-name="plus" unicode="+" horiz-adv-x="1146" 
d="M113 661.5c0 16.333 5.66699 29.666 17 39.999s25.333 15.5 42 15.5h342v346c0 16.667 5.83301 30.667 17.5 42s25.667 17 42 17s30.333 -5.83301 42 -17.5s17.5 -25.5 17.5 -41.5v-346h342c16.667 0 30.667 -5.16699 42 -15.5s17 -23.666 17 -39.999
s-5.83301 -29.666 -17.5 -39.999s-25.5 -15.5 -41.5 -15.5h-342v-346c0 -16.667 -5.83301 -30.667 -17.5 -42s-25.667 -17 -42 -17s-30.333 5.83301 -42 17.5s-17.5 25.5 -17.5 41.5v346h-342c-16.667 0 -30.667 5.16699 -42 15.5s-17 23.666 -17 39.999z" />
    <glyph glyph-name="comma" unicode="," horiz-adv-x="421" 
d="M96 -283c0 6.66699 3.33301 20.334 10 41.001c34 101.333 51.333 199 52 293v88c0 16.667 5 30.5 15 41.5s23.333 16.5 40 16.5s30 -5.5 40 -16.5s15 -24.833 15 -41.5v-88c0 -118.667 -18.333 -227.667 -55 -327c-13.333 -36.667 -34.333 -55.334 -63 -56.001
c-36 0 -54 16.333 -54 49z" />
    <glyph glyph-name="hyphen" unicode="-" horiz-adv-x="897" 
d="M143 507.5c0 16.333 5.16699 29 15.5 38s23.166 13.5 38.499 13.5h503c15.333 0 28.166 -4.5 38.499 -13.5s15.5 -21.667 15.5 -38s-5.16699 -28.833 -15.5 -37.5s-23.166 -13 -38.499 -13h-503c-15.333 0 -28.166 4.33301 -38.499 13s-15.5 21.167 -15.5 37.5z" />
    <glyph glyph-name="period" unicode="." horiz-adv-x="479" 
d="M154 74c0 23.333 8.5 43.5 25.5 60.5s37 25.5 60 25.5s43.167 -8.5 60.5 -25.5s26 -37.167 26 -60.5s-8.66699 -43.5 -26 -60.5s-37.5 -25.5 -60.5 -25.5s-43 8.5 -60 25.5s-25.5 37.167 -25.5 60.5z" />
    <glyph glyph-name="slash" unicode="/" horiz-adv-x="921" 
d="M133 -170c0 5.33301 1.33496 13.667 4.00195 25l545 1591c8 26 26.333 39 55 39c13.333 0 25.166 -4.83301 35.499 -14.5s15.5 -22.5 15.5 -38.5c0 -8 -1.33301 -16.333 -4 -25l-542 -1585c-10.667 -27.333 -29.334 -41 -56.001 -41c-35.333 0 -53 16.333 -53 49z" />
    <glyph glyph-name="zero" unicode="0" horiz-adv-x="1400" 
d="M123 682c0 198 53.167 365.333 159.5 502s245.5 205 417.5 205s311.333 -68.333 418 -205s160 -304 160 -502s-53.333 -365.333 -160 -502s-246 -205 -418 -205s-311.167 68.333 -417.5 205s-159.5 304 -159.5 502zM246 682c0 -169.333 41 -311 123 -425
s192.5 -171 331.5 -171s249.5 57 331.5 171s123 255.667 123 425s-41 311 -123 425s-192.5 171 -331.5 171s-249.5 -57 -331.5 -171s-123 -255.667 -123 -425z" />
    <glyph glyph-name="one" unicode="1" horiz-adv-x="745" 
d="M57 1210c0 28.667 15.6689 48 47.002 58l336 104c19.333 5.33301 33 8 41 8c39.333 0 59.333 -21 60 -63v-1272c0 -16.667 -5.83301 -31 -17.5 -43s-26.334 -18 -44.001 -18s-32.334 6 -44.001 18s-17.5 26.333 -17.5 43v1200l-281 -86c-10.667 -2.66699 -18 -4 -22 -4
c-15.333 0 -28.833 5 -40.5 15s-17.5 23.333 -17.5 40z" />
    <glyph glyph-name="two" unicode="2" horiz-adv-x="1284" 
d="M137 55c0 69.333 7.16699 131.502 21.5 186.502s32.5 101.5 54.5 139.5s53.5 74.167 94.5 108.5s81.167 63 120.5 86s90.666 49.5 153.999 79.5c170.667 82 285.667 148 345 198s89 113 89 189c0 78 -31.167 137.167 -93.5 177.5s-150.166 60.5 -263.499 60.5
c-157.333 0 -293 -43.667 -407 -131c-10.667 -8 -21.667 -12 -33 -12c-15.333 0 -28 4.66699 -38 14s-15 21.666 -15 36.999c0 26 25.333 54.667 76 86c118.667 76.667 260.667 115 426 115c144.667 0 259.334 -30.833 344.001 -92.5s127 -147.167 127 -256.5
c0 -88.667 -32.5 -166.334 -97.5 -233.001s-182.167 -139.667 -351.5 -219c-158.667 -74 -269.334 -144 -332.001 -210s-94 -156.667 -94 -272h834c15.333 0 28 -5 38 -15s15 -22.667 15 -38c0 -13.333 -5.5 -25.5 -16.5 -36.5s-23.167 -16.5 -36.5 -16.5h-905
c-15.333 -0 -28.5 5.33301 -39.5 16s-16.5 23.667 -16.5 39z" />
    <glyph glyph-name="three" unicode="3" horiz-adv-x="1284" 
d="M113 195c0 16.667 5.6709 29.334 17.0039 38.001s24.666 13 39.999 13c13.333 0 25.666 -5 36.999 -15c125.333 -102.667 266.666 -153.667 423.999 -153c116 0 211.167 27.667 285.5 83s111.5 130.666 111.5 225.999c0 88.667 -34.5 160.667 -103.5 216
s-167.5 83 -295.5 83h-148c-15.333 0 -28 5.5 -38 16.5s-15 23.167 -15 36.5c0 15.333 5.16699 28.166 15.5 38.499s22.833 15.5 37.5 15.5h133c100 0 179 23.5 237 70.5s87 107.167 87 180.5c0 79.333 -26.667 139.166 -80 179.499s-128.333 60.5 -225 60.5
c-91.333 0 -183.666 -23.333 -276.999 -70c-22 -12 -40.333 -18 -55 -18s-26.834 4.83301 -36.501 14.5s-14.5 20.5 -14.5 32.5c0 26 17.667 48 53 66c98 53.333 210.5 80 337.5 80s228.833 -30.5 305.5 -91.5s115 -142.5 115 -244.5c0 -135.333 -78 -236.333 -234 -303
c94 -16.667 171.5 -57.167 232.5 -121.5s91.5 -146.166 91.5 -245.499c0 -121.333 -49.167 -219.666 -147.5 -294.999s-222.5 -113 -372.5 -113c-192.667 0 -357.334 57.333 -494.001 172c-16 14 -24 30 -24 48z" />
    <glyph glyph-name="four" unicode="4" horiz-adv-x="1304" 
d="M61 436c0 13.333 6.33203 26.333 18.999 39l788 879c16.667 18 35.334 26.667 56.001 26c36.667 0 55 -21.667 55 -65v-828h225c15.333 0 28 -4.66699 38 -14s15 -21.5 15 -36.5s-5 -27.333 -15 -37s-22.667 -14.5 -38 -14.5h-225v-340c0 -18 -5.5 -32.667 -16.5 -44
s-25.333 -17 -43 -17s-32 5.66699 -43 17s-16.5 26 -16.5 44v340h-745c-36 0 -54 17 -54 51zM228.999 487h631v703z" />
    <glyph glyph-name="five" unicode="5" horiz-adv-x="1298" 
d="M133 193c0 16.667 5.49805 29.667 16.498 39s24.5 14 40.5 14c12 0 24.333 -5 37 -15c118.667 -101.333 260 -151.666 424 -150.999c122.667 0 219.667 31.667 291 95s107 144.333 107 243c0 104 -34.167 185.333 -102.5 244s-157.833 88 -268.5 88
c-140.667 0 -264.334 -45.333 -371.001 -136c-13.333 -10.667 -29 -16 -47 -16c-20.667 0 -35.667 6.16699 -45 18.5s-12.666 26.5 -9.99902 42.5l104 654c6.66699 34 27.334 51 62.001 51h633c15.333 0 28.333 -5.16699 39 -15.5s16 -23 16 -38s-5.16699 -27.667 -15.5 -38
s-23.5 -15.5 -39.5 -15.5h-588l-84 -512c84.667 72.667 201.334 109 350.001 109c146 0 264 -38.5 354 -115.5s135 -182.5 135 -316.5c0 -128.667 -47 -235.667 -141 -321s-220.333 -128 -379 -128c-204.667 0 -369.667 59 -495 177c-15.333 15.333 -23 29.666 -23 42.999z
" />
    <glyph glyph-name="six" unicode="6" horiz-adv-x="1288" 
d="M143 455c0 195.333 54.332 373.832 162.999 535.499s253.667 282.167 435 361.5c58.667 24.667 101 37 127 37c34 0 51.333 -13.667 52 -41c0 -13.333 -4.5 -23.833 -13.5 -31.5s-25.167 -16.5 -48.5 -26.5c-173.333 -69.333 -306 -160.333 -398 -273
s-162 -253 -210 -421c42 79.333 102.333 139.833 181 181.5s168.334 62.5 269.001 62.5c143.333 0 259.166 -40 347.499 -120s132.5 -180.667 132.5 -302c0 -125.333 -45.5 -230.5 -136.5 -315.5s-216.167 -127.5 -375.5 -127.5c-169.333 0 -299.166 42.833 -389.499 128.5
s-135.5 202.834 -135.5 351.501zM269.999 409.999c0 -102.667 33.1689 -184 99.502 -244s167.166 -90 302.499 -90c114.667 0 208.167 31.667 280.5 95s108.5 145 108.5 245c0 98 -32.833 176.333 -98.5 235s-157.834 88 -276.501 88c-112 0 -209.333 -31.333 -292 -94
s-124 -141 -124 -235z" />
    <glyph glyph-name="seven" unicode="7" horiz-adv-x="1136" 
d="M72 1310.5c0 15 5.33203 27.668 15.999 38.001s23.667 15.5 39 15.5h885c42 0 63 -17 63 -51c0 -12 -4.66699 -24.333 -14 -37c-161.333 -206 -280.5 -402.167 -357.5 -588.5s-115.5 -400.5 -115.5 -642.5c0 -18 -5.5 -32.667 -16.5 -44s-26 -17 -45 -17
s-34 5.66699 -45 17s-16.5 26 -16.5 44c0 240 38.833 456.667 116.5 650s188.834 380.666 333.501 561.999h-788c-15.333 0 -28.333 5.16699 -39 15.5s-16 23 -16 38z" />
    <glyph glyph-name="eight" unicode="8" horiz-adv-x="1335" 
d="M135 379c0 95.333 30.002 174.833 90.002 238.5s139.333 108.5 238 134.5c-154 69.333 -231.333 169 -232 299c0 102.667 41 184.667 123 246s186.5 92 313.5 92s231.5 -30.833 313.5 -92.5s123 -143.5 123 -245.5c0 -130 -77.333 -229.667 -232 -299
c98 -26 177.167 -70.833 237.5 -134.5s90.5 -143.167 90.5 -238.5c0 -118.667 -47.833 -215.667 -143.5 -291s-225.334 -113 -389.001 -113s-293.334 37.667 -389.001 113s-143.5 172.333 -143.5 291zM256.002 381c0 -94 36.833 -168.333 110.5 -223s174 -82 301 -82
s227.333 27.333 301 82s110.5 129 110.5 223c0 96.667 -39.5 172.667 -118.5 228s-176.5 83 -292.5 83s-213.667 -27.667 -293 -83s-119 -131.333 -119 -228zM348.002 1044c0 -72.667 30.3311 -133 90.998 -181s136.834 -72 228.501 -72s167.834 24.167 228.501 72.5
s91 108.5 91 180.5c0 76.667 -29 136.834 -87 180.501s-135.5 65.5 -232.5 65.5s-174.5 -21.833 -232.5 -65.5s-87 -103.834 -87 -180.501z" />
    <glyph glyph-name="nine" unicode="9" horiz-adv-x="1286" 
d="M117 946c0 125.333 45.668 230.499 137.001 315.499s216.333 127.5 375 127.5c169.333 0 299 -42.667 389 -128s135 -202.666 135 -351.999c0 -195.333 -54.333 -373.833 -163 -535.5s-253.667 -282.167 -435 -361.5c-58.667 -24.667 -101 -37 -127 -37
c-34 0 -51 13.667 -51 41c0 13.333 4.33301 23.833 13 31.5s24.667 16.5 48 26.5c173.333 69.333 306.166 160.333 398.499 273s162.5 253 210.5 421c-42 -79.333 -102.333 -139.833 -181 -181.5s-168.667 -62.5 -270 -62.5c-148.667 0 -265.667 39.667 -351 119
s-128 180.333 -128 303zM236.001 947.999c0 -98 32.667 -176.333 98 -235s157.333 -88 276 -88c112 0 209.333 31.333 292 94s124 141 124 235c0 102.667 -33.167 184 -99.5 244s-166.833 90 -301.5 90c-114.667 0 -208.167 -31.667 -280.5 -95s-108.5 -145 -108.5 -245z
" />
    <glyph glyph-name="colon" unicode=":" horiz-adv-x="479" 
d="M154 74c0 23.333 8.5 43.5 25.5 60.5s37 25.5 60 25.5s43.167 -8.5 60.5 -25.5s26 -37.167 26 -60.5s-8.66699 -43.5 -26 -60.5s-37.5 -25.5 -60.5 -25.5s-43 8.5 -60 25.5s-25.5 37.167 -25.5 60.5zM154 680c0 23.333 8.5 43.5 25.5 60.5s37 25.5 60 25.5
s43.167 -8.5 60.5 -25.5s26 -37.167 26 -60.5s-8.66699 -43.5 -26 -60.5s-37.5 -25.5 -60.5 -25.5s-43 8.5 -60 25.5s-25.5 37.167 -25.5 60.5z" />
    <glyph glyph-name="semicolon" unicode=";" horiz-adv-x="468" 
d="M113 -283c0 10.667 3.33301 24.334 10 41.001c32.667 83.333 49 181 49 293v86c0 16.667 5.5 30.834 16.5 42.501s24.667 17.5 41 17.5s30 -5.83301 41 -17.5s16.5 -25.834 16.5 -42.501v-86c0 -114.667 -19.333 -223.667 -58 -327
c-13.333 -36.667 -34.333 -55.334 -63 -56.001c-35.333 0 -53 16.333 -53 49zM143 680c0 23.333 8.66699 43.5 26 60.5s37.5 25.5 60.5 25.5s43 -8.5 60 -25.5s25.5 -37.167 25.5 -60.5s-8.5 -43.5 -25.5 -60.5s-37 -25.5 -60 -25.5s-43.167 8.5 -60.5 25.5
s-26 37.167 -26 60.5z" />
    <glyph glyph-name="less" unicode="&#x3c;" horiz-adv-x="1105" 
d="M102 661.5c0 17.667 11 33.499 33 47.499l742 413c9.33301 5.33301 20 8 32 8c16.667 0 29.834 -5 39.501 -15s14.5 -22 14.5 -36c0 -22 -11 -38.333 -33 -49l-680 -368l680 -369c22 -10.667 33 -27 33 -49c0 -13.333 -4.83301 -25.166 -14.5 -35.499
s-22.834 -15.5 -39.501 -15.5c-12 0 -22.667 2.66699 -32 8l-742 413c-22 14 -33 29.833 -33 47.5z" />
    <glyph glyph-name="equal" unicode="=" horiz-adv-x="1126" 
d="M174 477.5c0 15 5.83105 27.5 17.498 37.5s24.834 15 39.501 15h664c15.333 0 28.666 -5 39.999 -15s17 -22.5 17 -37.5s-5.66699 -27.667 -17 -38s-24.666 -15.5 -39.999 -15.5h-664c-15.333 0 -28.666 5.16699 -39.999 15.5s-17 23 -17 38zM173.998 833.5
c0 15 5.83105 27.667 17.498 38s24.834 15.5 39.501 15.5h664c15.333 0 28.666 -5.16699 39.999 -15.5s17 -23 17 -38s-5.66699 -27.667 -17 -38s-24.666 -15.5 -39.999 -15.5h-664c-15.333 0 -28.666 5.16699 -39.999 15.5s-17 23 -17 38z" />
    <glyph glyph-name="greater" unicode="&#x3e;" horiz-adv-x="1105" 
d="M143 244c0 22 11 38.335 33 49.002l680 369l-680 368c-22 10.667 -33 27 -33 49c0 13.333 4.83301 25.166 14.5 35.499s22.834 15.5 39.501 15.5c12 0 22.667 -2.66699 32 -8l742 -413c22 -13.333 33 -29 33 -47s-11 -34 -33 -48l-742 -413
c-9.33301 -5.33301 -20 -8 -32 -8c-16.667 0 -29.834 5.16699 -39.501 15.5s-14.5 22.166 -14.5 35.499z" />
    <glyph glyph-name="question" unicode="?" horiz-adv-x="1007" 
d="M102 1227c0 19.333 15 38.333 45 57c108 69.333 232.333 104.333 373 105c117.333 0 212.5 -27 285.5 -81s109.5 -129 109.5 -225c0 -106.667 -68 -215.667 -204 -327c-84.667 -68 -137.334 -118.833 -158.001 -152.5s-31 -88.834 -31 -165.501v-84
c0 -16.667 -6.16699 -30.334 -18.5 -41.001s-27.166 -16 -44.499 -16c-16.667 0 -30.834 5.83301 -42.501 17.5s-17.5 24.834 -17.5 39.501v82c0 52 3.16699 94.667 9.5 128s20 64.666 41 93.999s40 52.333 57 69s48.167 43.334 93.5 80.001
c72.667 60 123 109.833 151 149.5s42 81.834 42 126.501c0 130 -93.667 195 -281 195c-109.333 0 -215 -30.667 -317 -92c-13.333 -8 -25.666 -12 -36.999 -12c-15.333 0 -28.5 5 -39.5 15s-16.5 22.667 -16.5 38zM375 74c0 23.333 8.5 43.5 25.5 60.5
s37.167 25.5 60.5 25.5s43.5 -8.5 60.5 -25.5s25.5 -37.167 25.5 -60.5s-8.5 -43.5 -25.5 -60.5s-37.167 -25.5 -60.5 -25.5s-43.5 8.5 -60.5 25.5s-25.5 37.167 -25.5 60.5z" />
    <glyph glyph-name="at" unicode="@" horiz-adv-x="1548" 
d="M119 696c0 202 60.333 367.998 181 497.998s283.334 195 488.001 195c150 0 264 -38 342 -114s117 -183 117 -321v-540c0 -34 -17 -51.167 -51 -51.5s-51 16.834 -51 51.501v78c-57.333 -91.333 -143.333 -137.333 -258 -138c-98 0 -179.5 33.5 -244.5 100.5
s-97.5 150.333 -97.5 250s32.333 183 97 250s146.334 100.5 245.001 100.5c114.667 0 200.667 -45.667 258 -137v57c0 216 -119.667 323.667 -359 323c-174.667 0 -312.5 -56.667 -413.5 -170s-151.5 -257.333 -151.5 -432c0 -181.333 60.833 -331.666 182.5 -450.999
s292.167 -179 511.5 -179c155.333 0 318.666 34.667 489.999 104c5.33301 2.66699 12.666 4 21.999 4c12 0 21.5 -4 28.5 -12s10.5 -17 10.5 -27c0 -19.333 -9.33301 -33 -28 -41c-154 -79.333 -328.333 -119 -523 -119c-248.667 0 -443.5 68.333 -584.5 205
s-211.5 308.667 -211.5 516zM649 704.498c0 -75 22.166 -137.167 66.499 -186.5s102.833 -74 175.5 -74c74 0 134.5 24 181.5 72s70.5 110.833 70.5 188.5s-23.667 140.5 -71 188.5s-107.666 72 -180.999 72c-72.667 0 -131.167 -24.667 -175.5 -74
s-66.5 -111.5 -66.5 -186.5z" />
    <glyph glyph-name="A" unicode="A" 
d="M98 39c0 8 2.66699 17.668 8 29.001l570 1271c12 27.333 31 41 57 41s45.333 -13.667 58 -41l569 -1271c5.33301 -10.667 8 -20.334 8 -29.001c0 -16.667 -5.5 -30 -16.5 -40s-25.167 -15 -42.5 -15c-26 0 -44.667 13 -56 39l-168 374h-704l-168 -374
c-10.667 -26 -29 -39 -55 -39c-18 0 -32.5 5 -43.5 15s-16.5 23.333 -16.5 40zM428 506.001h610l-305 702z" />
    <glyph glyph-name="B" unicode="B" horiz-adv-x="1325" 
d="M195 61v1242c0 18 5.33301 32.667 16 44s25.667 17 45 17h465c118.667 0 215.5 -30.333 290.5 -91s112.5 -142.334 112.5 -245.001c0 -70.667 -16.667 -130 -50 -178s-87 -87 -161 -117c92.667 -15.333 169.167 -53.666 229.5 -114.999s90.5 -142.333 90.5 -243
c0 -104 -40.667 -192.5 -122 -265.5s-195 -109.5 -341 -109.5h-514c-18 0 -32.667 6 -44 18s-17 26.333 -17 43zM317 106l461 0.000976562c106.667 0 188.667 26.333 246 79s86 120 86 202c0 87.333 -30 155.666 -90 204.999s-142.667 74 -248 74h-455v-560zM317 772.001
h416c83.333 0 148.833 23.5 196.5 70.5s71.5 104.833 71.5 173.5c0 78 -24.833 137.667 -74.5 179s-117.5 62 -203.5 62h-406v-485z" />
    <glyph glyph-name="C" unicode="C" horiz-adv-x="1443" 
d="M119 682c0 199.333 63.166 366.999 189.499 502.999s290.5 204 492.5 204c218.667 0 393.334 -86.333 524.001 -259c10.667 -16.667 16 -30 16 -40c0 -16.667 -5.33301 -30.167 -16 -40.5s-24.334 -15.5 -41.001 -15.5c-18 0 -32.333 7.66699 -43 23
c-56 70.667 -118.167 124.834 -186.5 162.501s-152.833 56.5 -253.5 56.5c-170.667 0 -306.5 -58 -407.5 -174s-151.5 -256 -151.5 -420s50.5 -304 151.5 -420s236.833 -174 407.5 -174c101.333 0 186 18.833 254 56.5s130 91.834 186 162.501c10.667 15.333 25 23 43 23
c16.667 0 30.334 -5.16699 41.001 -15.5s16 -23.833 16 -40.5c0 -10.667 -5.33301 -24.334 -16 -41.001c-131.333 -172 -306 -258 -524 -258c-202 0 -366.167 68 -492.5 204s-189.5 303.667 -189.5 503z" />
    <glyph glyph-name="D" unicode="D" horiz-adv-x="1417" 
d="M195 61v1242c0 18 5.66699 32.667 17 44s26 17 44 17h389c203.333 0 367.5 -65.167 492.5 -195.5s187.5 -292.5 187.5 -486.5s-62.5 -356.167 -187.5 -486.5s-289.167 -195.5 -492.5 -195.5h-389c-18 0 -32.667 6 -44 18s-17 26.333 -17 43zM317 111h320
c173.333 0 310.833 53.833 412.5 161.5s152.5 244.167 152.5 409.5s-50.833 301.833 -152.5 409.5s-239.167 161.5 -412.5 161.5h-320v-1142z" />
    <glyph glyph-name="E" unicode="E" horiz-adv-x="1193" 
d="M195 61v1242c0 18 5.66699 32.667 17 44s26 17 44 17h788c15.333 0 28.5 -5.5 39.5 -16.5s16.5 -24 16.5 -39s-5.5 -28 -16.5 -39s-24.167 -16.5 -39.5 -16.5h-727v-493h422c15.333 0 28.5 -5.5 39.5 -16.5s16.5 -24 16.5 -39s-5.5 -28 -16.5 -39
s-24.167 -16.5 -39.5 -16.5h-422v-538h730c15.333 0 28.333 -5.5 39 -16.5s16 -24 16 -39s-5.5 -28 -16.5 -39s-23.833 -16.5 -38.5 -16.5h-791c-18 0 -32.667 5.66699 -44 17s-17 26 -17 44z" />
    <glyph glyph-name="F" unicode="F" horiz-adv-x="1140" 
d="M195 45v1258c0 18 5.66699 32.667 17 44s26 17 44 17h788c15.333 0 28.5 -5.5 39.5 -16.5s16.5 -24 16.5 -39s-5.5 -28 -16.5 -39s-24.167 -16.5 -39.5 -16.5h-727v-493h422c15.333 0 28.5 -5.5 39.5 -16.5s16.5 -24 16.5 -39s-5.5 -28 -16.5 -39
s-24.167 -16.5 -39.5 -16.5h-422v-604c0 -18 -5.66699 -32.667 -17 -44s-26 -17 -44 -17s-32.667 5.66699 -44 17s-17 26 -17 44z" />
    <glyph glyph-name="G" unicode="G" horiz-adv-x="1497" 
d="M119 682c0 200.667 64.1699 368.665 192.503 503.998s291.5 203 489.5 203c194 0 351 -63.667 471 -191c10.667 -13.333 16 -27.5 16 -42.5s-5.16699 -27.667 -15.5 -38s-23.5 -15.5 -39.5 -15.5c-18 0 -32.333 5.33301 -43 16c-109.333 105.333 -239 158 -389 158
c-165.333 0 -299.833 -57.667 -403.5 -173s-155.5 -255.666 -155.5 -420.999c0 -169.333 49.5 -312 148.5 -428s237.167 -174 414.5 -174c181.333 0 330 58 446 174v303h-391c-15.333 0 -28 5.16699 -38 15.5s-15 23 -15 38s5.16699 27.667 15.5 38s22.833 15.5 37.5 15.5
h451c16.667 0 30.667 -5.5 42 -16.5s17 -24.833 17 -41.5v-354c0 -18 -5.33301 -33.667 -16 -47c-60 -66.667 -138.167 -121.667 -234.5 -165s-202.5 -65 -318.5 -65c-110.667 0 -210.334 20.167 -299.001 60.5s-160.334 94.333 -215.001 162
s-96.334 142.834 -125.001 225.501s-43 169 -43 259z" />
    <glyph glyph-name="H" unicode="H" horiz-adv-x="1464" 
d="M195 45v1274c0 18 5.66699 32.667 17 44s26 17 44 17s32.667 -5.66699 44 -17s17 -26 17 -44v-567h830v567c0 18 5.83301 32.667 17.5 44s26.334 17 44.001 17s32.334 -5.66699 44.001 -17s17.5 -26 17.5 -44v-1274c0 -18 -5.83301 -32.667 -17.5 -44
s-26.334 -17 -44.001 -17s-32.334 5.66699 -44.001 17s-17.5 26 -17.5 44v594h-830v-594c0 -18 -5.66699 -32.667 -17 -44s-26 -17 -44 -17s-32.667 5.66699 -44 17s-17 26 -17 44z" />
    <glyph glyph-name="I" unicode="I" horiz-adv-x="532" 
d="M205 45v1274c0 18 5.83301 32.667 17.5 44s26.334 17 44.001 17s32.334 -5.66699 44.001 -17s17.5 -26 17.5 -44v-1274c0 -18 -5.83301 -32.667 -17.5 -44s-26.334 -17 -44.001 -17s-32.334 5.66699 -44.001 17s-17.5 26 -17.5 44z" />
    <glyph glyph-name="J" unicode="J" horiz-adv-x="1210" 
d="M72 375c0 39.333 19.6641 58.999 58.9971 58.999c30 0 48.333 -16.333 55 -49c46.667 -200.667 164.334 -301 353.001 -301c120 0 210.667 37.167 272 111.5s92 178.5 92 312.5v811c0 18 5.83301 32.667 17.5 44s26.334 17 44.001 17s32.334 -5.66699 44.001 -17
s17.5 -26 17.5 -44v-807c0 -161.333 -41 -291.166 -123 -389.499s-202.667 -147.5 -362 -147.5c-125.333 0 -227.333 33.167 -306 99.5s-131.667 156.833 -159 271.5c-2.66699 11.333 -4 21 -4 29z" />
    <glyph glyph-name="K" unicode="K" horiz-adv-x="1353" 
d="M195 45l-0.000976562 1274c0 18 5.66699 32.667 17 44s26 17 44 17s32.667 -5.66699 44 -17s17 -26 17 -44v-735l793 780c10.667 10.667 24.334 16 41.001 16c18 0 32.333 -5.33301 43 -16s16 -23 16 -37c0 -18 -6 -33 -18 -45l-451 -442l488 -764
c8 -15.333 12 -27.666 12 -36.999c0 -15.333 -5.5 -28.333 -16.5 -39s-25.167 -16 -42.5 -16c-22 0 -39.333 9.33301 -52 28l-475 746l-338 -332v-381c0 -18 -5.66699 -32.667 -17 -44s-26 -17 -44 -17s-32.667 5.66699 -44 17s-17 26 -17 44z" />
    <glyph glyph-name="L" unicode="L" horiz-adv-x="1177" 
d="M195 61v1258c0 18 5.66699 32.667 17 44s26 17 44 17s32.667 -5.66699 44 -17s17 -26 17 -44v-1208h734c15.333 0 28.333 -5.5 39 -16.5s16 -24 16 -39s-5.5 -28 -16.5 -39s-23.833 -16.5 -38.5 -16.5h-795c-18 0 -32.667 5.66699 -44 17s-17 26 -17 44z" />
    <glyph glyph-name="M" unicode="M" horiz-adv-x="1732" 
d="M195 43l0.00390625 1278c0 18 5.33301 32.333 16 43s25 16 43 16c24.667 0 43.667 -13 57 -39l555 -1185l555 1185c13.333 26 32.666 39 57.999 39c18 0 32.333 -5.33301 43 -16s16 -25 16 -43v-1278c0 -16.667 -5.5 -30.667 -16.5 -42s-25.167 -17 -42.5 -17
c-16.667 0 -30.5 5.66699 -41.5 17s-16.5 25.333 -16.5 42v1044l-497 -1067c-10.667 -24.667 -29.834 -36.834 -57.501 -36.501s-46.834 12.5 -57.501 36.5l-498 1067v-1044c0 -16.667 -5.33301 -30.667 -16 -42s-24.334 -17 -41.001 -17c-18 0 -32.333 5.66699 -43 17
s-16 25.333 -16 42z" />
    <glyph glyph-name="N" unicode="N" horiz-adv-x="1480" 
d="M195 41v1280c0 18 5.66699 32.333 17 43s26 16 44 16c19.333 0 35 -8.66699 47 -26l866 -1147v1114c0 18 5.5 32.333 16.5 43s25.5 16 43.5 16c16.667 0 30.334 -5.66699 41.001 -17s16 -25.333 16 -42v-1280c0 -16.667 -5.16699 -30.334 -15.5 -41.001
s-24.833 -16 -43.5 -16c-18 0 -33.667 8.66699 -47 26l-869 1145v-1114c0 -15.333 -5.33301 -28.666 -16 -39.999s-24.334 -17 -41.001 -17s-30.667 5.33301 -42 16s-17 24.334 -17 41.001z" />
    <glyph glyph-name="O" unicode="O" horiz-adv-x="1585" 
d="M106 682c0 195.333 64.667 362 194 500s294.333 207 495 207s364.834 -69 492.501 -207s191.5 -304.667 191.5 -500s-63.833 -362 -191.5 -500s-291.834 -207 -492.501 -207s-365.667 69 -495 207s-194 304.667 -194 500zM229 682c0 -164 52 -304.667 156 -422
s240.667 -176 410 -176s305.166 58.667 407.499 176s153.5 258 153.5 422s-51.167 304.667 -153.5 422s-238.166 176 -407.499 176s-306 -58.667 -410 -176s-156 -258 -156 -422z" />
    <glyph glyph-name="P" unicode="P" horiz-adv-x="1284" 
d="M195 45l0.00195312 1258c0 18 6 32.667 18 44s26.333 17 43 17h547c131.333 0 234.166 -35.833 308.499 -107.5s111.5 -163.5 111.5 -275.5s-37.333 -203.833 -112 -275.5s-177.334 -107.5 -308.001 -107.5h-486v-553c0 -18 -5.66699 -32.667 -17 -44s-26 -17 -44 -17
s-32.667 5.66699 -44 17s-17 26 -17 44zM317.002 709h510c83.333 0 149.666 25.5 198.999 76.5s74 116.167 74 195.5s-24.667 144.5 -74 195.5s-115.666 76.5 -198.999 76.5h-510v-544z" />
    <glyph glyph-name="Q" unicode="Q" horiz-adv-x="1585" 
d="M106 682c0 195.333 64.667 362 194 500s294.333 207 495 207s364.834 -69 492.501 -207s191.5 -304.667 191.5 -500c0 -118.667 -25.333 -229.167 -76 -331.5s-120.334 -185.833 -209.001 -250.5l147 -252c5.33301 -10.667 8.33301 -19.334 9 -26.001
c0 -15.333 -5.5 -27.666 -16.5 -36.999s-24.167 -14 -39.5 -14c-19.333 0 -35 9.33301 -47 28l-145 246c-92.667 -46.667 -195 -70 -307 -70c-200.667 0 -365.667 69 -495 207s-194 304.667 -194 500zM229 682c0 -164 52 -304.667 156 -422s240.667 -176 410 -176
c90 0 174 18.333 252 55l-115 197c-8 16.667 -12 28.334 -12 35.001c0 15.333 5.33301 27.666 16 36.999s23.667 14 39 14c20.667 0 35.667 -9 45 -27l117 -198c69.333 56 123.166 126.667 161.499 212s57.5 176.333 57.5 273c0 164 -51.167 304.667 -153.5 422
s-238.166 176 -407.499 176s-306 -58.667 -410 -176s-156 -258 -156 -422z" />
    <glyph glyph-name="R" unicode="R" horiz-adv-x="1402" 
d="M195 45l0.00195312 1258c0 18 6 32.667 18 44s26.333 17 43 17h588c131.333 0 234.166 -35.167 308.499 -105.5s111.5 -161.5 111.5 -273.5c0 -95.333 -27 -176.166 -81 -242.499s-130.333 -108.5 -229 -126.5l267 -544c5.33301 -10.667 8 -20.334 8 -29.001
c0 -16.667 -5.83301 -30.667 -17.5 -42s-25.834 -17 -42.501 -17c-26 0 -45 11.333 -57 34l-289 588h-506v-561c0 -18 -5.66699 -32.667 -17 -44s-26 -17 -44 -17s-32.667 5.66699 -44 17s-17 26 -17 44zM317.002 717h551c83.333 0 149.666 24.833 198.999 74.5
s74 114.167 74 193.5s-24.667 143.833 -74 193.5s-115.666 74.5 -198.999 74.5h-551v-536z" />
    <glyph glyph-name="S" unicode="S" horiz-adv-x="1298" 
d="M133 197c0 13.333 4.83691 24.834 14.5039 34.501s22 14.5 37 14.5s31.167 -6.33301 48.5 -19c138 -96.667 285.667 -145 443 -145c121.333 0 216.166 22.833 284.499 68.5s102.5 106.834 102.5 183.501c0 72.667 -31.833 130 -95.5 172s-162.834 83.667 -297.501 125
c-192.667 58.667 -325.5 120 -398.5 184s-109.5 139 -109.5 225c0 113.333 48.167 199.833 144.5 259.5s217.5 89.5 363.5 89.5c165.333 0 312 -44 440 -132c19.333 -12 29 -26.333 29 -43c0 -13.333 -4.83301 -25.5 -14.5 -36.5s-23.5 -16.5 -41.5 -16.5
c-10.667 0 -21.334 3.33301 -32.001 10c-120 74 -247.667 111 -383 111c-113.333 0 -205.5 -20.167 -276.5 -60.5s-106.5 -100.833 -106.5 -181.5c0 -66.667 28.667 -121.5 86 -164.5s157.666 -87.833 300.999 -134.5l151.5 -52c35.667 -12.667 76.667 -29 123 -49
s81.333 -38.833 105 -56.5s47.167 -38.834 70.5 -63.501s39.833 -52 49.5 -82s14.5 -63.333 14.5 -100c0 -110.667 -45.5 -198.834 -136.5 -264.501s-214.833 -98.5 -371.5 -98.5c-198 0 -370 56.667 -516 170c-19.333 16.667 -29 34 -29 52z" />
    <glyph glyph-name="T" unicode="T" horiz-adv-x="1191" 
d="M37 1308.5c0 15 5.5 28 16.5 39s23.833 16.5 38.5 16.5h1008c15.333 0 28.333 -5.5 39 -16.5s16 -24 16 -39s-5.5 -28 -16.5 -39s-23.833 -16.5 -38.5 -16.5h-443v-1208c0 -18 -5.66699 -32.667 -17 -44s-26 -17 -44 -17s-32.667 5.66699 -44 17s-17 26 -17 44v1208h-443
c-15.333 0 -28.333 5.5 -39 16.5s-16 24 -16 39z" />
    <glyph glyph-name="U" unicode="U" horiz-adv-x="1511" 
d="M180 537l-0.00390625 782c0 18 5.83301 32.667 17.5 44s26.334 17 44.001 17s32.334 -5.66699 44.001 -17s17.5 -26 17.5 -44v-791c0 -139.333 37.167 -248.166 111.5 -326.499s188 -117.5 341 -117.5s266.667 39.167 341 117.5s111.5 187.166 111.5 326.499v791
c0 18 5.83301 32.667 17.5 44s26.334 17 44.001 17s32.334 -5.66699 44.001 -17s17.5 -26 17.5 -44v-782c0 -172 -51.5 -308.667 -154.5 -410s-243.333 -152 -421 -152s-318 50.667 -421 152s-154.5 238 -154.5 410z" />
    <glyph glyph-name="V" unicode="V" horiz-adv-x="1249" 
d="M20 1327c0 15.333 5.83398 28 17.501 38s25.167 15 40.5 15c24.667 0 41.667 -10.667 51 -32l496 -1168l495 1168c9.33301 22 26.333 32.667 51 32c15.333 0 28.833 -5 40.5 -15s17.5 -22.667 17.5 -38c0 -8 -2 -17.667 -6 -29l-543 -1275c-12 -26 -30.333 -39 -55 -39
s-43.334 13 -56.001 39l-542 1275c-4.66699 11.333 -7 21 -7 29z" />
    <glyph glyph-name="W" unicode="W" horiz-adv-x="1933" 
d="M41 1325c0 16.667 5.49707 30 16.4971 40s24.5 15 40.5 15c27.333 0 45.333 -14.333 54 -43l374 -1130l385 1130c8 28.667 26.5 43 55.5 43s47.5 -14.333 55.5 -43l385 -1130l375 1130c8 28.667 25.667 43 53 43c16.667 0 30.334 -5 41.001 -15s16 -23.333 16 -40
c0 -5.33301 -1.33301 -13.666 -4 -24.999l-426 -1277c-9.33301 -26 -27.666 -39 -54.999 -39c-28.667 0 -47 13 -55 39l-385 1134l-385 -1134c-8 -26 -26.667 -39 -56 -39c-27.333 0 -45.666 13 -54.999 39l-426 1277c-2.66699 11.333 -4 19.666 -4 24.999z" />
    <glyph glyph-name="X" unicode="X" horiz-adv-x="1310" 
d="M102 35c0 12 4.33301 24.334 13 37.001l473 614l-467 606c-8 12 -12 23.667 -12 35c0 15.333 5.33301 28 16 38s23.667 15 39 15c19.333 0 35 -7.33301 47 -22l444 -576l445 576c12 15.333 27.667 22.666 47 21.999c15.333 0 28.333 -5 39 -15s16 -22.667 16 -38
c0 -10.667 -4 -22.334 -12 -35.001l-467 -606l473 -614c8 -12 12 -24.333 12 -37c0 -34 -17 -51 -51 -51c-22 0 -39 7.33301 -51 22l-451 584l-450 -584c-12 -15.333 -29 -22.666 -51 -21.999c-34.667 0 -52 17 -52 51z" />
    <glyph glyph-name="Y" unicode="Y" horiz-adv-x="1130" 
d="M10 1325c0 16.667 5.16895 30.001 15.502 40.001s23.833 15 40.5 15c22 0 39.667 -9.33301 53 -28l446 -639l447 639c13.333 19.333 31 28.666 53 27.999c16.667 0 30 -5 40 -15s15 -23.333 15 -40c0 -10.667 -4 -22.334 -12 -35.001l-481 -692v-553
c0 -18 -5.83301 -32.667 -17.5 -44s-26.334 -17 -44.001 -17s-32.334 5.66699 -44.001 17s-17.5 26 -17.5 44v553l-481 692c-8.66699 12.667 -13 24.334 -13 35.001z" />
    <glyph glyph-name="Z" unicode="Z" horiz-adv-x="1304" 
d="M164 53c0 10.667 4.66699 23.667 14 39l821 1165h-770c-15.333 0 -28.333 5.16699 -39 15.5s-16 23 -16 38s5.5 27.667 16.5 38s23.833 15.5 38.5 15.5h875c38 0 57 -17.667 57 -53c0 -13.333 -5.33301 -27 -16 -41l-815 -1164h792c15.333 0 28.5 -5 39.5 -15
s16.5 -22.5 16.5 -37.5s-5.5 -27.667 -16.5 -38s-24.167 -15.5 -39.5 -15.5h-899c-16.667 0 -30.667 4.66699 -42 14s-17 22.333 -17 39z" />
    <glyph glyph-name="bracketleft" unicode="[" horiz-adv-x="700" 
d="M215 -246v1589c0 19.333 5.5 34.5 16.5 45.5s24.5 16.5 40.5 16.5h263c15.333 0 28 -5.16699 38 -15.5s15 -23 15 -38s-5.16699 -27.667 -15.5 -38s-22.833 -15.5 -37.5 -15.5h-197v-1497h197c15.333 0 28 -5 38 -15s15 -22.5 15 -37.5s-5.16699 -27.667 -15.5 -38
s-22.833 -15.5 -37.5 -15.5h-263c-18 0 -32 5.66699 -42 17s-15 25.333 -15 42z" />
    <glyph glyph-name="backslash" unicode="\" horiz-adv-x="921" 
d="M133 1432c0 16.667 5.5 29.667 16.5 39s23.167 14 36.5 14c27.333 0 46 -14.333 56 -43l542 -1587c2.66699 -10.667 4 -19 4 -25c0 -12 -5 -23.167 -15 -33.5s-22.667 -15.5 -38 -15.5c-26 0 -44.333 13.667 -55 41l-543 1585c-2.66699 8.66699 -4 17 -4 25z" />
    <glyph glyph-name="bracketright" unicode="]" horiz-adv-x="700" 
d="M113 -251.5c0 15 4.99902 27.5 14.999 37.5s22.667 15 38 15h196v1497h-196c-15.333 0 -28 5.16699 -38 15.5s-15 23 -15 38s5 27.667 15 38s22.667 15.5 38 15.5h262c16.667 0 30.334 -5.5 41.001 -16.5s16 -26.167 16 -45.5v-1589c0 -16.667 -5 -30.667 -15 -42
s-24 -17 -42 -17h-262c-15.333 0 -28 5.16699 -38 15.5s-15 23 -15 38z" />
    <glyph glyph-name="asciicircum" unicode="^" horiz-adv-x="958" 
d="M113 772c0 8 2.66699 17.667 8 29l311 549c12 20.667 27.667 30.834 47 30.501s35 -10.5 47 -30.5l312 -549c5.33301 -10.667 8 -20.334 8 -29.001c0 -32.667 -17.667 -49 -53 -49c-18 0 -33 9.66699 -45 29l-269 479l-268 -479c-12 -19.333 -27 -29 -45 -29
c-35.333 0 -53 16.333 -53 49z" />
    <glyph glyph-name="underscore" unicode="_" horiz-adv-x="897" 
d="M-2 -27h901v-63h-901v63z" />
    <glyph glyph-name="grave" unicode="`" horiz-adv-x="673" 
d="M205 1315c0 13.333 5.16797 24.5 15.501 33.5s22.166 13.5 35.499 13.5c19.333 0 33.666 -7.66699 42.999 -23l147 -209c8 -12 12.333 -22.667 13 -32c0 -13.333 -4.83301 -24.833 -14.5 -34.5s-21.167 -14.5 -34.5 -14.5c-19.333 0 -36.666 10.667 -51.999 32l-141 199
c-8 11.333 -12 23 -12 35z" />
    <glyph glyph-name="a" unicode="a" horiz-adv-x="1056" 
d="M117 244c0 82 34.499 147.834 103.499 197.501s160.167 74.5 273.5 74.5c62.667 0 119.5 -10.833 170.5 -32.5s89.5 -47.5 115.5 -77.5v120c0 96.667 -24.167 168 -72.5 214s-123.166 69 -224.499 69c-82 0 -166 -17.667 -252 -53c-12 -4 -21.333 -6 -28 -6
c-35.333 0 -53 17 -53 51c0 20.667 10 35.667 30 45c87.333 45.333 192 67.666 314 66.999c130 0 230.667 -33.333 302 -100s107 -161.667 107 -285v-483c0 -18 -5.5 -32.667 -16.5 -44s-26 -17 -45 -17s-34 5.66699 -45 17s-16.5 26 -16.5 44v45
c-68 -76.667 -169.667 -115 -305 -115c-108 0 -194.667 25.333 -260 76s-98 115 -98 193zM239.999 244.001c0 -54.667 23.167 -97.998 69.5 -129.998s107.833 -48 184.5 -48c78 0 145.167 16.667 201.5 50s84.5 76 84.5 128c0 53.333 -28 96.666 -84 129.999
s-120.667 50 -194 50c-79.333 0 -142.833 -16.333 -190.5 -49s-71.5 -76.334 -71.5 -131.001z" />
    <glyph glyph-name="b" unicode="b" horiz-adv-x="1208" 
d="M164 45v1274c0 18 5.83301 32.667 17.5 44s26.334 17 44.001 17s32.334 -5.66699 44.001 -17s17.5 -26 17.5 -44v-594c83.333 125.333 205.333 188 366 188c125.333 0 231.5 -44.333 318.5 -133s130.5 -200.5 130.5 -335.5s-43.333 -247 -130 -336
s-193 -133.5 -319 -133.5c-161.333 0 -283.333 63 -366 189v-119c0 -18 -5.83301 -32.667 -17.5 -44s-26.334 -17 -44.001 -17s-32.334 5.66699 -44.001 17s-17.5 26 -17.5 44zM287 444.5c0 -102.333 32.333 -188.666 97 -258.999s148.167 -105.5 250.5 -105.5
s185.333 34.167 249 102.5s95.5 155.666 95.5 261.999s-31.833 193.666 -95.5 261.999s-146.667 102.5 -249 102.5s-185.833 -35.167 -250.5 -105.5s-97 -156.666 -97 -258.999z" />
    <glyph glyph-name="c" unicode="c" horiz-adv-x="1038" 
d="M109 444.5c0 133.667 44.667 245.166 134 334.499s201 134 335 134c79.333 0 151 -16.333 215 -49s112.333 -73.667 145 -123c8 -12 12 -24 12 -36c0 -15.333 -5.83301 -27.833 -17.5 -37.5s-25.5 -14.5 -41.5 -14.5c-15.333 0 -29.666 8.33301 -42.999 25
c-72.667 86 -162.667 129 -270 129c-100 0 -182.833 -35.167 -248.5 -105.5s-98.5 -156 -98.5 -257s32.833 -186.667 98.5 -257s148.5 -105.5 248.5 -105.5c108 0 198 43 270 129c13.333 16.667 27.666 25 42.999 25c16.667 0 30.667 -4.83301 42 -14.5s17 -22.167 17 -37.5
c0 -12 -4 -24.333 -12 -37c-32.667 -49.333 -81.167 -90.333 -145.5 -123s-135.833 -49 -214.5 -49c-134 0 -245.667 44.833 -335 134.5s-134 201.334 -134 335.001z" />
    <glyph glyph-name="d" unicode="d" horiz-adv-x="1208" 
d="M106 444.5c0 135 43.5 246.833 130.5 335.5s193.167 133 318.5 133c161.333 0 283.666 -62.667 366.999 -188v594c0 18 5.66699 32.667 17 44s26 17 44 17s32.667 -5.66699 44 -17s17 -26 17 -44v-1274c0 -18 -5.66699 -32.667 -17 -44s-26 -17 -44 -17
s-32.667 5.66699 -44 17s-17 26 -17 44v119c-83.333 -125.333 -205.666 -188.333 -366.999 -189c-125.333 0 -231.5 44.5 -318.5 133.5s-130.5 201 -130.5 336zM229 444.5c0 -106.333 31.833 -193.666 95.5 -261.999s146.667 -102.5 249 -102.5s186 35.167 251 105.5
s97.5 156.666 97.5 258.999s-32.5 188.666 -97.5 258.999s-148.667 105.5 -251 105.5s-185.333 -34.167 -249 -102.5s-95.5 -155.666 -95.5 -261.999z" />
    <glyph glyph-name="e" unicode="e" horiz-adv-x="1101" 
d="M106 444c0 128.667 43.168 239 129.501 331s195.5 138 327.5 138c125.333 0 228.333 -43.333 309 -130s121 -196 121 -328c0 -13.333 -5 -25.333 -15 -36s-22 -16 -36 -16h-711c2.66699 -87.333 35.167 -163 97.5 -227s144.5 -96 246.5 -96c113.333 0 206.333 43 279 129
c15.333 18 31 27 47 27c15.333 0 27.666 -5.16699 36.999 -15.5s14 -22.5 14 -36.5c0 -12 -4 -24.333 -12 -37c-36.667 -50.667 -87.167 -92 -151.5 -124s-135.5 -48 -213.5 -48c-142 0 -255.667 45.667 -341 137s-128 202 -128 332zM236.001 506h645.001
c-8 87.333 -41.5 160 -100.5 218s-131.5 87 -217.5 87c-88.667 0 -163.334 -29.333 -224.001 -88s-95 -131 -103 -217z" />
    <glyph glyph-name="f" unicode="f" horiz-adv-x="657" 
d="M25 837.5c0 15 4.66895 27.333 14.002 37s21.666 14.5 36.999 14.5h143v127c0 232 109.333 348 328 348h43c13.333 0 25.166 -4.83301 35.499 -14.5s15.5 -22 15.5 -37s-5.16699 -27.167 -15.5 -36.5s-22.166 -14 -35.499 -14h-37c-72.667 0 -126 -18.5 -160 -55.5
s-51 -99.833 -51 -188.5v-129h233c13.333 0 25.333 -5.16699 36 -15.5s16 -22.333 16 -36s-5.16699 -25.667 -15.5 -36s-22.5 -15.5 -36.5 -15.5h-233v-741c0 -18 -5.83301 -32.667 -17.5 -44s-26.334 -17 -44.001 -17s-32.334 5.66699 -44.001 17s-17.5 26 -17.5 44v741
h-143c-15.333 0 -27.666 4.83301 -36.999 14.5s-14 22 -14 37z" />
    <glyph glyph-name="g" unicode="g" horiz-adv-x="1208" 
d="M106 459c0 135.333 43.834 244.833 131.501 328.5s195.5 125.5 323.5 125.5c83.333 0 156.333 -18.667 219 -56s110 -81.333 142 -132v119c0 18 5.66699 32.667 17 44s26 17 44 17s32.667 -5.83301 44 -17.5s17 -26.167 17 -43.5v-772
c0 -144.667 -38.833 -259.334 -116.5 -344.001s-195.834 -127 -354.501 -127c-143.333 0 -264.666 30.667 -363.999 92c-24.667 13.333 -37 31 -37 53c0 30 15.667 45 47 45c13.333 0 31 -5.33301 53 -16c91.333 -49.333 191.666 -74 300.999 -74
c120 0 208.167 32.5 264.5 97.5s84.5 153.167 84.5 264.5v130c-35.333 -57.333 -85.833 -103.166 -151.5 -137.499s-135.5 -51.5 -209.5 -51.5c-128.667 0 -236.667 42 -324 126s-131 193.667 -131 329zM227.001 458.5c0 -106.333 32.167 -192 96.5 -257
s147.5 -97.5 249.5 -97.5c96.667 0 179 34.833 247 104.5s102 153 102 250s-33.833 180.333 -101.5 250s-150.167 104.5 -247.5 104.5c-102.667 0 -186 -32.5 -250 -97.5s-96 -150.667 -96 -257z" />
    <glyph glyph-name="h" unicode="h" horiz-adv-x="1157" 
d="M164 45v1274c0 18 5.83301 32.667 17.5 44s26.334 17 44.001 17s32.334 -5.66699 44.001 -17s17.5 -26 17.5 -44v-582c68 117.333 179.333 176 334 176c117.333 0 210.5 -38.167 279.5 -114.5s103.5 -175.166 103.5 -296.499v-457c0 -18 -5.83301 -32.667 -17.5 -44
s-26.5 -17 -44.5 -17s-32.667 5.66699 -44 17s-17 26 -17 44v455c0 94 -24.667 167.667 -74 221s-120.333 80 -213 80c-88.667 0 -162 -30 -220 -90s-87 -139.333 -87 -238v-428c0 -18 -5.83301 -32.667 -17.5 -44s-26.334 -17 -44.001 -17s-32.334 5.66699 -44.001 17
s-17.5 26 -17.5 44z" />
    <glyph glyph-name="i" unicode="i" horiz-adv-x="450" 
d="M147 1159c0 22 7.66699 40.5 23 55.5s33.833 22.5 55.5 22.5s40 -7.5 55 -22.5s22.5 -33.5 22.5 -55.5s-7.5 -40.5 -22.5 -55.5s-33.333 -22.5 -55 -22.5s-40.167 7.5 -55.5 22.5s-23 33.5 -23 55.5zM164 45v799c0 18 5.83301 32.667 17.5 44s26.334 17 44.001 17
s32.334 -5.83301 44.001 -17.5s17.5 -26.167 17.5 -43.5v-799c0 -18 -5.83301 -32.667 -17.5 -44s-26.334 -17 -44.001 -17s-32.334 5.66699 -44.001 17s-17.5 26 -17.5 44z" />
    <glyph glyph-name="j" unicode="j" horiz-adv-x="450" 
d="M-88 -348.5c0 13.667 5.16504 25.666 15.498 35.999s22.166 15.5 35.499 15.5h25c72.667 0 120.167 15.333 142.5 46s33.5 85 33.5 163v932c0 18 5.83301 32.667 17.5 44s26.334 17 44.001 17s32.334 -5.83301 44.001 -17.5s17.5 -26.167 17.5 -43.5v-940
c0 -105.333 -21.5 -182.166 -64.5 -230.499s-117.833 -72.5 -224.5 -72.5h-35c-13.333 0 -25.166 5 -35.499 15s-15.5 21.833 -15.5 35.5zM146.998 1159c0 22 7.66699 40.5 23 55.5s33.833 22.5 55.5 22.5s40 -7.5 55 -22.5s22.5 -33.5 22.5 -55.5s-7.5 -40.5 -22.5 -55.5
s-33.333 -22.5 -55 -22.5s-40.167 7.5 -55.5 22.5s-23 33.5 -23 55.5z" />
    <glyph glyph-name="k" unicode="k" horiz-adv-x="983" 
d="M164 45l-0.000976562 1274c0 18 5.83301 32.667 17.5 44s26.334 17 44.001 17s32.334 -5.66699 44.001 -17s17.5 -26 17.5 -44v-827l499 397c13.333 10.667 27 16 41 16c16.667 0 30.167 -5.83301 40.5 -17.5s15.5 -24.167 15.5 -37.5
c0 -16.667 -9.66699 -32.334 -29 -47.001l-342 -271l373 -454c10.667 -15.333 16 -28.333 16 -39c0 -15.333 -5.83301 -28.333 -17.5 -39s-26.167 -16 -43.5 -16c-15.333 0 -29.666 8 -42.999 24l-373 455l-137 -111v-307c0 -18 -5.83301 -32.667 -17.5 -44
s-26.334 -17 -44.001 -17s-32.334 5.66699 -44.001 17s-17.5 26 -17.5 44z" />
    <glyph glyph-name="l" unicode="l" horiz-adv-x="450" 
d="M164 45v1274c0 18 5.83301 32.667 17.5 44s26.334 17 44.001 17s32.334 -5.66699 44.001 -17s17.5 -26 17.5 -44v-1274c0 -18 -5.83301 -32.667 -17.5 -44s-26.334 -17 -44.001 -17s-32.334 5.66699 -44.001 17s-17.5 26 -17.5 44z" />
    <glyph glyph-name="m" unicode="m" horiz-adv-x="1849" 
d="M164 45l0.00585938 798.999c0 18 5.83301 32.667 17.5 44s26.334 17 44.001 17s32.334 -5.83301 44.001 -17.5s17.5 -26.167 17.5 -43.5v-107c68 117.333 176.333 176 325 176c79.333 0 148.666 -19 207.999 -57s103.333 -87.667 132 -149
c79.333 138 201 206.667 365 206c116 0 208.167 -38.167 276.5 -114.5s102.5 -175.166 102.5 -296.499v-457c0 -18 -5.83301 -32.667 -17.5 -44s-26.334 -17 -44.001 -17s-32.334 5.66699 -44.001 17s-17.5 26 -17.5 44v455c0 94 -23.833 167.667 -71.5 221
s-118.167 80 -211.5 80c-88.667 0 -160.667 -29.667 -216 -89s-83 -139 -83 -239v-428c0 -18 -5.83301 -32.667 -17.5 -44s-26.334 -17 -44.001 -17s-32.334 5.66699 -44.001 17s-17.5 26 -17.5 44v455c0 94 -23.833 167.667 -71.5 221s-117.834 80 -210.501 80
c-88.667 0 -160.667 -29.667 -216 -89s-83 -139 -83 -239v-428c0 -18 -5.83301 -32.667 -17.5 -44s-26.334 -17 -44.001 -17s-32.334 5.66699 -44.001 17s-17.5 26 -17.5 44z" />
    <glyph glyph-name="n" unicode="n" horiz-adv-x="1157" 
d="M164 45v798.999c0 18 5.83301 32.667 17.5 44s26.334 17 44.001 17s32.334 -5.83301 44.001 -17.5s17.5 -26.167 17.5 -43.5v-107c68 117.333 179.333 176 334 176c117.333 0 210.5 -38.167 279.5 -114.5s103.5 -175.166 103.5 -296.499v-457
c0 -18 -5.83301 -32.667 -17.5 -44s-26.5 -17 -44.5 -17s-32.667 5.66699 -44 17s-17 26 -17 44v455c0 94 -24.667 167.667 -74 221s-120.333 80 -213 80c-88.667 0 -162 -30 -220 -90s-87 -139.333 -87 -238v-428c0 -18 -5.83301 -32.667 -17.5 -44
s-26.334 -17 -44.001 -17s-32.334 5.66699 -44.001 17s-17.5 26 -17.5 44z" />
    <glyph glyph-name="o" unicode="o" horiz-adv-x="1146" 
d="M106 444.5c0 132.333 44.167 243.5 132.5 333.5s200 135 335 135s246.5 -45 334.5 -135s132 -201.167 132 -333.5s-44 -243.666 -132 -333.999s-199.5 -135.5 -334.5 -135.5s-246.667 45.167 -335 135.5s-132.5 201.666 -132.5 333.999zM229 444.5
c0 -103.667 33.167 -190 99.5 -259s148 -103.5 245 -103.5s178.667 34.5 245 103.5s99.5 155.333 99.5 259s-33.167 190 -99.5 259s-148 103.5 -245 103.5s-178.667 -34.5 -245 -103.5s-99.5 -155.333 -99.5 -259z" />
    <glyph glyph-name="p" unicode="p" horiz-adv-x="1208" 
d="M164 -338v1182c0 18 5.83301 32.667 17.5 44s26.334 17 44.001 17s32.334 -5.83301 44.001 -17.5s17.5 -26.167 17.5 -43.5v-119c83.333 125.333 205.333 188 366 188c125.333 0 231.5 -44.333 318.5 -133s130.5 -200.5 130.5 -335.5s-43.333 -247 -130 -336
s-193 -133.5 -319 -133.5c-161.333 0 -283.333 63 -366 189v-502c0 -18 -5.83301 -32.667 -17.5 -44s-26.334 -17 -44.001 -17s-32.334 5.66699 -44.001 17s-17.5 26 -17.5 44zM287 444.5c0 -102.333 32.333 -188.666 97 -258.999s148.167 -105.5 250.5 -105.5
s185.333 34.167 249 102.5s95.5 155.666 95.5 261.999s-31.833 193.666 -95.5 261.999s-146.667 102.5 -249 102.5s-185.833 -35.167 -250.5 -105.5s-97 -156.666 -97 -258.999z" />
    <glyph glyph-name="q" unicode="q" horiz-adv-x="1208" 
d="M106 444.5c0 135 43.5 246.833 130.5 335.5s193.167 133 318.5 133c161.333 0 283.666 -62.667 366.999 -188v119c0 18 5.66699 32.667 17 44s26 17 44 17s32.667 -5.83301 44 -17.5s17 -26.167 17 -43.5v-1182c0 -18 -5.66699 -32.667 -17 -44s-26 -17 -44 -17
s-32.667 5.66699 -44 17s-17 26 -17 44v502c-83.333 -125.333 -205.666 -188.333 -366.999 -189c-125.333 0 -231.5 44.5 -318.5 133.5s-130.5 201 -130.5 336zM229 444.5c0 -106.333 31.833 -193.666 95.5 -261.999s146.667 -102.5 249 -102.5s186 35.167 251 105.5
s97.5 156.666 97.5 258.999s-32.5 188.666 -97.5 258.999s-148.667 105.5 -251 105.5s-185.333 -34.167 -249 -102.5s-95.5 -155.666 -95.5 -261.999z" />
    <glyph glyph-name="r" unicode="r" horiz-adv-x="673" 
d="M164 45l-0.000976562 799c0 18 5.83301 32.667 17.5 44s26.334 17 44.001 17s32.334 -5.83301 44.001 -17.5s17.5 -26.167 17.5 -43.5v-144c20.667 60 57.167 109.167 109.5 147.5s114.166 57.5 185.499 57.5c18 0 32.667 -4.66699 44 -14s17 -22.333 17 -39
c0 -36.667 -20.333 -55 -61 -55c-87.333 0 -158.333 -37.333 -213 -112s-82 -170 -82 -286v-354c0 -16.667 -5.83301 -31 -17.5 -43s-26.5 -18 -44.5 -18c-16.667 0 -31 6 -43 18s-18 26.333 -18 43z" />
    <glyph glyph-name="s" unicode="s" horiz-adv-x="958" 
d="M133 139c0 13.333 4.50293 24.166 13.5029 32.499s20.167 12.5 33.5 12.5c16.667 0 32.334 -6 47.001 -18c82 -64 175.667 -96 281 -96c70.667 0 126.5 13.333 167.5 40s61.5 62.334 61.5 107.001c0 32.667 -11.833 60.334 -35.5 83.001s-48.834 39.167 -75.501 49.5
s-68 22.833 -124 37.5c-132.667 36.667 -225.667 77.167 -279 121.5s-80 100.166 -80 167.499c0 78 31.5 137 94.5 177s149.167 60 258.5 60c96.667 0 188.667 -23.667 276 -71c36.667 -18 55 -38.667 55 -62c0 -31.333 -17 -47 -51 -47c-10.667 0 -27 6.33301 -49 19
c-76.667 40.667 -154.334 61 -233.001 61c-154 0 -231.333 -44.333 -232 -133c0 -42 17.833 -76 53.5 -102s101.167 -52.667 196.5 -80c120 -35.333 207.333 -71.5 262 -108.5s82 -92.333 82 -166s-31.333 -133.5 -94 -179.5s-149.334 -69 -260.001 -69
c-136.667 0 -251.334 39 -344.001 117c-16.667 12 -25 27.667 -25 47z" />
    <glyph glyph-name="t" unicode="t" horiz-adv-x="661" 
d="M37 837.5c0 15 4.83203 27.333 14.499 37s21.834 14.5 36.501 14.5h182v287c0 18 5.83301 32.667 17.5 44s26.334 17 44.001 17s32.334 -5.83301 44.001 -17.5s17.5 -26.167 17.5 -43.5v-287h207c13.333 0 25.166 -5.16699 35.499 -15.5s15.5 -22.333 15.5 -36
s-5 -25.667 -15 -36s-22 -15.5 -36 -15.5h-207v-741c0 -18 -5.83301 -32.667 -17.5 -44s-26.334 -17 -44.001 -17s-32.334 5.66699 -44.001 17s-17.5 26 -17.5 44v741h-182c-15.333 0 -27.666 4.83301 -36.999 14.5s-14 22 -14 37z" />
    <glyph glyph-name="u" unicode="u" horiz-adv-x="1157" 
d="M154 387v457c0 18 5.66699 32.667 17 44s26 17 44 17s32.667 -5.83301 44 -17.5s17 -26.167 17 -43.5v-455c0 -94 24.667 -167.667 74 -221s120.333 -80 213 -80c88.667 0 162 30 220 90s87 139.333 87 238v428c0 18 5.83301 32.667 17.5 44s26.334 17 44.001 17
s32.334 -5.83301 44.001 -17.5s17.5 -26.167 17.5 -43.5v-799c0 -18 -5.83301 -32.667 -17.5 -44s-26.334 -17 -44.001 -17s-32.334 5.66699 -44.001 17s-17.5 26 -17.5 44v107c-68 -117.333 -179 -176.333 -333 -177c-117.333 0 -210.5 38.333 -279.5 115
s-103.5 175.667 -103.5 297z" />
    <glyph glyph-name="v" unicode="v" horiz-adv-x="897" 
d="M31 850c0 15.333 4.99902 28.333 14.999 39s24 16 42 16c26 0 43.667 -12.333 53 -37l308 -694l307 694c9.33301 24.667 27 37 53 37c18 0 32 -5.5 42 -16.5s15 -23.833 15 -38.5c0 -9.33301 -2.66699 -19.666 -8 -30.999l-358 -801
c-10.667 -23.333 -27.667 -34.833 -51 -34.5s-40.666 11.833 -51.999 34.5l-358 801c-5.33301 11.333 -8 21.666 -8 30.999z" />
    <glyph glyph-name="w" unicode="w" horiz-adv-x="1318" 
d="M37 852c0 16.667 5.49902 29.667 16.499 39s24.5 14 40.5 14c24.667 0 41.667 -13.667 51 -41l224 -682l239 684c9.33301 26 26.333 39 51 39s42 -13 52 -39l239 -684l224 682c9.33301 27.333 26.333 41 51 41c16.667 0 30.334 -4.66699 41.001 -14s16 -22.333 16 -39
c0 -5.33301 -1.33301 -13.666 -4 -24.999l-270 -807c-9.33301 -24.667 -28 -36.667 -56 -36c-28.667 0 -47 13 -55 39l-238 675l-237 -675c-8 -26 -26.333 -39 -55 -39c-27.333 0 -46 12 -56 36l-270 807c-2.66699 11.333 -4 19.666 -4 24.999z" />
    <glyph glyph-name="x" unicode="x" horiz-adv-x="958" 
d="M92 37c0 12 3.99902 24.333 11.999 37l306 372l-299 369c-9.33301 13.333 -14.333 25.666 -15 36.999c0 15.333 5.16699 28 15.5 38s24.333 15 42 15s32.167 -7.33301 43.5 -22l282 -355l283 355c10.667 15.333 24.834 22.833 42.501 22.5s31.667 -5.66602 42 -15.999
s15.5 -22.833 15.5 -37.5c0 -10.667 -4.66699 -23 -14 -37l-299 -369l305 -372c8 -12 12 -24.333 12 -37c0 -15.333 -5.33301 -28 -16 -38s-23.667 -15 -39 -15c-18 0 -32.333 6.66699 -43 20l-289 361l-289 -361c-10.667 -13.333 -25 -20 -43 -20
c-15.333 0 -28.333 5 -39 15s-16 22.667 -16 38z" />
    <glyph glyph-name="y" unicode="y" horiz-adv-x="886" 
d="M27 850c0 15.333 4.99902 28.334 14.999 39.001s24 16 42 16c24.667 0 42.334 -13 53.001 -39l309 -729l304 733c9.33301 23.333 26.333 35 51 35c16.667 0 30 -5.16699 40 -15.5s15 -23.5 15 -39.5c0 -6.66699 -2 -15.667 -6 -27l-301 -729
c-92.667 -222.667 -223 -383.667 -391 -483c-10.667 -6.66699 -23 -10 -37 -10c-16.667 0 -29.667 4.66699 -39 14s-14 21.666 -14 36.999c0 19.333 12 36.333 36 51c114.667 79.333 207.667 180.333 279 303l-348 813c-5.33301 14 -8 24.333 -8 31z" />
    <glyph glyph-name="z" unicode="z" horiz-adv-x="956" 
d="M123 49c0 10.667 4.66797 23.667 14.001 39l559 703h-520c-13.333 0 -25.166 4.66699 -35.499 14s-15.5 21 -15.5 35c0 15.333 5.16699 27.333 15.5 36s22.166 13 35.499 13h631c15.333 0 27.666 -4.5 36.999 -13.5s14 -20.833 14 -35.5c0 -12 -4 -24.333 -12 -37
l-561 -705h528c15.333 0 27.666 -4.66699 36.999 -14s14 -21 14 -35c0 -32.667 -17 -49 -51 -49h-639c-13.333 -0 -25.166 4.83301 -35.499 14.5s-15.5 21.167 -15.5 34.5z" />
    <glyph glyph-name="braceleft" unicode="{" horiz-adv-x="710" 
d="M92 542.5c0 15 5.5 27.667 16.5 38s23.833 15.5 38.5 15.5h17c52 0 89.167 11.667 111.5 35s33.5 60 33.5 110v476c0 125.333 60 188 180 188h89c13.333 0 25.166 -5.16699 35.499 -15.5s15.5 -23 15.5 -38s-5.16699 -27.667 -15.5 -38s-22.166 -15.5 -35.499 -15.5h-70
c-27.333 0 -46.833 -5.66699 -58.5 -17s-17.5 -32 -17.5 -62v-455c0 -68 -13 -120.167 -39 -156.5s-71 -57.833 -135 -64.5c64 -6.66699 109 -28.167 135 -64.5s39 -88.5 39 -156.5v-455c0 -30 5.83301 -50.833 17.5 -62.5s31.167 -17.5 58.5 -17.5h70
c13.333 0 25.166 -5.16699 35.499 -15.5s15.5 -23 15.5 -38s-5.16699 -27.5 -15.5 -37.5s-22.166 -15 -35.499 -15h-89c-120 0 -180 62.667 -180 188v475c0 50.667 -11.167 87.5 -33.5 110.5s-59.5 34.5 -111.5 34.5h-17c-15.333 0 -28.333 5.16699 -39 15.5s-16 23 -16 38z
" />
    <glyph glyph-name="bar" unicode="|" horiz-adv-x="569" 
d="M236 -356v1812c0 13.333 4.33301 24.833 13 34.5s20.5 14.5 35.5 14.5s27 -4.66699 36 -14s13.5 -21 13.5 -35v-1812c0 -13.333 -4.5 -25 -13.5 -35s-21 -15 -36 -15s-26.833 5 -35.5 15s-13 21.667 -13 35z" />
    <glyph glyph-name="braceright" unicode="}" horiz-adv-x="710" 
d="M82 -266.5c0 15 5.16602 27.667 15.499 38s22.166 15.5 35.499 15.5h70c27.333 0 46.833 5.83301 58.5 17.5s17.5 32.5 17.5 62.5v455c0 68 12.833 120 38.5 156s70.834 57.667 135.501 65c-64 6.66699 -109 28.167 -135 64.5s-39 88.5 -39 156.5v455
c0 30 -5.83301 50.667 -17.5 62s-31.167 17 -58.5 17h-70c-13.333 0 -25.166 5.16699 -35.499 15.5s-15.5 23 -15.5 38s5.16699 27.667 15.5 38s22.166 15.5 35.499 15.5h88c120 0 180 -62.667 180 -188v-476c0 -50.667 11.333 -87.5 34 -110.5s60 -34.5 112 -34.5h16
c15.333 0 28.333 -5.16699 39 -15.5s16 -23 16 -38s-5.33301 -27.667 -16 -38s-23.667 -15.5 -39 -15.5h-16c-52 0 -89.333 -11.5 -112 -34.5s-34 -59.833 -34 -110.5v-475c0 -125.333 -60 -188 -180 -188h-88c-13.333 0 -25.166 5 -35.499 15s-15.5 22.5 -15.5 37.5z" />
    <glyph glyph-name="asciitilde" unicode="~" horiz-adv-x="1040" 
d="M123 469c0 9.33301 2.66797 18.998 8.00098 28.998c61.333 102.667 137.666 153.667 228.999 153c49.333 0 111.666 -20.333 186.999 -61c78 -42 130.667 -63.333 158 -64c28.667 0 53.167 7.5 73.5 22.5s44.833 41.167 73.5 78.5c12 16.667 25.667 24.667 41 24
c13.333 0 24.166 -4 32.499 -12s12.5 -18.167 12.5 -30.5s-2.66699 -21.833 -8 -28.5c-68 -102.667 -145.333 -154 -232 -154c-9.33301 0 -19.166 1 -29.499 3l-26.5 5c-7.33301 1.33301 -17.5 4.83301 -30.5 10.5l-29 12.5c-6.33301 2.66699 -18 8.33398 -35 17.001
s-29.5 15.334 -37.5 20.001c-78 38 -128.667 57 -152 57c-26 0 -49.5 -6.83301 -70.5 -20.5s-47.167 -40.167 -78.5 -79.5c-12 -16.667 -25.667 -25 -41 -25c-13.333 0 -24.166 4.16699 -32.499 12.5s-12.5 18.5 -12.5 30.5z" />
    <glyph glyph-name="uni00A0" unicode="&#xa0;" horiz-adv-x="614" 
 />
    <glyph glyph-name="exclamdown" unicode="&#xa1;" horiz-adv-x="573" 
d="M201 827.5c0 23 8.5 43 25.5 60s37.167 25.5 60.5 25.5s43.5 -8.5 60.5 -25.5s25.5 -37 25.5 -60s-8.5 -43.167 -25.5 -60.5s-37.167 -26 -60.5 -26s-43.5 8.66699 -60.5 26s-25.5 37.5 -25.5 60.5zM225 156l29.002 399c2.66699 24.667 13.5 37 32.5 37
s29.833 -12.333 32.5 -37l29 -399v-494c0 -16.667 -5.83301 -31 -17.5 -43s-26.334 -18 -44.001 -18s-32.334 6.16699 -44.001 18.5s-17.5 26.5 -17.5 42.5v494z" />
    <glyph glyph-name="cent" unicode="&#xa2;" horiz-adv-x="1159" 
d="M164 682c0 122.667 38.167 227.331 114.5 313.998s173.833 137 292.5 151v188c0 13.333 5.16699 25.666 15.5 36.999s24.333 17 42 17s31.667 -5.5 42 -16.5s15.5 -23.5 15.5 -37.5v-188c68 -6.66699 129 -25.5 183 -56.5s95.333 -68.167 124 -111.5
c8 -12 12.333 -24.333 13 -37c0 -15.333 -5.83301 -27.666 -17.5 -36.999s-25.834 -14 -42.501 -14c-15.333 0 -29.666 8 -42.999 24c-72.667 86 -162.667 129 -270 129c-100 0 -182.667 -35 -248 -105s-98 -155.667 -98 -257s32.667 -187.166 98 -257.499
s148 -105.5 248 -105.5c108 0 198 43.333 270 130c13.333 16.667 27.666 24.667 42.999 24c16.667 0 30.834 -4.83301 42.501 -14.5s17.5 -21.834 17.5 -36.501c0 -12 -4.33301 -24.333 -13 -37c-30 -44 -72 -81.667 -126 -113s-114.333 -50.333 -181 -57v-186
c0 -13.333 -5.16699 -25.666 -15.5 -36.999s-24.333 -17 -42 -17s-31.667 5.5 -42 16.5s-15.5 23.5 -15.5 37.5v186c-118.667 15.333 -216.167 66.333 -292.5 153s-114.5 191.334 -114.5 314.001z" />
    <glyph glyph-name="sterling" unicode="&#xa3;" horiz-adv-x="1306" 
d="M123 53.5c0 16.333 5.83496 29.167 17.502 38.5s25.5 14 41.5 14h303v547h-264c-16.667 0 -30.667 4.5 -42 13.5s-17 22.333 -17 40s5.83301 31 17.5 40s25.5 13.5 41.5 13.5h264v194c0 142 36.667 250 110 324s176 111 308 111c94 0 172 -13 234 -39
c31.333 -13.333 47 -32 47 -56c0 -34 -17 -51 -51 -51c-9.33301 0 -19 2 -29 6c-56 19.333 -121.667 29 -197 29c-104 0 -179.833 -27 -227.5 -81s-71.5 -135.667 -71.5 -245v-192h457c15.333 0 28.666 -4.83301 39.999 -14.5s17 -22.667 17 -39s-5.83301 -29.333 -17.5 -39
s-24.834 -14.5 -39.501 -14.5h-457v-547h520c15.333 0 28.5 -5 39.5 -15s16.5 -22.667 16.5 -38c0 -16.667 -5.5 -29.667 -16.5 -39s-24.167 -14 -39.5 -14h-946c-16.667 -0 -30.667 4.83301 -42 14.5s-17 22.667 -17 39z" />
    <glyph glyph-name="currency" unicode="&#xa4;" horiz-adv-x="1343" 
d="M154 201c0 10.667 4.66699 22.334 14 35.001l154 151c-69.333 80.667 -104.333 179 -105 295c0 112 34 209.667 102 293l-151 151c-9.33301 9.33301 -14 20.333 -14 33c0 13.333 4.66699 24.833 14 34.5s21 14.5 35 14.5c10.667 0 21.667 -5.33301 33 -16l151 -152
c82 64 177 96.167 285 96.5s202 -32.5 282 -98.5l152 154c13.333 10.667 25 16 35 16c13.333 0 24.833 -4.66699 34.5 -14s14.5 -21 14.5 -35c0 -12 -4.66699 -23 -14 -33l-154 -151c69.333 -84.667 104 -182.334 104 -293.001s-35.333 -209 -106 -295l156 -151
c9.33301 -9.33301 14 -21 14 -35c0 -12 -4.83301 -22.833 -14.5 -32.5s-21.167 -14.5 -34.5 -14.5c-12 0 -23.667 4.66699 -35 14l-154 156c-76.667 -64 -170 -96.333 -280 -97c-112 0 -206.333 32.333 -283 97l-153 -156c-9.33301 -9.33301 -20.333 -14 -33 -14
c-13.333 0 -24.833 4.83301 -34.5 14.5s-14.5 20.5 -14.5 32.5zM332 682c0 -98 32.333 -181.167 97 -249.5s145.5 -102.5 242.5 -102.5s177.667 34.167 242 102.5s96.5 151.5 96.5 249.5s-32.167 181.167 -96.5 249.5s-145 102.5 -242 102.5s-177.833 -34.167 -242.5 -102.5
s-97 -151.5 -97 -249.5z" />
    <glyph glyph-name="yen" unicode="&#xa5;" horiz-adv-x="1191" 
d="M102 1325c0 16.667 5.5 30 16.5 40s24.167 15 39.5 15c22 0 39 -10 51 -30l387 -641l387 641c12 20.667 29 30.667 51 30c15.333 0 28.5 -5 39.5 -15s16.5 -23.333 16.5 -40c0 -10.667 -4.33301 -22.334 -13 -35.001l-303 -499h225c15.333 0 28.166 -4.5 38.499 -13.5
s15.5 -20.333 15.5 -34s-5.16699 -25 -15.5 -34s-23.166 -13.5 -38.499 -13.5h-282l-60 -98v-135h342c15.333 0 28.166 -4.5 38.499 -13.5s15.5 -20.333 15.5 -34s-5.16699 -24.834 -15.5 -33.501s-23.166 -13 -38.499 -13h-342v-324c0 -18 -5.66699 -32.667 -17 -44
s-26 -17 -44 -17s-32.667 5.66699 -44 17s-17 26 -17 44v324h-342c-15.333 0 -28.166 4.33301 -38.499 13s-15.5 19.834 -15.5 33.501s5.16699 25 15.5 34s23.166 13.5 38.499 13.5h342v135l-60 98h-282c-15.333 0 -28.166 4.5 -38.499 13.5s-15.5 20.333 -15.5 34
s5.16699 25 15.5 34s23.166 13.5 38.499 13.5h225l-303 499c-8.66699 12.667 -13 24.334 -13 35.001z" />
    <glyph glyph-name="brokenbar" unicode="&#xa6;" horiz-adv-x="569" 
d="M236 -356v727c0 13.333 4.33301 24.833 13 34.5s20.5 14.5 35.5 14.5s27 -4.83301 36 -14.5s13.5 -21.167 13.5 -34.5v-727c0 -13.333 -4.5 -25 -13.5 -35s-21 -15 -36 -15s-26.833 5 -35.5 15s-13 21.667 -13 35zM236 729v727c0 13.333 4.33301 24.833 13 34.5
s20.5 14.5 35.5 14.5s27 -4.66699 36 -14s13.5 -21 13.5 -35v-727c0 -13.333 -4.5 -24.833 -13.5 -34.5s-21 -14.5 -36 -14.5s-26.833 4.83301 -35.5 14.5s-13 21.167 -13 34.5z" />
    <glyph glyph-name="section" unicode="&#xa7;" horiz-adv-x="1263" 
d="M174 -29c0 13.333 4.50195 24.1621 13.502 32.4951s20.833 12.5 35.5 12.5c19.333 0 38 -6.66699 56 -20c101.333 -80.667 223.333 -121 366 -121c83.333 0 151.333 16.333 204 49s79 76.334 79 131.001c0 20.667 -2.83301 39.167 -8.5 55.5s-17.334 32.333 -35.001 48
s-33 28.334 -46 38.001s-37.167 22.334 -72.5 38.001l-80 35c-18 7.66699 -52 20.834 -102 39.501c-147.333 58.667 -251.5 112 -312.5 160s-91.5 110 -91.5 186c0 109.333 63 194.666 189 255.999c-40.667 34 -69.334 66.167 -86.001 96.5s-25 67.833 -25 112.5
c0 87.333 37.5 154 112.5 200s177.5 69 307.5 69c135.333 0 249.333 -27.333 342 -82c24.667 -13.333 37 -30.666 37 -51.999c0 -13.333 -4.83301 -25.166 -14.5 -35.499s-21.834 -15.5 -36.501 -15.5c-10.667 0 -28.667 7 -54 21c-80.667 42 -174 63 -280 63
c-194 0 -291 -55.333 -291 -166c0 -26 5.83301 -49.833 17.5 -71.5s24.667 -39.667 39 -54s38.5 -30 72.5 -47s62.333 -30 85 -39l110 -42.5c147.333 -56 250 -107.167 308 -153.5s87 -109.833 87 -190.5c0 -108 -55.333 -194.667 -166 -260c78 -56 117 -125 117 -207
c0 -80.667 -38 -147.834 -114 -201.501s-175.333 -80.5 -298 -80.5c-76.667 0 -155.167 13.333 -235.5 40s-147.166 61 -200.499 103c-19.333 14.667 -29 32.334 -29 53.001zM299.002 663.996c0 -54.667 23.833 -98.501 71.5 -131.501s132.5 -73.833 254.5 -122.5l219 -91
c40.667 22 73.667 50.833 99 86.5s38 71.167 38 106.5c0 56 -23.5 101 -70.5 135s-134.167 76.333 -261.5 127c-118.667 49.333 -182 76 -190 80c-106.667 -47.333 -160 -110.666 -160 -189.999z" />
    <glyph glyph-name="dieresis" unicode="&#xa8;" horiz-adv-x="749" 
d="M123 1157c0 23.333 8.16699 42.833 24.5 58.5s35.5 23.5 57.5 23.5s41.167 -7.83301 57.5 -23.5s24.5 -35.167 24.5 -58.5s-8.16699 -42.833 -24.5 -58.5s-35.5 -23.5 -57.5 -23.5s-41.167 7.83301 -57.5 23.5s-24.5 35.167 -24.5 58.5zM463 1157
c0 23.333 8.16699 42.833 24.5 58.5s35.5 23.5 57.5 23.5s41.167 -7.83301 57.5 -23.5s24.5 -35.167 24.5 -58.5s-8.16699 -42.833 -24.5 -58.5s-35.5 -23.5 -57.5 -23.5s-41.167 7.83301 -57.5 23.5s-24.5 35.167 -24.5 58.5z" />
    <glyph glyph-name="copyright" unicode="&#xa9;" horiz-adv-x="1650" 
d="M119 682c0 196.667 67.167 363.667 201.5 501s302.5 206 504.5 206s370.333 -68.667 505 -206s202 -304.333 202 -501s-67.333 -363.667 -202 -501s-303 -206 -505 -206s-370.167 68.667 -504.5 206s-201.5 304.333 -201.5 501zM217 682
c0 -172 56.667 -318.167 170 -438.5s259.5 -180.5 438.5 -180.5s325.167 60.167 438.5 180.5s170 266.5 170 438.5s-56.667 318 -170 438s-259.5 180 -438.5 180s-325.167 -60 -438.5 -180s-170 -266 -170 -438zM508 681.5c0 99.667 31.333 182.67 94 249.003
s146.667 99.5 252 99.5c110.667 0 199.334 -43 266.001 -129c8 -10.667 12.333 -22.334 13 -35.001c0 -15.333 -4.83301 -27 -14.5 -35s-21.5 -12 -35.5 -12c-18 0 -33 7.66699 -45 23c-49.333 61.333 -110.833 92 -184.5 92s-132 -23.833 -175 -71.5
s-64.5 -107.834 -64.5 -180.501s21.5 -132.834 64.5 -180.501s101.5 -71.5 175.5 -71.5s135.333 30.667 184 92c12 15.333 27 23 45 23c13.333 0 25 -4.16699 35 -12.5s15 -19.833 15 -34.5c0 -12 -4.33301 -23.667 -13 -35c-66.667 -86 -155.334 -129 -266.001 -129
c-105.333 0 -189.333 33 -252 99s-94 148.833 -94 248.5z" />
    <glyph glyph-name="ordfeminine" unicode="&#xaa;" horiz-adv-x="849" 
d="M154 938c0 54.667 23.165 97.666 69.498 128.999s106.166 47 179.499 47c84.667 0 151 -21.667 199 -65v84c0 114.667 -62.667 172 -188 172c-61.333 0 -118.666 -12.333 -171.999 -37c-5.33301 -2.66699 -11.666 -4 -18.999 -4c-27.333 0 -41 13 -41 39
c0 19.333 16.333 36.333 49 51c50.667 23.333 113.667 35 189 35c88.667 0 156.834 -22.667 204.501 -68s71.5 -109.666 71.5 -192.999v-311c0 -32.667 -15.667 -49 -47 -49c-30 0 -45 16.333 -45 49v19c-45.333 -49.333 -113 -74 -203 -74c-74 0 -133.667 15.333 -179 46
s-68 74 -68 130zM247.998 937.999c0 -34 15 -60.333 45 -79s69 -28 117 -28c52 0 97 10 135 30s57 45.667 57 77c0 32.667 -18.333 58.5 -55 77.5s-79 28.5 -127 28.5s-88.667 -8.83301 -122 -26.5s-50 -44.167 -50 -79.5z" />
    <glyph glyph-name="guillemotleft" unicode="&#xab;" horiz-adv-x="1165" 
d="M123 436.5c0 13.667 5.33301 25.8301 16 36.4971l324 311c13.333 10.667 26.333 16.334 39 17.001c15.333 0 28.333 -4.83301 39 -14.5s16 -21.167 16 -34.5c0 -15.333 -6.66699 -29.666 -20 -42.999l-289 -273l289 -272c13.333 -13.333 20 -27.666 20 -42.999
c0 -13.333 -5.5 -24.833 -16.5 -34.5s-23.833 -14.5 -38.5 -14.5c-12 0 -25 5.33301 -39 16l-324 311c-10.667 11.333 -16 23.833 -16 37.5zM588 436.496c0 13.667 5.33301 25.8301 16 36.4971l324 311c13.333 10.667 26.333 16.334 39 17.001
c15.333 0 28.333 -4.83301 39 -14.5s16 -21.167 16 -34.5c0 -15.333 -7 -29.666 -21 -42.999l-288 -273l288 -272c13.333 -13.333 20.333 -27.666 21 -42.999c0 -13.333 -5.5 -24.833 -16.5 -34.5s-23.833 -14.5 -38.5 -14.5c-12 0 -25 5.33301 -39 16l-324 311
c-10.667 11.333 -16 23.833 -16 37.5z" />
    <glyph glyph-name="logicalnot" unicode="&#xac;" horiz-adv-x="1280" 
d="M154 616.5c0 16.333 5.66699 29.668 17 40.001s25.333 15.5 42 15.5h803c16.667 0 30.667 -5.16699 42 -15.5s17 -23.833 17 -40.5v-401c0 -16.667 -5.83301 -30.667 -17.5 -42s-25.667 -17 -42 -17s-30.333 5.66699 -42 17s-17.5 25.333 -17.5 42v346h-743
c-16.667 0 -30.667 5.16699 -42 15.5s-17 23.666 -17 39.999z" />
    <glyph glyph-name="uni00AD" unicode="&#xad;" horiz-adv-x="897" 
d="M143 507.5c0 16.333 5.16699 29 15.5 38s23.166 13.5 38.499 13.5h503c15.333 0 28.166 -4.5 38.499 -13.5s15.5 -21.667 15.5 -38s-5.16699 -28.833 -15.5 -37.5s-23.166 -13 -38.499 -13h-503c-15.333 0 -28.166 4.33301 -38.499 13s-15.5 21.167 -15.5 37.5z" />
    <glyph glyph-name="registered" unicode="&#xae;" horiz-adv-x="851" 
d="M82 1048.5c0 95.667 32.333 176.334 97 242.001s146.834 98.5 246.501 98.5s182 -32.833 247 -98.5s97.5 -146.334 97.5 -242.001s-32.5 -176.167 -97.5 -241.5s-147.333 -98 -247 -98s-181.834 32.667 -246.501 98s-97 145.833 -97 241.5zM143 1048.5
c0 -79 25.667 -145.833 77 -200.5s120 -82 206 -82s154.667 27.333 206 82s77 121.5 77 200.5s-25.667 145.833 -77 200.5s-120 82 -206 82s-154.667 -27.333 -206 -82s-77 -121.5 -77 -200.5zM319 899v305.002c0 8 3.16699 15.167 9.5 21.5s13.5 9.5 21.5 9.5h88
c39.333 0 70.333 -9.83301 93 -29.5s34 -46.834 34 -81.501c0 -50.667 -21 -84.667 -63 -102l65 -104c2.66699 -5.33301 4 -11 4 -17c0 -6.66699 -3 -12.834 -9 -18.501s-13 -8.5 -21 -8.5c-12 0 -21.667 6.33301 -29 19l-70 119h-63v-113
c0 -6.66699 -2.83301 -12.834 -8.5 -18.501s-12.5 -8.5 -20.5 -8.5s-15.167 2.83301 -21.5 8.5s-9.5 11.834 -9.5 18.501zM379 1067l65.001 -0.000976562c19.333 0 34.166 5.5 44.499 16.5s15.5 24.5 15.5 40.5c0 36.667 -20 55.334 -60 56.001h-65v-113z" />
    <glyph glyph-name="macron" unicode="&#xaf;" horiz-adv-x="796" 
d="M123 1146.5c0 12.333 4.5 23 13.5 32s19.5 13.5 31.5 13.5h461c12 0 22.5 -4.5 31.5 -13.5s13.5 -19.667 13.5 -32s-4.5 -22.833 -13.5 -31.5s-19.5 -13 -31.5 -13h-461c-12 0 -22.5 4.33301 -31.5 13s-13.5 19.167 -13.5 31.5z" />
    <glyph glyph-name="degree" unicode="&#xb0;" horiz-adv-x="622" 
d="M82 1157c0 64 20.833 118.667 62.5 164s97.334 68 167.001 68s125.334 -22.667 167.001 -68s62.5 -100 62.5 -164s-20.833 -118.167 -62.5 -162.5s-97.334 -66.5 -167.001 -66.5s-125.334 22.167 -167.001 66.5s-62.5 98.5 -62.5 162.5zM168 1157.5
c0 -45 13 -81.833 39 -110.5s60.833 -43 104.5 -43s78.5 14.333 104.5 43s39 65.5 39 110.5s-13 82.167 -39 111.5s-60.833 44 -104.5 44s-78.5 -14.667 -104.5 -44s-39 -66.5 -39 -111.5z" />
    <glyph glyph-name="plusminus" unicode="&#xb1;" horiz-adv-x="1187" 
d="M133 55.5c0 16.333 5.83301 29.333 17.5 39s25.834 14.5 42.501 14.5h802c16.667 0 30.834 -4.83301 42.501 -14.5s17.5 -22.667 17.5 -39s-5.83301 -29.666 -17.5 -39.999s-25.834 -15.5 -42.501 -15.5h-802c-16.667 0 -30.834 5.16699 -42.501 15.5
s-17.5 23.666 -17.5 39.999zM133 682c0 16.667 5.83301 30 17.5 40s25.834 15 42.501 15h342v326c0 16.667 5.66699 30.667 17 42s25.166 17 41.499 17s30.333 -5.83301 42 -17.5s17.5 -25.5 17.5 -41.5v-326h342c16.667 0 30.834 -5 42.501 -15s17.5 -23.333 17.5 -40
s-5.83301 -30 -17.5 -40s-25.834 -15 -42.501 -15h-342v-326c0 -16.667 -5.83301 -30.667 -17.5 -42s-25.667 -17 -42 -17s-30.166 5.66699 -41.499 17s-17 25.333 -17 42v326h-342c-16.667 0 -30.834 5 -42.501 15s-17.5 23.333 -17.5 40z" />
    <glyph glyph-name="uni00B2" unicode="&#xb2;" horiz-adv-x="968" 
d="M184 596c0 39.333 5.83105 75.5029 17.498 108.503s24 59.667 37 80s35.5 43.166 67.5 68.499s57 43.166 75 53.499l92 54.5c8 5.33301 21.333 13 40 23l40 21.5c8 4.33301 19.5 11.166 34.5 20.499s26.167 17 33.5 23l25 20c10 8 17.833 15.5 23.5 22.5
s11.167 14.833 16.5 23.5s9 17.834 11 27.501s3 19.167 3 28.5c0 79.333 -61.333 119 -184 119c-65.333 0 -131.666 -17.667 -198.999 -53c-26 -12 -46.833 -14 -62.5 -6s-23.5 21 -23.5 39c0 20.667 11 37.667 33 51c75.333 45.333 160 68 254 68
c90 0 160.667 -18.5 212 -55.5s77 -91.167 77 -162.5c0 -31.333 -5.83301 -59.833 -17.5 -85.5s-32.167 -50.5 -61.5 -74.5s-56 -43.5 -80 -58.5s-60.333 -36.167 -109 -63.5c-86 -48 -146.167 -88.667 -180.5 -122s-54.166 -76 -59.499 -128h467
c13.333 0 24.833 -4.16699 34.5 -12.5s14.5 -19.333 14.5 -33s-4.83301 -25.167 -14.5 -34.5s-21.167 -14 -34.5 -14h-533c-13.333 0 -24.833 4.66699 -34.5 14s-14.5 21.666 -14.5 36.999z" />
    <glyph glyph-name="uni00B3" unicode="&#xb3;" horiz-adv-x="919" 
d="M133 668c0 20.667 9.49805 34.666 28.498 41.999s40.167 2.66602 63.5 -14.001c66.667 -48 140.334 -71.667 221.001 -71c66.667 0 119.667 15 159 45s59 69.333 59 118c0 104 -74 156 -222 156h-73c-13.333 0 -25.333 4.5 -36 13.5s-16 20.333 -16 34
s4.83301 24.5 14.5 32.5s22.167 12 37.5 12h73c54.667 0 98.167 13.333 130.5 40s48.5 59.334 48.5 98.001c0 39.333 -14.833 69.5 -44.5 90.5s-68.167 31.5 -115.5 31.5c-53.333 0 -110.666 -11.333 -171.999 -34c-22 -8 -39.833 -7.66699 -53.5 1
s-20.5 20.334 -20.5 35.001c0 22 12.333 38 37 48c64 28.667 133.667 43 209 43c80.667 0 144.5 -18.5 191.5 -55.5s70.5 -88.833 70.5 -155.5c0 -86 -45.667 -147 -137 -183c56 -9.33301 100 -32.5 132 -69.5s48 -83.5 48 -139.5c0 -74 -28.667 -134.833 -86 -182.5
s-134.333 -71.5 -231 -71.5c-112 0 -208.333 30.333 -289 91c-18 12 -27 27 -27 45z" />
    <glyph glyph-name="acute" unicode="&#xb4;" horiz-adv-x="673" 
d="M215 1098c0 9.33301 4.00195 20 12.002 32l148 209c9.33301 15.333 23.666 23 42.999 23c13.333 0 25.166 -4.16699 35.499 -12.5s15.5 -19.833 15.5 -34.5c0 -12 -4 -23.667 -12 -35l-142 -199c-16.667 -22 -33.667 -32.667 -51 -32
c-13.333 0 -24.833 4.83301 -34.5 14.5s-14.5 21.167 -14.5 34.5z" />
    <glyph glyph-name="uni00B5" unicode="&#xb5;" horiz-adv-x="1157" 
d="M154 -338v1182c0 18 5.66699 32.667 17 44s26 17 44 17s32.667 -5.83301 44 -17.5s17 -26.167 17 -43.5v-455c0 -100 23 -175.167 69 -225.5s118.667 -75.5 218 -75.5c88.667 0 162 30 220 90s87 139.333 87 238v428c0 18 5.83301 32.667 17.5 44s26.334 17 44.001 17
s32.334 -5.83301 44.001 -17.5s17.5 -26.167 17.5 -43.5v-799c0 -18 -5.83301 -32.667 -17.5 -44s-26.334 -17 -44.001 -17s-32.334 5.66699 -44.001 17s-17.5 26 -17.5 44v107c-68 -117.333 -179 -176.333 -333 -177c-105.333 0 -192.333 32.333 -261 97v-410
c0 -18 -5.66699 -32.667 -17 -44s-26 -17 -44 -17s-32.667 5.66699 -44 17s-17 26 -17 44z" />
    <glyph glyph-name="paragraph" unicode="&#xb6;" horiz-adv-x="1234" 
d="M123 981c0 122.667 40.999 217.165 122.999 283.498s183.667 99.5 305 99.5h422c16.667 0 30.334 -5.16699 41.001 -15.5s16 -24.166 16 -41.499v-1266c0 -15.333 -5.83301 -28.666 -17.5 -39.999s-25 -17 -40 -17s-28.333 5.66699 -40 17s-17.5 24.666 -17.5 39.999
v1223h-221v-1606c0 -15.333 -5.83301 -28.666 -17.5 -39.999s-25 -17 -40 -17s-28.167 5.66699 -39.5 17s-17 24.666 -17 39.999v942h-29c-121.333 0 -223 33.833 -305 101.5s-123 160.834 -123 279.501zM241.999 980.998c0 -90 27.667 -160 83 -210s130 -75 224 -75h31v568
h-33c-90 0 -163.333 -24 -220 -72s-85 -118.333 -85 -211z" />
    <glyph glyph-name="periodcentered" unicode="&#xb7;" horiz-adv-x="479" 
d="M154 553c0 23.333 8.5 43.5 25.5 60.5s37 25.5 60 25.5s43.167 -8.5 60.5 -25.5s26 -37.167 26 -60.5s-8.66699 -43.5 -26 -60.5s-37.5 -25.5 -60.5 -25.5s-43 8.5 -60 25.5s-25.5 37.167 -25.5 60.5z" />
    <glyph glyph-name="cedilla" unicode="&#xb8;" horiz-adv-x="620" 
d="M133 -336c0 13.333 5.50098 24.167 16.501 32.5s23.833 9.83301 38.5 4.5c40.667 -15.333 79 -23 115 -23c74 0 111 24 111 72c0 42 -30 63.333 -90 64c-16.667 0 -36 -2.5 -58 -7.5s-38.333 -7.5 -49 -7.5s-19.834 3.5 -27.501 10.5s-11.5 15.167 -11.5 24.5
c0 8 2.66699 18.333 8 31l60 137h84l-54 -129c22 10.667 47.333 16 76 16c48 0 86 -12.167 114 -36.5s42 -57.833 42 -100.5c0 -45.333 -17.5 -81.833 -52.5 -109.5s-85.167 -41.5 -150.5 -41.5c-53.333 0 -101 8.66699 -143 26c-19.333 8 -29 20.333 -29 37z" />
    <glyph glyph-name="uni00B9" unicode="&#xb9;" horiz-adv-x="712" 
d="M143 1255c0 23.333 13.667 39.332 41 47.999l193 65c24.667 8 43 12 55 12c36.667 0 55 -18.333 55 -55v-731c0 -15.333 -5 -28 -15 -38s-22.5 -15 -37.5 -15s-27.667 5 -38 15s-15.5 22.667 -15.5 38v678l-174 -58c-18 -5.33301 -33.167 -3.66602 -45.5 5.00098
s-18.5 20.667 -18.5 36z" />
    <glyph glyph-name="ordmasculine" unicode="&#xba;" horiz-adv-x="847" 
d="M113 1077c0 88.667 28.333 162.83 85 222.497s132 89.5 226 89.5s169.333 -30.167 226 -90.5s85 -134.166 85 -221.499s-28.667 -161.666 -86 -222.999s-132.333 -92 -225 -92c-94 0 -169.333 30.333 -226 91s-85 135.334 -85 224.001zM207 1077.5
c0 -67 19.5 -122.333 58.5 -166s91.833 -65.5 158.5 -65.5s119.5 21.833 158.5 65.5s58.5 99 58.5 166s-19.5 121.333 -58.5 163s-91.833 62.5 -158.5 62.5s-119.5 -20.833 -158.5 -62.5s-58.5 -96 -58.5 -163z" />
    <glyph glyph-name="guillemotright" unicode="&#xbb;" horiz-adv-x="1165" 
d="M143 121c0 15.333 7 29.6689 21 43.002l289 272l-289 273c-13.333 13.333 -20.333 27.666 -21 42.999c0 13.333 5.5 24.833 16.5 34.5s24.167 14.5 39.5 14.5c12 0 25 -5.66699 39 -17l323 -311c10.667 -10.667 16.167 -22.834 16.5 -36.501
s-5.16699 -26.167 -16.5 -37.5l-323 -311c-13.333 -10.667 -26.333 -16 -39 -16c-15.333 0 -28.5 4.83301 -39.5 14.5s-16.5 21.167 -16.5 34.5zM608 121.003c0 15.333 7 29.6689 21 43.002l289 272l-289 273c-13.333 13.333 -20.333 27.666 -21 42.999
c0 13.333 5.5 24.833 16.5 34.5s24.167 14.5 39.5 14.5c12 0 24.667 -5.66699 38 -17l324 -311c10.667 -10.667 16 -22.834 16 -36.501s-5.33301 -26.167 -16 -37.5l-324 -311c-13.333 -10.667 -26 -16 -38 -16c-15.333 0 -28.5 4.83301 -39.5 14.5s-16.5 21.167 -16.5 34.5
z" />
    <glyph glyph-name="onequarter" unicode="&#xbc;" horiz-adv-x="1824" 
d="M164 1255c0 23.333 13.666 39.332 40.999 47.999l192 65c24.667 8 43.334 12 56.001 12c36.667 0 55 -18.333 55 -55v-731c0 -15.333 -5.16699 -28 -15.5 -38s-23 -15 -38 -15s-27.667 5 -38 15s-15.5 22.667 -15.5 38v678l-174 -58
c-18 -5.33301 -33 -3.66602 -45 5.00098s-18 20.667 -18 36zM376.999 19.999c0 9.33301 3.33301 19.668 10 31.001l868 1309c10.667 19.333 26.667 29 48 29c32.667 0 49 -15.333 49 -46c0 -9.33301 -4.33301 -20 -13 -32l-868 -1309c-12 -18 -27 -27 -45 -27
c-13.333 0 -24.833 4.16699 -34.5 12.5s-14.5 19.166 -14.5 32.499zM951.999 272.001c0 15.333 6.33398 29 19.001 41l463 500c13.333 15.333 29.666 23 48.999 23c32.667 0 49 -18 49 -54v-465h110c32.667 0 49.167 -14.333 49.5 -43s-16.167 -43 -49.5 -43h-110v-186
c0 -15.333 -5.16699 -28 -15.5 -38s-23 -15 -38 -15s-27.667 5.16699 -38 15.5s-15.5 22.833 -15.5 37.5v186h-426c-31.333 0 -47 13.667 -47 41zM1094 317.001h331v359z" />
    <glyph glyph-name="onehalf" unicode="&#xbd;" horiz-adv-x="1925" 
d="M164 1255c0 23.333 13.666 39.332 40.999 47.999l192 65c24.667 8 43.334 12 56.001 12c36.667 0 55 -18.333 55 -55v-731c0 -15.333 -5.16699 -28 -15.5 -38s-23 -15 -38 -15s-27.667 5 -38 15s-15.5 22.667 -15.5 38v678l-174 -58
c-18 -5.33301 -33 -3.66602 -45 5.00098s-18 20.667 -18 36zM376.999 19.999c0 9.33301 3.33301 19.668 10 31.001l868 1309c10.667 19.333 26.667 29 48 29c32.667 0 49 -15.333 49 -46c0 -9.33301 -4.33301 -20 -13 -32l-868 -1309c-12 -18 -27 -27 -45 -27
c-13.333 0 -24.833 4.16699 -34.5 12.5s-14.5 19.166 -14.5 32.499zM1141 51.001c0 39.333 5.83203 75.5059 17.499 108.506s23.834 59.667 36.501 80s35.167 43.166 67.5 68.499s57.333 43.166 75 53.499l92.5 54.5c8 5.33301 21.167 13.166 39.5 23.499
s31.666 17.5 39.999 21.5s20 10.833 35 20.5s25.833 17.167 32.5 22.5l26 20c10 8 17.667 15.5 23 22.5s10.833 15 16.5 24s9.5 18.167 11.5 27.5s3 19 3 29c0 79.333 -61.333 118.666 -184 117.999c-65.333 0 -131.666 -17.667 -198.999 -53c-26 -12 -46.833 -14 -62.5 -6
s-23.5 21 -23.5 39c0 20.667 11 37.667 33 51c76.667 45.333 161.334 68 254.001 68c90 0 160.5 -18.5 211.5 -55.5s76.5 -90.833 76.5 -161.5c0 -31.333 -5.66699 -60 -17 -86s-31.833 -51 -61.5 -75s-56.334 -43.5 -80.001 -58.5s-60.167 -36.167 -109.5 -63.5
c-86 -48 -146 -88.667 -180 -122s-54 -76 -60 -128h467c13.333 0 25 -4 35 -12s15 -18.833 15 -32.5s-4.83301 -25.334 -14.5 -35.001s-21.5 -14.5 -35.5 -14.5h-532c-13.333 0 -24.833 4.66699 -34.5 14s-14.5 21.666 -14.5 36.999z" />
    <glyph glyph-name="threequarters" unicode="&#xbe;" horiz-adv-x="1970" 
d="M133 668c0 20.667 9.49805 34.666 28.498 41.999s40.167 2.66602 63.5 -14.001c66.667 -48 140.334 -71.667 221.001 -71c66.667 0 119.667 15 159 45s59 69.333 59 118c0 104 -74 156 -222 156h-73c-13.333 0 -25.333 4.5 -36 13.5s-16 20.333 -16 34
s4.83301 24.5 14.5 32.5s22.167 12 37.5 12h73c54.667 0 98.167 13.333 130.5 40s48.5 59.334 48.5 98.001c0 39.333 -14.833 69.5 -44.5 90.5s-68.167 31.5 -115.5 31.5c-53.333 0 -110.666 -11.333 -171.999 -34c-22 -8 -39.833 -7.66699 -53.5 1
s-20.5 20.334 -20.5 35.001c0 22 12.333 38 37 48c64 28.667 133.667 43 209 43c80.667 0 144.5 -18.5 191.5 -55.5s70.5 -88.833 70.5 -155.5c0 -86 -45.667 -147 -137 -183c56 -9.33301 100 -32.5 132 -69.5s48 -83.5 48 -139.5c0 -74 -28.667 -134.833 -86 -182.5
s-134.333 -71.5 -231 -71.5c-112 0 -208.333 30.333 -289 91c-18 12 -27 27 -27 45zM521.998 19.999c0 9.33301 3.33203 19.668 9.99902 31.001l869 1309c10.667 19.333 26.334 29 47.001 29c32.667 0 49 -15.333 49 -46c0 -9.33301 -4 -20 -12 -32l-869 -1309
c-12 -18 -27 -27 -45 -27c-13.333 0 -24.833 4.16699 -34.5 12.5s-14.5 19.166 -14.5 32.499zM1098 272.001c0 15.333 6.00098 29 18.001 41l463 500c13.333 15.333 29.666 23 48.999 23c32.667 0 49 -18 49 -54v-465h111c32.667 0 49 -14.333 49 -43s-16.333 -43 -49 -43
h-111v-186c0 -15.333 -5 -28 -15 -38s-22.5 -15 -37.5 -15s-27.667 5.16699 -38 15.5s-15.5 22.833 -15.5 37.5v186h-426c-31.333 0 -47 13.667 -47 41zM1239 317.001h332v359z" />
    <glyph glyph-name="questiondown" unicode="&#xbf;" horiz-adv-x="987" 
d="M102 -115c0 56 13.999 106.167 41.999 150.5s79.667 96.833 155 157.5c80.667 62.667 132.167 110.334 154.5 143.001s33.5 81 33.5 145v62c0 16.667 6.16699 30.334 18.5 41.001s27.5 16 45.5 16s32.333 -5.83301 43 -17.5s16 -24.834 16 -39.501v-60
c0 -80.667 -13.333 -141.334 -40 -182.001s-80 -94 -160 -160c-75.333 -62.667 -125 -110 -149 -142s-36 -70.667 -36 -116c0 -117.333 93.667 -176 281 -176c106.667 0 212.334 31.333 317.001 94c13.333 8 27 12.167 41 12.5s26 -4.66699 36 -15s15 -22.5 15 -36.5
c0 -19.333 -15 -38.333 -45 -57c-108 -69.333 -232 -104 -372 -104c-120 0 -216 23.833 -288 71.5s-108 118.5 -108 212.5zM462.999 827.5c0 23 8.5 43 25.5 60s37.167 25.5 60.5 25.5s43.5 -8.5 60.5 -25.5s25.5 -37 25.5 -60s-8.5 -43.167 -25.5 -60.5
s-37.167 -26 -60.5 -26s-43.5 8.66699 -60.5 26s-25.5 37.5 -25.5 60.5z" />
    <glyph glyph-name="Agrave" unicode="&#xc0;" 
d="M98 39c0 8 2.66699 17.668 8 29.001l570 1271c12 27.333 31 41 57 41s45.333 -13.667 58 -41l569 -1271c5.33301 -10.667 8 -20.334 8 -29.001c0 -16.667 -5.5 -30 -16.5 -40s-25.167 -15 -42.5 -15c-26 0 -44.667 13 -56 39l-168 374h-704l-168 -374
c-10.667 -26 -29 -39 -55 -39c-18 0 -32.5 5 -43.5 15s-16.5 23.333 -16.5 40zM428 506.001h610l-305 702zM543 1671c0 12 4.66699 22.833 14 32.5s21.666 14.5 36.999 14.5c19.333 0 35.666 -8 48.999 -24l113 -127c10.667 -13.333 16 -26.333 16 -39
s-5.16699 -23.667 -15.5 -33s-22.166 -14 -35.499 -14c-15.333 0 -31.666 9.33301 -48.999 28l-113 121c-10.667 12 -16 25.667 -16 41z" />
    <glyph glyph-name="Aacute" unicode="&#xc1;" 
d="M98 39c0 8 2.66699 17.668 8 29.001l570 1271c12 27.333 31 41 57 41s45.333 -13.667 58 -41l569 -1271c5.33301 -10.667 8 -20.334 8 -29.001c0 -16.667 -5.5 -30 -16.5 -40s-25.167 -15 -42.5 -15c-26 0 -44.667 13 -56 39l-168 374h-704l-168 -374
c-10.667 -26 -29 -39 -55 -39c-18 0 -32.5 5 -43.5 15s-16.5 23.333 -16.5 40zM428 506.001h610l-305 702zM676 1527.5c0 12.333 5.33398 25.5 16.001 39.5l113 127c13.333 16.667 29.666 24.667 48.999 24c15.333 0 27.666 -4.66699 36.999 -14s14 -20.333 14 -33
c0 -15.333 -5.33301 -29 -16 -41l-113 -121c-18 -19.333 -34.333 -28.666 -49 -27.999c-13.333 0 -25.166 4.66699 -35.499 14s-15.5 20.166 -15.5 32.499z" />
    <glyph glyph-name="Acircumflex" unicode="&#xc2;" 
d="M98 39c0 8 2.66699 17.668 8 29.001l570 1271c12 27.333 31 41 57 41s45.333 -13.667 58 -41l569 -1271c5.33301 -10.667 8 -20.334 8 -29.001c0 -16.667 -5.5 -30 -16.5 -40s-25.167 -15 -42.5 -15c-26 0 -44.667 13 -56 39l-168 374h-704l-168 -374
c-10.667 -26 -29 -39 -55 -39c-18 0 -32.5 5 -43.5 15s-16.5 23.333 -16.5 40zM428 506.001h610l-305 702zM487 1522c0 13.333 6.33105 26.333 18.998 39l186 141c15.333 10.667 28.5 16 39.5 16s23.833 -5.33301 38.5 -16l186 -141c12 -12 18.333 -25 19 -39
c0 -10.667 -4.83301 -20.167 -14.5 -28.5s-20.667 -12.5 -33 -12.5s-23.166 4 -32.499 12l-164 117l-164 -117c-9.33301 -8 -20.166 -12 -32.499 -12s-23.333 4.16699 -33 12.5s-14.5 17.833 -14.5 28.5z" />
    <glyph glyph-name="Atilde" unicode="&#xc3;" 
d="M98 39c0 8 2.66699 17.668 8 29.001l570 1271c12 27.333 31 41 57 41s45.333 -13.667 58 -41l569 -1271c5.33301 -10.667 8 -20.334 8 -29.001c0 -16.667 -5.5 -30 -16.5 -40s-25.167 -15 -42.5 -15c-26 0 -44.667 13 -56 39l-168 374h-704l-168 -374
c-10.667 -26 -29 -39 -55 -39c-18 0 -32.5 5 -43.5 15s-16.5 23.333 -16.5 40zM428 506.001h610l-305 702zM453 1529.5c0 12.333 3.99902 23.5 11.999 33.5l20 26c40.667 50.667 91.334 76 152.001 76c35.333 0 70 -9.66699 104 -29c8 -4 19 -10 33 -18l31 -17.5
c6.66699 -3.66699 14.5 -7.16699 23.5 -10.5s16.833 -5 23.5 -5c19.333 0 43.333 14.333 72 43l20 21c12 12 25 18 39 18c12 0 22.833 -3.66699 32.5 -11s14.5 -17.333 14.5 -30c0 -13.333 -4 -25 -12 -35l-25 -30c-42 -48 -88.333 -72 -139 -72
c-30 0 -70.333 14.333 -121 43c-45.333 24.667 -77.333 37 -96 37c-28.667 0 -54 -13 -76 -39l-22 -25c-12 -12 -25 -18 -39 -18c-12 0 -22.833 4 -32.5 12s-14.5 18.167 -14.5 30.5z" />
    <glyph glyph-name="Adieresis" unicode="&#xc4;" 
d="M98 39c0 8 2.66699 17.668 8 29.001l570 1271c12 27.333 31 41 57 41s45.333 -13.667 58 -41l569 -1271c5.33301 -10.667 8 -20.334 8 -29.001c0 -16.667 -5.5 -30 -16.5 -40s-25.167 -15 -42.5 -15c-26 0 -44.667 13 -56 39l-168 374h-704l-168 -374
c-10.667 -26 -29 -39 -55 -39c-18 0 -32.5 5 -43.5 15s-16.5 23.333 -16.5 40zM428 506.001h610l-305 702zM451 1607.5c0 23 8.16699 42.5 24.5 58.5s35.333 24 57 24s40.667 -8 57 -24s24.5 -35.5 24.5 -58.5s-8.16699 -42.333 -24.5 -58s-35.333 -23.5 -57 -23.5
s-40.667 7.83301 -57 23.5s-24.5 35 -24.5 58zM852 1607.5c0 23 8.16699 42.5 24.5 58.5s35.5 24 57.5 24s41.167 -8 57.5 -24s24.5 -35.5 24.5 -58.5s-8.16699 -42.333 -24.5 -58s-35.5 -23.5 -57.5 -23.5s-41.167 7.83301 -57.5 23.5s-24.5 35 -24.5 58z" />
    <glyph glyph-name="Aring" unicode="&#xc5;" 
d="M98 39c0 8 2.66699 17.668 8 29.001l566 1263c-57.333 24.667 -86 69 -86 133c0 40.667 14 75.167 42 103.5s63.167 42.5 105.5 42.5s77.5 -14 105.5 -42s42 -62.667 42 -104c0 -64 -28.667 -108.333 -86 -133l565 -1263c5.33301 -10.667 8 -20.334 8 -29.001
c0 -16.667 -5.5 -30 -16.5 -40s-25.167 -15 -42.5 -15c-26 0 -44.667 13 -56 39l-168 374h-704l-168 -374c-10.667 -26 -29 -39 -55 -39c-18 0 -32.5 5 -43.5 15s-16.5 23.333 -16.5 40zM428 506.001h610l-305 702zM655 1464.5c0 -23 7.16699 -42.833 21.5 -59.5
s33.166 -25 56.499 -25s42.166 8.33301 56.499 25s21.5 36.5 21.5 59.5s-7.16699 42.667 -21.5 59s-33.166 24.5 -56.499 24.5s-42.166 -8.16699 -56.499 -24.5s-21.5 -36 -21.5 -59z" />
    <glyph glyph-name="AE" unicode="&#xc6;" horiz-adv-x="1925" 
d="M98 39c0 8 2.66602 17.667 7.99902 29l570 1255c12 27.333 32.333 41 61 41h1039c15.333 0 28.333 -5.5 39 -16.5s16 -24 16 -39s-5.5 -28 -16.5 -39s-23.833 -16.5 -38.5 -16.5h-955l223 -493h426c15.333 0 28.5 -5.5 39.5 -16.5s16.5 -24 16.5 -39s-5.5 -28 -16.5 -39
s-24.167 -16.5 -39.5 -16.5h-374l243 -538h439c15.333 0 28.333 -5.5 39 -16.5s16 -24 16 -39s-5.5 -28 -16.5 -39s-23.833 -16.5 -38.5 -16.5h-475c-27.333 0 -46.666 13 -57.999 39l-160 358h-704l-168 -374c-10.667 -26 -29 -39 -55 -39c-18 0 -32.5 5 -43.5 15
s-16.5 23.333 -16.5 40zM427.999 506h610l-305 692z" />
    <glyph glyph-name="Ccedilla" unicode="&#xc7;" horiz-adv-x="1443" 
d="M119 682c0 199.333 63.167 366.999 189.5 502.999s290.5 204 492.5 204c218.667 0 393.334 -86.333 524.001 -259c10.667 -16.667 16 -30 16 -40c0 -16.667 -5.33301 -30.167 -16 -40.5s-24.334 -15.5 -41.001 -15.5c-18 0 -32.333 7.66699 -43 23
c-56 70.667 -118.167 124.834 -186.5 162.501s-152.833 56.5 -253.5 56.5c-170.667 0 -306.5 -58 -407.5 -174s-151.5 -256 -151.5 -420s50.5 -304 151.5 -420s236.833 -174 407.5 -174c101.333 0 186 18.833 254 56.5s130 91.834 186 162.501c10.667 15.333 25 23 43 23
c16.667 0 30.334 -5.16699 41.001 -15.5s16 -23.833 16 -40.5c0 -10.667 -5.33301 -24.334 -16 -41.001c-122.667 -161.333 -285.667 -246.666 -489 -255.999l-43 -104c22 10.667 47 16 75 16c48 0 86 -12.167 114 -36.5s42 -57.833 42 -100.5
c0 -45.333 -17.333 -81.833 -52 -109.5s-85 -41.5 -151 -41.5c-53.333 0 -101 8.66699 -143 26c-19.333 8 -29 20.333 -29 37c0 13.333 5.5 24.166 16.5 32.499s24.167 9.83301 39.5 4.5c40.667 -15.333 78.667 -23 114 -23c74 0 111 24 111 72c0 42 -30 63.333 -90 64
c-16.667 0 -35.834 -2.5 -57.501 -7.5s-38 -7.5 -49 -7.5s-20.333 3.5 -28 10.5s-11.5 15.167 -11.5 24.5c0 8 2.66699 18.333 8 31l48 112c-188.667 12 -341 85 -457 219s-174 296 -174 486z" />
    <glyph glyph-name="Egrave" unicode="&#xc8;" horiz-adv-x="1193" 
d="M195 61v1242c0 18 5.66699 32.667 17 44s26 17 44 17h788c15.333 0 28.5 -5.5 39.5 -16.5s16.5 -24 16.5 -39s-5.5 -28 -16.5 -39s-24.167 -16.5 -39.5 -16.5h-727v-493h422c15.333 0 28.5 -5.5 39.5 -16.5s16.5 -24 16.5 -39s-5.5 -28 -16.5 -39
s-24.167 -16.5 -39.5 -16.5h-422v-538h730c15.333 0 28.333 -5.5 39 -16.5s16 -24 16 -39s-5.5 -28 -16.5 -39s-23.833 -16.5 -38.5 -16.5h-791c-18 0 -32.667 5.66699 -44 17s-17 26 -17 44zM489 1671c0 12 4.83301 22.833 14.5 32.5s22.167 14.5 37.5 14.5
c19.333 0 35.666 -8 48.999 -24l112 -127c10.667 -13.333 16.167 -26.333 16.5 -39s-4.66699 -23.667 -15 -33s-22.166 -14 -35.499 -14c-15.333 0 -32 9.33301 -50 28l-112 121c-11.333 12 -17 25.667 -17 41z" />
    <glyph glyph-name="Eacute" unicode="&#xc9;" horiz-adv-x="1193" 
d="M195 61v1242c0 18 5.66699 32.667 17 44s26 17 44 17h788c15.333 0 28.5 -5.5 39.5 -16.5s16.5 -24 16.5 -39s-5.5 -28 -16.5 -39s-24.167 -16.5 -39.5 -16.5h-727v-493h422c15.333 0 28.5 -5.5 39.5 -16.5s16.5 -24 16.5 -39s-5.5 -28 -16.5 -39
s-24.167 -16.5 -39.5 -16.5h-422v-538h730c15.333 0 28.333 -5.5 39 -16.5s16 -24 16 -39s-5.5 -28 -16.5 -39s-23.833 -16.5 -38.5 -16.5h-791c-18 0 -32.667 5.66699 -44 17s-17 26 -17 44zM569 1527.5c0 12.333 5.66797 25.5 17.001 39.5l112 127
c13.333 16.667 30 24.667 50 24c15.333 0 27.666 -4.66699 36.999 -14s14 -20.333 14 -33c0 -15.333 -5.66699 -29 -17 -41l-112 -121c-18 -19.333 -34.333 -28.666 -49 -27.999c-13.333 0 -25.333 4.66699 -36 14s-16 20.166 -16 32.499z" />
    <glyph glyph-name="Ecircumflex" unicode="&#xca;" horiz-adv-x="1193" 
d="M195 61v1242c0 18 5.66699 32.667 17 44s26 17 44 17h788c15.333 0 28.5 -5.5 39.5 -16.5s16.5 -24 16.5 -39s-5.5 -28 -16.5 -39s-24.167 -16.5 -39.5 -16.5h-727v-493h422c15.333 0 28.5 -5.5 39.5 -16.5s16.5 -24 16.5 -39s-5.5 -28 -16.5 -39
s-24.167 -16.5 -39.5 -16.5h-422v-538h730c15.333 0 28.333 -5.5 39 -16.5s16 -24 16 -39s-5.5 -28 -16.5 -39s-23.833 -16.5 -38.5 -16.5h-791c-18 0 -32.667 5.66699 -44 17s-17 26 -17 44zM408 1522c0 13.333 6.00098 26.333 18.001 39l186 141
c15.333 10.667 28.5 16 39.5 16s23.833 -5.33301 38.5 -16l187 -141c12 -12 18 -25 18 -39c0 -10.667 -4.83301 -20.167 -14.5 -28.5s-20.5 -12.5 -32.5 -12.5c-10.667 0 -21.667 4 -33 12l-164 117l-164 -117c-10.667 -8 -21.334 -12 -32.001 -12
c-12 0 -22.833 4.16699 -32.5 12.5s-14.5 17.833 -14.5 28.5z" />
    <glyph glyph-name="Edieresis" unicode="&#xcb;" horiz-adv-x="1193" 
d="M195 61v1242c0 18 5.66699 32.667 17 44s26 17 44 17h788c15.333 0 28.5 -5.5 39.5 -16.5s16.5 -24 16.5 -39s-5.5 -28 -16.5 -39s-24.167 -16.5 -39.5 -16.5h-727v-493h422c15.333 0 28.5 -5.5 39.5 -16.5s16.5 -24 16.5 -39s-5.5 -28 -16.5 -39
s-24.167 -16.5 -39.5 -16.5h-422v-538h730c15.333 0 28.333 -5.5 39 -16.5s16 -24 16 -39s-5.5 -28 -16.5 -39s-23.833 -16.5 -38.5 -16.5h-791c-18 0 -32.667 5.66699 -44 17s-17 26 -17 44zM373 1607.5c0 23 8.16699 42.5 24.5 58.5s35.333 24 57 24s40.834 -8 57.501 -24
s25 -35.5 25 -58.5s-8.33301 -42.333 -25 -58s-35.834 -23.5 -57.501 -23.5s-40.667 7.83301 -57 23.5s-24.5 35 -24.5 58zM774 1607.5c0 23 8.16699 42.5 24.5 58.5s35.5 24 57.5 24s41.167 -8 57.5 -24s24.5 -35.5 24.5 -58.5s-8.16699 -42.333 -24.5 -58
s-35.5 -23.5 -57.5 -23.5s-41.167 7.83301 -57.5 23.5s-24.5 35 -24.5 58z" />
    <glyph glyph-name="Igrave" unicode="&#xcc;" horiz-adv-x="532" 
d="M98 1671c0 12 4.83301 22.833 14.5 32.5s22.167 14.5 37.5 14.5c19.333 0 35.666 -8 48.999 -24l112 -127c10.667 -13.333 16.167 -26.333 16.5 -39s-4.66699 -23.667 -15 -33s-22.5 -14 -36.5 -14c-15.333 0 -31.666 9.33301 -48.999 28l-112 121
c-11.333 12 -17 25.667 -17 41zM205 45v1274c0 18 5.83301 32.667 17.5 44s26.334 17 44.001 17s32.334 -5.66699 44.001 -17s17.5 -26 17.5 -44v-1274c0 -18 -5.83301 -32.667 -17.5 -44s-26.334 -17 -44.001 -17s-32.334 5.66699 -44.001 17s-17.5 26 -17.5 44z" />
    <glyph glyph-name="Iacute" unicode="&#xcd;" horiz-adv-x="532" 
d="M203 1527.5c0 12.333 5.33398 25.5 16.001 39.5l113 127c13.333 16.667 29.666 24.667 48.999 24c15.333 0 27.666 -4.66699 36.999 -14s14 -20.333 14 -33c0 -15.333 -5.33301 -29 -16 -41l-113 -121c-18 -19.333 -34.333 -28.666 -49 -27.999
c-13.333 0 -25.166 4.66699 -35.499 14s-15.5 20.166 -15.5 32.499zM205.001 45v1274c0 18 5.83301 32.667 17.5 44s26.334 17 44.001 17s32.334 -5.66699 44.001 -17s17.5 -26 17.5 -44v-1274c0 -18 -5.83301 -32.667 -17.5 -44s-26.334 -17 -44.001 -17
s-32.334 5.66699 -44.001 17s-17.5 26 -17.5 44z" />
    <glyph glyph-name="Icircumflex" unicode="&#xce;" horiz-adv-x="532" 
d="M23 1522c0 13.333 6.00098 26.333 18.001 39l186 141c15.333 10.667 28.5 16 39.5 16s23.833 -5.33301 38.5 -16l187 -141c12 -12 18 -25 18 -39c0 -10.667 -4.83301 -20.167 -14.5 -28.5s-20.5 -12.5 -32.5 -12.5c-10.667 0 -21.667 4 -33 12l-164 117l-164 -117
c-10.667 -8 -21.334 -12 -32.001 -12c-12 0 -22.833 4.16699 -32.5 12.5s-14.5 17.833 -14.5 28.5zM205.001 45v1274c0 18 5.83301 32.667 17.5 44s26.334 17 44.001 17s32.334 -5.66699 44.001 -17s17.5 -26 17.5 -44v-1274c0 -18 -5.83301 -32.667 -17.5 -44
s-26.334 -17 -44.001 -17s-32.334 5.66699 -44.001 17s-17.5 26 -17.5 44z" />
    <glyph glyph-name="Idieresis" unicode="&#xcf;" horiz-adv-x="532" 
d="M-16 1607.5c0 23 8.16699 42.5 24.5 58.5s35.333 24 57 24s40.667 -8 57 -24s24.5 -35.5 24.5 -58.5s-8.16699 -42.333 -24.5 -58s-35.333 -23.5 -57 -23.5s-40.667 7.83301 -57 23.5s-24.5 35 -24.5 58zM205 45v1274c0 18 5.83301 32.667 17.5 44s26.334 17 44.001 17
s32.334 -5.66699 44.001 -17s17.5 -26 17.5 -44v-1274c0 -18 -5.83301 -32.667 -17.5 -44s-26.334 -17 -44.001 -17s-32.334 5.66699 -44.001 17s-17.5 26 -17.5 44zM385 1607.5c0 23 8.16699 42.5 24.5 58.5s35.5 24 57.5 24s41.167 -8 57.5 -24s24.5 -35.5 24.5 -58.5
s-8.16699 -42.333 -24.5 -58s-35.5 -23.5 -57.5 -23.5s-41.167 7.83301 -57.5 23.5s-24.5 35 -24.5 58z" />
    <glyph glyph-name="Eth" unicode="&#xd0;" horiz-adv-x="1529" 
d="M78 682c0 15.333 5.83105 28 17.498 38s24.834 15 39.501 15h158v568c0 18 5.83301 32.667 17.5 44s26.167 17 43.5 17h389c203.333 0 367.5 -65.167 492.5 -195.5s187.5 -292.5 187.5 -486.5s-62.333 -356.167 -187 -486.5s-289 -195.5 -493 -195.5h-389
c-18 0 -32.667 6.16699 -44 18.5s-17 26.5 -17 42.5v568h-158c-15.333 0 -28.666 5 -39.999 15s-17 22.667 -17 38zM415.998 111h319c173.333 0 310.833 53.833 412.5 161.5s152.5 244.167 152.5 409.5s-50.833 301.833 -152.5 409.5s-239.167 161.5 -412.5 161.5h-319v-518
h327c15.333 0 28.833 -5 40.5 -15s17.5 -22.667 17.5 -38s-5.83301 -28 -17.5 -38s-25.167 -15 -40.5 -15h-327v-518z" />
    <glyph glyph-name="Ntilde" unicode="&#xd1;" horiz-adv-x="1480" 
d="M195 41v1280c0 18 5.66699 32.333 17 43s26 16 44 16c19.333 0 35 -8.66699 47 -26l866 -1147v1114c0 18 5.5 32.333 16.5 43s25.5 16 43.5 16c16.667 0 30.334 -5.66699 41.001 -17s16 -25.333 16 -42v-1280c0 -16.667 -5.16699 -30.334 -15.5 -41.001
s-24.833 -16 -43.5 -16c-18 0 -33.667 8.66699 -47 26l-869 1145v-1114c0 -15.333 -5.33301 -28.666 -16 -39.999s-24.334 -17 -41.001 -17s-30.667 5.33301 -42 16s-17 24.334 -17 41.001zM457 1529.5c0 12.333 3.99902 23.5 11.999 33.5l20 26
c40.667 50.667 91.334 76 152.001 76c35.333 0 70 -9.66699 104 -29c8 -4 19 -10 33 -18l31 -17.5c6.66699 -3.66699 14.5 -7.16699 23.5 -10.5s16.833 -5 23.5 -5c19.333 0 43.333 14.333 72 43l20 21c12 12 25 18 39 18c12 0 22.833 -3.66699 32.5 -11
s14.5 -17.333 14.5 -30c0 -13.333 -4 -25 -12 -35l-25 -30c-42 -48 -88.333 -72 -139 -72c-30 0 -70.333 14.333 -121 43c-45.333 24.667 -77.333 37 -96 37c-28.667 0 -54 -13 -76 -39l-22 -25c-12 -12 -25 -18 -39 -18c-12 0 -22.833 4 -32.5 12s-14.5 18.167 -14.5 30.5z
" />
    <glyph glyph-name="Ograve" unicode="&#xd2;" horiz-adv-x="1609" 
d="M119 682c0 195.333 64.5 362 193.5 500s293.833 207 494.5 207s364.834 -69 492.501 -207s191.5 -304.667 191.5 -500s-63.833 -362 -191.5 -500s-291.834 -207 -492.501 -207s-365.5 69 -494.5 207s-193.5 304.667 -193.5 500zM242 682
c0 -164 51.833 -304.667 155.5 -422s240.167 -176 409.5 -176s305.166 58.667 407.499 176s153.5 258 153.5 422s-51.167 304.667 -153.5 422s-238.166 176 -407.499 176s-305.833 -58.667 -409.5 -176s-155.5 -258 -155.5 -422zM637 1671c0 12 4.83203 22.833 14.499 32.5
s21.834 14.5 36.501 14.5c19.333 0 35.666 -8 48.999 -24l113 -127c10.667 -13.333 16 -26.333 16 -39s-5 -23.667 -15 -33s-22 -14 -36 -14c-15.333 0 -31.666 9.33301 -48.999 28l-113 121c-10.667 12 -16 25.667 -16 41z" />
    <glyph glyph-name="Oacute" unicode="&#xd3;" horiz-adv-x="1585" 
d="M106 682c0 195.333 64.667 362 194 500s294.333 207 495 207s364.834 -69 492.501 -207s191.5 -304.667 191.5 -500s-63.833 -362 -191.5 -500s-291.834 -207 -492.501 -207s-365.667 69 -495 207s-194 304.667 -194 500zM229 682c0 -164 52 -304.667 156 -422
s240.667 -176 410 -176s305.166 58.667 407.499 176s153.5 258 153.5 422s-51.167 304.667 -153.5 422s-238.166 176 -407.499 176s-306 -58.667 -410 -176s-156 -258 -156 -422zM729 1527.5c0 12.333 5.33398 25.5 16.001 39.5l113 127
c13.333 16.667 29.666 24.667 48.999 24c15.333 0 27.666 -4.66699 36.999 -14s14 -20.333 14 -33c0 -15.333 -5.33301 -29 -16 -41l-113 -121c-18 -19.333 -34.333 -28.666 -49 -27.999c-13.333 0 -25.166 4.66699 -35.499 14s-15.5 20.166 -15.5 32.499z" />
    <glyph glyph-name="Ocircumflex" unicode="&#xd4;" horiz-adv-x="1585" 
d="M106 682c0 195.333 64.667 362 194 500s294.333 207 495 207s364.834 -69 492.501 -207s191.5 -304.667 191.5 -500s-63.833 -362 -191.5 -500s-291.834 -207 -492.501 -207s-365.667 69 -495 207s-194 304.667 -194 500zM229 682c0 -164 52 -304.667 156 -422
s240.667 -176 410 -176s305.166 58.667 407.499 176s153.5 258 153.5 422s-51.167 304.667 -153.5 422s-238.166 176 -407.499 176s-306 -58.667 -410 -176s-156 -258 -156 -422zM551 1522c0 13.333 6 26.333 18 39l187 141c15.333 10.667 28.333 16 39 16
s23.667 -5.33301 39 -16l186 -141c12 -12 18 -25 18 -39c0 -10.667 -4.66699 -20.167 -14 -28.5s-20.333 -12.5 -33 -12.5c-10.667 0 -21.667 4 -33 12l-163 117l-164 -117c-10.667 -8 -21.667 -12 -33 -12c-12 0 -22.833 4.16699 -32.5 12.5s-14.5 17.833 -14.5 28.5z" />
    <glyph glyph-name="Otilde" unicode="&#xd5;" horiz-adv-x="1585" 
d="M106 682c0 195.333 64.667 362 194 500s294.333 207 495 207s364.834 -69 492.501 -207s191.5 -304.667 191.5 -500s-63.833 -362 -191.5 -500s-291.834 -207 -492.501 -207s-365.667 69 -495 207s-194 304.667 -194 500zM229 682c0 -164 52 -304.667 156 -422
s240.667 -176 410 -176s305.166 58.667 407.499 176s153.5 258 153.5 422s-51.167 304.667 -153.5 422s-238.166 176 -407.499 176s-306 -58.667 -410 -176s-156 -258 -156 -422zM510 1529.5c0 12.333 3.99902 23.499 11.999 33.499c8 10.667 15 19.334 21 26.001
c40.667 50.667 91 76 151 76c35.333 0 70.333 -9.66699 105 -29c8 -4 18.833 -10 32.5 -18l30.5 -17.5c6.66699 -3.66699 14.5 -7.16699 23.5 -10.5s16.833 -5 23.5 -5c19.333 0 43.333 14.333 72 43l20 21c12 12 25 18 39 18c12 0 22.833 -3.66699 32.5 -11
s14.5 -17.333 14.5 -30c0 -13.333 -4 -25 -12 -35l-24 -30c-42 -48 -88.667 -72 -140 -72c-30 0 -70 14.333 -120 43c-45.333 24.667 -77.666 37 -96.999 37c-28.667 0 -54 -13 -76 -39l-22 -25c-12 -12 -25 -18 -39 -18c-12 0 -22.833 4 -32.5 12s-14.5 18.167 -14.5 30.5z
" />
    <glyph glyph-name="Odieresis" unicode="&#xd6;" horiz-adv-x="1585" 
d="M106 682c0 195.333 64.667 362 194 500s294.333 207 495 207s364.834 -69 492.501 -207s191.5 -304.667 191.5 -500s-63.833 -362 -191.5 -500s-291.834 -207 -492.501 -207s-365.667 69 -495 207s-194 304.667 -194 500zM229 682c0 -164 52 -304.667 156 -422
s240.667 -176 410 -176s305.166 58.667 407.499 176s153.5 258 153.5 422s-51.167 304.667 -153.5 422s-238.166 176 -407.499 176s-306 -58.667 -410 -176s-156 -258 -156 -422zM512 1607.5c0 23 8.16699 42.5 24.5 58.5s35.5 24 57.5 24s41.167 -8 57.5 -24
s24.5 -35.5 24.5 -58.5s-8.16699 -42.333 -24.5 -58s-35.5 -23.5 -57.5 -23.5s-41.167 7.83301 -57.5 23.5s-24.5 35 -24.5 58zM913 1607.5c0 23 8.33301 42.5 25 58.5s35.834 24 57.501 24s40.667 -8 57 -24s24.5 -35.5 24.5 -58.5s-8.16699 -42.333 -24.5 -58
s-35.333 -23.5 -57 -23.5s-40.834 7.83301 -57.501 23.5s-25 35 -25 58z" />
    <glyph glyph-name="multiply" unicode="&#xd7;" horiz-adv-x="1034" 
d="M174 379c0 16.667 5.33301 30.334 16 41.001l242 242l-242 241c-10.667 13.333 -16 27.666 -16 42.999c0 16.667 5.83301 30.5 17.5 41.5s25.667 16.5 42 16.5s29.833 -5.66699 40.5 -17l242 -242l242 242c10.667 10.667 25 16.334 43 17.001
c16.667 0 30.334 -5.5 41.001 -16.5s16 -24.833 16 -41.5c0 -18 -5.33301 -32.333 -16 -43l-242 -241l240 -240c13.333 -13.333 20 -27.666 20 -42.999c0 -16.667 -6.16699 -30.834 -18.5 -42.501s-26 -17.5 -41 -17.5s-29.167 5.66699 -42.5 17l-242 242l-242 -242
c-10.667 -10.667 -24.334 -16.334 -41.001 -17.001c-18 0 -32.333 5.5 -43 16.5s-16 25.5 -16 43.5z" />
    <glyph glyph-name="Oslash" unicode="&#xd8;" horiz-adv-x="1585" 
d="M106 -84c0 9.33301 5.00098 20.333 15.001 33l188 223c-135.333 138 -203 308 -203 510c0 195.333 64.667 362 194 500s294.333 207 495 207c158.667 0 297 -46.667 415 -140l189 226c10.667 10.667 22.334 16 35.001 16c30 0 45 -15 45 -45
c0 -9.33301 -3.66699 -19 -11 -29l-190 -227c134 -136.667 201 -306 201 -508c0 -195.333 -63.833 -362 -191.5 -500s-291.834 -207 -492.501 -207c-161.333 0 -301.333 46.667 -420 140l-185 -221c-10.667 -13.333 -23.334 -20.333 -38.001 -21c-10.667 0 -21 4.5 -31 13.5
s-15 18.833 -15 29.5zM229.001 682c0 -168 51.333 -308.667 154 -422l756 903c-95.333 78 -210 117 -344 117c-169.333 0 -306 -58.667 -410 -176s-156 -258 -156 -422zM446.001 201c96.667 -78 213.001 -117 349.001 -117c169.333 0 305.166 58.667 407.499 176
s153.5 258 153.5 422c0 166.667 -50.667 306.667 -152 420z" />
    <glyph glyph-name="Ugrave" unicode="&#xd9;" horiz-adv-x="1523" 
d="M186 537l-0.00292969 782c0 18 5.83301 32.667 17.5 44s26.334 17 44.001 17s32.334 -5.66699 44.001 -17s17.5 -26 17.5 -44v-791c0 -139.333 37.167 -248.166 111.5 -326.499s188 -117.5 341 -117.5s266.667 39.167 341 117.5s111.5 187.166 111.5 326.499v791
c0 18 5.83301 32.667 17.5 44s26.5 17 44.5 17s32.667 -5.66699 44 -17s17 -26 17 -44v-782c0 -172 -51.5 -308.667 -154.5 -410s-243.167 -152 -420.5 -152s-317.666 50.667 -420.999 152s-155 238 -155 410zM607.997 1671c0 12 4.83105 22.833 14.498 32.5
s21.834 14.5 36.501 14.5c19.333 0 36 -8 50 -24l112 -127c10.667 -13.333 16.167 -26.333 16.5 -39s-4.66699 -23.667 -15 -33s-22.5 -14 -36.5 -14c-15.333 0 -31.666 9.33301 -48.999 28l-112 121c-11.333 12 -17 25.667 -17 41z" />
    <glyph glyph-name="Uacute" unicode="&#xda;" horiz-adv-x="1523" 
d="M186 537l-0.00292969 782c0 18 5.83301 32.667 17.5 44s26.334 17 44.001 17s32.334 -5.66699 44.001 -17s17.5 -26 17.5 -44v-791c0 -139.333 37.167 -248.166 111.5 -326.499s188 -117.5 341 -117.5s266.667 39.167 341 117.5s111.5 187.166 111.5 326.499v791
c0 18 5.83301 32.667 17.5 44s26.5 17 44.5 17s32.667 -5.66699 44 -17s17 -26 17 -44v-782c0 -172 -51.5 -308.667 -154.5 -410s-243.167 -152 -420.5 -152s-317.666 50.667 -420.999 152s-155 238 -155 410zM679.997 1527.5c0 12.333 5.33398 25.5 16.001 39.5l113 127
c13.333 16.667 29.666 24.667 48.999 24c15.333 0 27.666 -4.66699 36.999 -14s14 -20.333 14 -33c0 -15.333 -5.33301 -29 -16 -41l-113 -121c-18 -19.333 -34.333 -28.666 -49 -27.999c-13.333 0 -25.166 4.66699 -35.499 14s-15.5 20.166 -15.5 32.499z" />
    <glyph glyph-name="Ucircumflex" unicode="&#xdb;" horiz-adv-x="1523" 
d="M186 537l-0.00292969 782c0 18 5.83301 32.667 17.5 44s26.334 17 44.001 17s32.334 -5.66699 44.001 -17s17.5 -26 17.5 -44v-791c0 -139.333 37.167 -248.166 111.5 -326.499s188 -117.5 341 -117.5s266.667 39.167 341 117.5s111.5 187.166 111.5 326.499v791
c0 18 5.83301 32.667 17.5 44s26.5 17 44.5 17s32.667 -5.66699 44 -17s17 -26 17 -44v-782c0 -172 -51.5 -308.667 -154.5 -410s-243.167 -152 -420.5 -152s-317.666 50.667 -420.999 152s-155 238 -155 410zM515.997 1522c0 13.333 6.33105 26.333 18.998 39l186 141
c15.333 10.667 28.333 16 39 16s23.667 -5.33301 39 -16l186 -141c12 -12 18.333 -25 19 -39c0 -10.667 -4.83301 -20.167 -14.5 -28.5s-20.667 -12.5 -33 -12.5s-23.166 4 -32.499 12l-164 117l-164 -117c-9.33301 -8 -20.166 -12 -32.499 -12s-23.333 4.16699 -33 12.5
s-14.5 17.833 -14.5 28.5z" />
    <glyph glyph-name="Udieresis" unicode="&#xdc;" horiz-adv-x="1523" 
d="M186 537l-0.00292969 782c0 18 5.83301 32.667 17.5 44s26.334 17 44.001 17s32.334 -5.66699 44.001 -17s17.5 -26 17.5 -44v-791c0 -139.333 37.167 -248.166 111.5 -326.499s188 -117.5 341 -117.5s266.667 39.167 341 117.5s111.5 187.166 111.5 326.499v791
c0 18 5.83301 32.667 17.5 44s26.5 17 44.5 17s32.667 -5.66699 44 -17s17 -26 17 -44v-782c0 -172 -51.5 -308.667 -154.5 -410s-243.167 -152 -420.5 -152s-317.666 50.667 -420.999 152s-155 238 -155 410zM476.997 1607.5c0 23 7.83301 42.5 23.5 58.5
s35.167 24 58.5 24s42.833 -8 58.5 -24s23.5 -35.5 23.5 -58.5s-7.83301 -42.333 -23.5 -58s-35.167 -23.5 -58.5 -23.5s-42.833 7.83301 -58.5 23.5s-23.5 35 -23.5 58zM878.997 1607.5c0 23 7.83301 42.5 23.5 58.5s35 24 58 24s42.333 -8 58 -24s23.5 -35.5 23.5 -58.5
s-7.83301 -42.333 -23.5 -58s-35 -23.5 -58 -23.5s-42.333 7.83301 -58 23.5s-23.5 35 -23.5 58z" />
    <glyph glyph-name="Yacute" unicode="&#xdd;" horiz-adv-x="1130" 
d="M10 1325c0 16.667 5.16895 30.001 15.502 40.001s23.833 15 40.5 15c22 0 39.667 -9.33301 53 -28l446 -639l447 639c13.333 19.333 31 28.666 53 27.999c16.667 0 30 -5 40 -15s15 -23.333 15 -40c0 -10.667 -4 -22.334 -12 -35.001l-481 -692v-553
c0 -18 -5.83301 -32.667 -17.5 -44s-26.334 -17 -44.001 -17s-32.334 5.66699 -44.001 17s-17.5 26 -17.5 44v553l-481 692c-8.66699 12.667 -13 24.334 -13 35.001zM510.002 1527.5c0 12.333 5.33398 25.5 16.001 39.5l113 127c13.333 16.667 29.666 24.667 48.999 24
c15.333 0 27.666 -4.66699 36.999 -14s14 -20.333 14 -33c0 -15.333 -5.33301 -29 -16 -41l-113 -121c-18 -19.333 -34.333 -28.666 -49 -27.999c-13.333 0 -25.166 4.66699 -35.499 14s-15.5 20.166 -15.5 32.499z" />
    <glyph glyph-name="Thorn" unicode="&#xde;" horiz-adv-x="1294" 
d="M195 45l0.00195312 1274c0 18 5.66699 32.667 17 44s26 17 44 17s32.667 -5.66699 44 -17s17 -26 17 -44v-248h486c131.333 0 234.166 -35.833 308.499 -107.5s111.5 -163.5 111.5 -275.5s-37.333 -203.833 -112 -275.5s-177.334 -107.5 -308.001 -107.5h-486v-260
c0 -18 -5.66699 -32.667 -17 -44s-26 -17 -44 -17s-32.667 5.66699 -44 17s-17 26 -17 44zM317.002 416l510 0.000976562c83.333 0 149.666 25.5 198.999 76.5s74 116.167 74 195.5s-24.667 144.666 -74 195.999s-115.666 77 -198.999 77h-510v-545z" />
    <glyph glyph-name="germandbls" unicode="&#xdf;" horiz-adv-x="1282" 
d="M174 45v943.997c0 126.667 33.5 225 100.5 295s166.5 105 298.5 105c116 0 209.667 -27.667 281 -83s107 -129.666 107 -222.999c0 -31.333 -5.83301 -61.333 -17.5 -90s-24 -52.5 -37 -71.5s-33.833 -45.5 -62.5 -79.5c-9.33301 -12 -22.666 -28 -39.999 -48
s-29 -34.167 -35 -42.5l-22.5 -32c-9 -13 -14.833 -24.833 -17.5 -35.5s-4 -22.334 -4 -35.001c0 -34 12.667 -61.5 38 -82.5s77.666 -46.833 156.999 -77.5c90 -34 157.5 -71.5 202.5 -112.5s67.5 -94.833 67.5 -161.5c0 -70.667 -29.333 -128.334 -88 -173.001
s-140 -67 -244 -67c-113.333 0 -211.666 31 -294.999 93c-19.333 15.333 -28.833 30.333 -28.5 45s4.83301 26.5 13.5 35.5s20.667 13.5 36 13.5c12 0 27 -6.33301 45 -19c76.667 -49.333 154.334 -73.666 233.001 -72.999c66.667 0 118.167 12.5 154.5 37.5
s54.5 58.167 54.5 99.5c0 46.667 -16 82.834 -48 108.501s-85.667 52.834 -161 81.501c-94 36.667 -160.833 72.834 -200.5 108.501s-59.5 82.167 -59.5 139.5c0 27.333 5.5 53.666 16.5 78.999s22.667 46.5 35 63.5s34.166 43.167 65.499 78.5c4 5.33301 12.833 16 26.5 32
l27.5 32c4.66699 5.33301 11.834 14.5 21.501 27.5s16.5 23.167 20.5 30.5s8.5 16.833 13.5 28.5s8.5 22.667 10.5 33s3 21.5 3 33.5c0 66.667 -26 116.834 -78 150.501s-115.667 50.5 -191 50.5c-184 0 -276 -97 -276 -291v-948c0 -16.667 -5.83301 -31 -17.5 -43
s-26.334 -18 -44.001 -18s-32.334 6 -44.001 18s-17.5 26.333 -17.5 43z" />
    <glyph glyph-name="agrave" unicode="&#xe0;" horiz-adv-x="1056" 
d="M117 244c0 82 34.499 147.834 103.499 197.501s160.167 74.5 273.5 74.5c62.667 0 119.5 -10.833 170.5 -32.5s89.5 -47.5 115.5 -77.5v120c0 96.667 -24.167 168 -72.5 214s-123.166 69 -224.499 69c-82 0 -166 -17.667 -252 -53c-12 -4 -21.333 -6 -28 -6
c-35.333 0 -53 17 -53 51c0 20.667 10 35.667 30 45c87.333 45.333 192 67.666 314 66.999c130 0 230.667 -33.333 302 -100s107 -161.667 107 -285v-483c0 -18 -5.5 -32.667 -16.5 -44s-26 -17 -45 -17s-34 5.66699 -45 17s-16.5 26 -16.5 44v45
c-68 -76.667 -169.667 -115 -305 -115c-108 0 -194.667 25.333 -260 76s-98 115 -98 193zM239.999 244.001c0 -54.667 23.167 -97.998 69.5 -129.998s107.833 -48 184.5 -48c78 0 145.167 16.667 201.5 50s84.5 76 84.5 128c0 53.333 -28 96.666 -84 129.999
s-120.667 50 -194 50c-79.333 0 -142.833 -16.333 -190.5 -49s-71.5 -76.334 -71.5 -131.001zM331.999 1315c0 13.333 5 24.5 15 33.5s22 13.5 36 13.5c19.333 0 33.666 -7.66699 42.999 -23l147 -209c8 -12 12.333 -22.667 13 -32c0 -13.333 -4.83301 -24.833 -14.5 -34.5
s-21.167 -14.5 -34.5 -14.5c-19.333 0 -36.666 10.667 -51.999 32l-141 199c-8 11.333 -12 23 -12 35z" />
    <glyph glyph-name="aacute" unicode="&#xe1;" horiz-adv-x="1056" 
d="M117 244c0 82 34.499 147.834 103.499 197.501s160.167 74.5 273.5 74.5c62.667 0 119.5 -10.833 170.5 -32.5s89.5 -47.5 115.5 -77.5v120c0 96.667 -24.167 168 -72.5 214s-123.166 69 -224.499 69c-82 0 -166 -17.667 -252 -53c-12 -4 -21.333 -6 -28 -6
c-35.333 0 -53 17 -53 51c0 20.667 10 35.667 30 45c87.333 45.333 192 67.666 314 66.999c130 0 230.667 -33.333 302 -100s107 -161.667 107 -285v-483c0 -18 -5.5 -32.667 -16.5 -44s-26 -17 -45 -17s-34 5.66699 -45 17s-16.5 26 -16.5 44v45
c-68 -76.667 -169.667 -115 -305 -115c-108 0 -194.667 25.333 -260 76s-98 115 -98 193zM239.999 244.001c0 -54.667 23.167 -97.998 69.5 -129.998s107.833 -48 184.5 -48c78 0 145.167 16.667 201.5 50s84.5 76 84.5 128c0 53.333 -28 96.666 -84 129.999
s-120.667 50 -194 50c-79.333 0 -142.833 -16.333 -190.5 -49s-71.5 -76.334 -71.5 -131.001zM441.999 1098c0 9.33301 4.33496 20 13.002 32l147 209c9.33301 15.333 23.666 23 42.999 23c13.333 0 25.166 -4.16699 35.499 -12.5s15.5 -19.833 15.5 -34.5
c0 -12 -4 -23.667 -12 -35l-141 -199c-16.667 -22 -33.667 -32.667 -51 -32c-13.333 0 -25 4.83301 -35 14.5s-15 21.167 -15 34.5z" />
    <glyph glyph-name="acircumflex" unicode="&#xe2;" horiz-adv-x="1056" 
d="M117 244c0 82 34.499 147.834 103.499 197.501s160.167 74.5 273.5 74.5c62.667 0 119.5 -10.833 170.5 -32.5s89.5 -47.5 115.5 -77.5v120c0 96.667 -24.167 168 -72.5 214s-123.166 69 -224.499 69c-82 0 -166 -17.667 -252 -53c-12 -4 -21.333 -6 -28 -6
c-35.333 0 -53 17 -53 51c0 20.667 10 35.667 30 45c87.333 45.333 192 67.666 314 66.999c130 0 230.667 -33.333 302 -100s107 -161.667 107 -285v-483c0 -18 -5.5 -32.667 -16.5 -44s-26 -17 -45 -17s-34 5.66699 -45 17s-16.5 26 -16.5 44v45
c-68 -76.667 -169.667 -115 -305 -115c-108 0 -194.667 25.333 -260 76s-98 115 -98 193zM239.999 244.001c0 -54.667 23.167 -97.998 69.5 -129.998s107.833 -48 184.5 -48c78 0 145.167 16.667 201.5 50s84.5 76 84.5 128c0 53.333 -28 96.666 -84 129.999
s-120.667 50 -194 50c-79.333 0 -142.833 -16.333 -190.5 -49s-71.5 -76.334 -71.5 -131.001zM267.999 1087c0 13.333 6.33301 26.333 19 39l194 181c10.667 10.667 23.667 16 39 16s28.333 -5.33301 39 -16l195 -181c12 -12 18 -25 18 -39
c0 -10.667 -4.83301 -20 -14.5 -28s-20.5 -12 -32.5 -12c-10.667 0 -21.667 4 -33 12l-172 151l-172 -151c-10.667 -8 -21.667 -12 -33 -12c-12 0 -22.833 4 -32.5 12s-14.5 17.333 -14.5 28z" />
    <glyph glyph-name="atilde" unicode="&#xe3;" horiz-adv-x="1056" 
d="M117 244c0 82 34.499 147.834 103.499 197.501s160.167 74.5 273.5 74.5c62.667 0 119.5 -10.833 170.5 -32.5s89.5 -47.5 115.5 -77.5v120c0 96.667 -24.167 168 -72.5 214s-123.166 69 -224.499 69c-82 0 -166 -17.667 -252 -53c-12 -4 -21.333 -6 -28 -6
c-35.333 0 -53 17 -53 51c0 20.667 10 35.667 30 45c87.333 45.333 192 67.666 314 66.999c130 0 230.667 -33.333 302 -100s107 -161.667 107 -285v-483c0 -18 -5.5 -32.667 -16.5 -44s-26 -17 -45 -17s-34 5.66699 -45 17s-16.5 26 -16.5 44v45
c-68 -76.667 -169.667 -115 -305 -115c-108 0 -194.667 25.333 -260 76s-98 115 -98 193zM228.999 1103.5c0 12.333 4.33203 23.5 12.999 33.5l20 26c40.667 50.667 91.334 76 152.001 76c35.333 0 70 -9.66699 104 -29c8 -4 18.833 -10 32.5 -18s24 -13.833 31 -17.5
s14.833 -7.16699 23.5 -10.5s16.667 -5 24 -5c19.333 0 43 14.333 71 43l21 21c12 12 25 18 39 18c12 0 22.833 -3.66699 32.5 -11s14.5 -17.333 14.5 -30c0 -13.333 -4 -25 -12 -35l-25 -30c-44 -48 -90.333 -72 -139 -72c-30 0 -70.333 14.333 -121 43
c-45.333 24.667 -77.333 37 -96 37c-28.667 0 -54 -13 -76 -39l-23 -25c-12 -12 -25 -18 -39 -18c-12 0 -22.833 4 -32.5 12s-14.5 18.167 -14.5 30.5zM239.998 244.001c0 -54.667 23.167 -97.998 69.5 -129.998s107.833 -48 184.5 -48c78 0 145.167 16.667 201.5 50
s84.5 76 84.5 128c0 53.333 -28 96.666 -84 129.999s-120.667 50 -194 50c-79.333 0 -142.833 -16.333 -190.5 -49s-71.5 -76.334 -71.5 -131.001z" />
    <glyph glyph-name="adieresis" unicode="&#xe4;" horiz-adv-x="1056" 
d="M117 244c0 82 34.499 147.834 103.499 197.501s160.167 74.5 273.5 74.5c62.667 0 119.5 -10.833 170.5 -32.5s89.5 -47.5 115.5 -77.5v120c0 96.667 -24.167 168 -72.5 214s-123.166 69 -224.499 69c-82 0 -166 -17.667 -252 -53c-12 -4 -21.333 -6 -28 -6
c-35.333 0 -53 17 -53 51c0 20.667 10 35.667 30 45c87.333 45.333 192 67.666 314 66.999c130 0 230.667 -33.333 302 -100s107 -161.667 107 -285v-483c0 -18 -5.5 -32.667 -16.5 -44s-26 -17 -45 -17s-34 5.66699 -45 17s-16.5 26 -16.5 44v45
c-68 -76.667 -169.667 -115 -305 -115c-108 0 -194.667 25.333 -260 76s-98 115 -98 193zM239.999 244.001c0 -54.667 23.167 -97.998 69.5 -129.998s107.833 -48 184.5 -48c78 0 145.167 16.667 201.5 50s84.5 76 84.5 128c0 53.333 -28 96.666 -84 129.999
s-120.667 50 -194 50c-79.333 0 -142.833 -16.333 -190.5 -49s-71.5 -76.334 -71.5 -131.001zM275.999 1157c0 23.333 8 42.833 24 58.5s35.5 23.5 58.5 23.5s42.333 -7.83301 58 -23.5s23.5 -35.167 23.5 -58.5s-7.83301 -42.833 -23.5 -58.5s-35 -23.5 -58 -23.5
s-42.5 7.83301 -58.5 23.5s-24 35.167 -24 58.5zM615.999 1157c0 23.333 8 42.833 24 58.5s35.5 23.5 58.5 23.5s42.333 -7.83301 58 -23.5s23.5 -35.167 23.5 -58.5s-7.83301 -42.833 -23.5 -58.5s-35 -23.5 -58 -23.5s-42.5 7.83301 -58.5 23.5s-24 35.167 -24 58.5z" />
    <glyph glyph-name="aring" unicode="&#xe5;" horiz-adv-x="1056" 
d="M117 244c0 82 34.499 147.834 103.499 197.501s160.167 74.5 273.5 74.5c62.667 0 119.5 -10.833 170.5 -32.5s89.5 -47.5 115.5 -77.5v120c0 96.667 -24.167 168 -72.5 214s-123.166 69 -224.499 69c-82 0 -166 -17.667 -252 -53c-12 -4 -21.333 -6 -28 -6
c-35.333 0 -53 17 -53 51c0 20.667 10 35.667 30 45c87.333 45.333 192 67.666 314 66.999c130 0 230.667 -33.333 302 -100s107 -161.667 107 -285v-483c0 -18 -5.5 -32.667 -16.5 -44s-26 -17 -45 -17s-34 5.66699 -45 17s-16.5 26 -16.5 44v45
c-68 -76.667 -169.667 -115 -305 -115c-108 0 -194.667 25.333 -260 76s-98 115 -98 193zM239.999 244.001c0 -54.667 23.167 -97.998 69.5 -129.998s107.833 -48 184.5 -48c78 0 145.167 16.667 201.5 50s84.5 76 84.5 128c0 53.333 -28 96.666 -84 129.999
s-120.667 50 -194 50c-79.333 0 -142.833 -16.333 -190.5 -49s-71.5 -76.334 -71.5 -131.001zM370.999 1167.5c0 41 14 75.5 42 103.5s63.167 42 105.5 42s77.5 -14 105.5 -42s42 -62.5 42 -103.5s-14 -75.5 -42 -103.5s-63.167 -42 -105.5 -42s-77.5 14 -105.5 42
s-42 62.5 -42 103.5zM439.999 1167.5c0 -23 7.16699 -42.833 21.5 -59.5s33.166 -25 56.499 -25s42.166 8.33301 56.499 25s21.5 36.5 21.5 59.5s-7.16699 42.667 -21.5 59s-33.166 24.5 -56.499 24.5s-42.166 -8.16699 -56.499 -24.5s-21.5 -36 -21.5 -59z" />
    <glyph glyph-name="ae" unicode="&#xe6;" horiz-adv-x="1775" 
d="M117 244c0 82 34.5 147.835 103.5 197.502s160.167 74.5 273.5 74.5c62.667 0 119.5 -10.833 170.5 -32.5s89.5 -47.5 115.5 -77.5v120c0 96.667 -24.167 168 -72.5 214s-123.166 69 -224.499 69c-82 0 -166 -17.667 -252 -53c-12 -4 -21.333 -6 -28 -6
c-35.333 0 -53 17 -53 51c0 20.667 10 35.667 30 45c87.333 45.333 192 67.666 314 66.999c190 0 310 -73 360 -219c83.333 146 211 219 383 219c125.333 0 228.333 -43.333 309 -130s121 -196 121 -328c0 -13.333 -5.16699 -25.333 -15.5 -36s-22.166 -16 -35.499 -16h-711
c0 -90 29.667 -166.667 89 -230s144.333 -95 255 -95c112 0 205 43.667 279 131c15.333 18 31 27 47 27c15.333 0 27.666 -5.16699 36.999 -15.5s14 -22.5 14 -36.5c0 -12 -4 -24.333 -12 -37c-36.667 -50.667 -87.167 -92 -151.5 -124s-135.5 -48 -213.5 -48
c-88.667 0 -166 17.833 -232 53.5s-115 79.5 -147 131.5c-80.667 -122.667 -210.334 -184.334 -389.001 -185.001c-112 0 -200.667 25 -266 75s-98 114.667 -98 194zM240 244.002c0 -56 22.5 -99.665 67.5 -130.998s107.167 -47 186.5 -47c78 0 145.167 16.667 201.5 50
s84.5 76 84.5 128c0 53.333 -28 96.666 -84 129.999s-120.667 50 -194 50c-79.333 0 -142.833 -16.333 -190.5 -49s-71.5 -76.334 -71.5 -131.001zM909 506.004h645.002c-8 87.333 -41.333 160 -100 218s-131 87 -217 87c-88.667 0 -163.834 -29 -225.501 -87
s-95.834 -130.667 -102.501 -218z" />
    <glyph glyph-name="ccedilla" unicode="&#xe7;" horiz-adv-x="1038" 
d="M109 444c0 134 44.668 245.668 134.001 335.001s201 134 335 134c79.333 0 151 -16.333 215 -49s112.333 -73.667 145 -123c8 -12 12 -24 12 -36c0 -15.333 -5.83301 -27.833 -17.5 -37.5s-25.5 -14.5 -41.5 -14.5c-15.333 0 -29.666 8.33301 -42.999 25
c-72.667 86 -162.667 129 -270 129c-100 0 -182.833 -35.167 -248.5 -105.5s-98.5 -156 -98.5 -257s32.833 -186.667 98.5 -257s148.5 -105.5 248.5 -105.5c108 0 198 43 270 129c13.333 16.667 27.666 25 42.999 25c16.667 0 30.667 -4.83301 42 -14.5s17 -22.167 17 -37.5
c0 -12 -4 -24.333 -12 -37c-31.333 -46.667 -76.333 -85.5 -135 -116.5s-125 -48.833 -199 -53.5l-43 -104c22 10.667 47.333 16 76 16c48 0 86 -12.167 114 -36.5s42 -57.833 42 -100.5c0 -45.333 -17.5 -81.833 -52.5 -109.5s-85.167 -41.5 -150.5 -41.5
c-53.333 0 -101.333 8.66699 -144 26c-19.333 8 -28.666 20.333 -27.999 37c0 13.333 5.5 24.166 16.5 32.499s23.833 9.83301 38.5 4.5c40.667 -15.333 79 -23 115 -23c74 0 110.667 24 110 72c0 42 -30 63.333 -90 64c-16.667 0 -35.834 -2.5 -57.501 -7.5
s-37.834 -7.5 -48.501 -7.5c-12 0 -21.5 3.5 -28.5 10.5s-10.5 15.167 -10.5 24.5c0 8 2.66699 18.333 8 31l49 115c-120 12 -218.5 61.333 -295.5 148s-115.5 192 -115.5 316z" />
    <glyph glyph-name="egrave" unicode="&#xe8;" horiz-adv-x="1101" 
d="M106 444c0 128.667 43.168 239 129.501 331s195.5 138 327.5 138c125.333 0 228.333 -43.333 309 -130s121 -196 121 -328c0 -13.333 -5 -25.333 -15 -36s-22 -16 -36 -16h-711c2.66699 -87.333 35.167 -163 97.5 -227s144.5 -96 246.5 -96c113.333 0 206.333 43 279 129
c15.333 18 31 27 47 27c15.333 0 27.666 -5.16699 36.999 -15.5s14 -22.5 14 -36.5c0 -12 -4 -24.333 -12 -37c-36.667 -50.667 -87.167 -92 -151.5 -124s-135.5 -48 -213.5 -48c-142 0 -255.667 45.667 -341 137s-128 202 -128 332zM236.001 506h645.001
c-8 87.333 -41.5 160 -100.5 218s-131.5 87 -217.5 87c-88.667 0 -163.334 -29.333 -224.001 -88s-95 -131 -103 -217zM383.002 1315c0 13.333 5.16895 24.5 15.502 33.5s22.166 13.5 35.499 13.5c19.333 0 33.666 -7.66699 42.999 -23l148 -209c8 -12 12 -22.667 12 -32
c0 -13.333 -4.83301 -24.833 -14.5 -34.5s-21.167 -14.5 -34.5 -14.5c-19.333 0 -36.333 10.667 -51 32l-142 199c-8 11.333 -12 23 -12 35z" />
    <glyph glyph-name="eacute" unicode="&#xe9;" horiz-adv-x="1101" 
d="M106 444c0 128.667 43.168 239 129.501 331s195.5 138 327.5 138c125.333 0 228.333 -43.333 309 -130s121 -196 121 -328c0 -13.333 -5 -25.333 -15 -36s-22 -16 -36 -16h-711c2.66699 -87.333 35.167 -163 97.5 -227s144.5 -96 246.5 -96c113.333 0 206.333 43 279 129
c15.333 18 31 27 47 27c15.333 0 27.666 -5.16699 36.999 -15.5s14 -22.5 14 -36.5c0 -12 -4 -24.333 -12 -37c-36.667 -50.667 -87.167 -92 -151.5 -124s-135.5 -48 -213.5 -48c-142 0 -255.667 45.667 -341 137s-128 202 -128 332zM236.001 506h645.001
c-8 87.333 -41.5 160 -100.5 218s-131.5 87 -217.5 87c-88.667 0 -163.334 -29.333 -224.001 -88s-95 -131 -103 -217zM467.002 1098c0 9.33301 4.00195 20 12.002 32l148 209c9.33301 15.333 23.666 23 42.999 23c13.333 0 25.166 -4.16699 35.499 -12.5
s15.5 -19.833 15.5 -34.5c0 -12 -4 -23.667 -12 -35l-142 -199c-16.667 -22 -33.667 -32.667 -51 -32c-13.333 0 -24.833 4.83301 -34.5 14.5s-14.5 21.167 -14.5 34.5z" />
    <glyph glyph-name="ecircumflex" unicode="&#xea;" horiz-adv-x="1101" 
d="M106 444c0 128.667 43.168 239 129.501 331s195.5 138 327.5 138c125.333 0 228.333 -43.333 309 -130s121 -196 121 -328c0 -13.333 -5 -25.333 -15 -36s-22 -16 -36 -16h-711c2.66699 -87.333 35.167 -163 97.5 -227s144.5 -96 246.5 -96c113.333 0 206.333 43 279 129
c15.333 18 31 27 47 27c15.333 0 27.666 -5.16699 36.999 -15.5s14 -22.5 14 -36.5c0 -12 -4 -24.333 -12 -37c-36.667 -50.667 -87.167 -92 -151.5 -124s-135.5 -48 -213.5 -48c-142 0 -255.667 45.667 -341 137s-128 202 -128 332zM236.001 506h645.001
c-8 87.333 -41.5 160 -100.5 218s-131.5 87 -217.5 87c-88.667 0 -163.334 -29.333 -224.001 -88s-95 -131 -103 -217zM330.002 1087c0 13.333 6.00195 26.333 18.002 39l195 181c10.667 10.667 23.5 16 38.5 16s28.167 -5.33301 39.5 -16l194 -181
c12 -12 18.333 -25 19 -39c0 -10.667 -4.83301 -20 -14.5 -28s-20.834 -12 -33.501 -12c-10.667 0 -21.334 4 -32.001 12l-172 151l-172 -151c-10.667 -8 -21.667 -12 -33 -12c-12 0 -22.833 4 -32.5 12s-14.5 17.333 -14.5 28z" />
    <glyph glyph-name="edieresis" unicode="&#xeb;" horiz-adv-x="1101" 
d="M106 444c0 128.667 43.168 239 129.501 331s195.5 138 327.5 138c125.333 0 228.333 -43.333 309 -130s121 -196 121 -328c0 -13.333 -5 -25.333 -15 -36s-22 -16 -36 -16h-711c2.66699 -87.333 35.167 -163 97.5 -227s144.5 -96 246.5 -96c113.333 0 206.333 43 279 129
c15.333 18 31 27 47 27c15.333 0 27.666 -5.16699 36.999 -15.5s14 -22.5 14 -36.5c0 -12 -4 -24.333 -12 -37c-36.667 -50.667 -87.167 -92 -151.5 -124s-135.5 -48 -213.5 -48c-142 0 -255.667 45.667 -341 137s-128 202 -128 332zM236.001 506h645.001
c-8 87.333 -41.5 160 -100.5 218s-131.5 87 -217.5 87c-88.667 0 -163.334 -29.333 -224.001 -88s-95 -131 -103 -217zM324.002 1157c0 23.333 8.16699 42.833 24.5 58.5s35.333 23.5 57 23.5s40.667 -7.83301 57 -23.5s24.5 -35.167 24.5 -58.5
s-8.16699 -42.833 -24.5 -58.5s-35.333 -23.5 -57 -23.5s-40.667 7.83301 -57 23.5s-24.5 35.167 -24.5 58.5zM664.002 1157c0 23.333 8.16699 42.833 24.5 58.5s35.333 23.5 57 23.5s40.667 -7.83301 57 -23.5s24.5 -35.167 24.5 -58.5s-8.16699 -42.833 -24.5 -58.5
s-35.333 -23.5 -57 -23.5s-40.667 7.83301 -57 23.5s-24.5 35.167 -24.5 58.5z" />
    <glyph glyph-name="igrave" unicode="&#xec;" horiz-adv-x="450" 
d="M25 1315c0 13.333 5.00098 24.5 15.001 33.5s22 13.5 36 13.5c19.333 0 33.666 -7.66699 42.999 -23l147 -209c8 -12 12.333 -22.667 13 -32c0 -13.333 -4.83301 -24.833 -14.5 -34.5s-21.5 -14.5 -35.5 -14.5c-19.333 0 -36.333 10.667 -51 32l-141 199
c-8 11.333 -12 23 -12 35zM164.001 45v799c0 18 5.83301 32.667 17.5 44s26.334 17 44.001 17s32.334 -5.83301 44.001 -17.5s17.5 -26.167 17.5 -43.5v-799c0 -18 -5.83301 -32.667 -17.5 -44s-26.334 -17 -44.001 -17s-32.334 5.66699 -44.001 17s-17.5 26 -17.5 44z" />
    <glyph glyph-name="iacute" unicode="&#xed;" horiz-adv-x="450" 
d="M164 45v799c0 18 5.83301 32.667 17.5 44s26.334 17 44.001 17s32.334 -5.83301 44.001 -17.5s17.5 -26.167 17.5 -43.5v-799c0 -18 -5.83301 -32.667 -17.5 -44s-26.334 -17 -44.001 -17s-32.334 5.66699 -44.001 17s-17.5 26 -17.5 44zM166 1098
c0 9.33301 4.00195 20 12.002 32l148 209c9.33301 15.333 23.666 23 42.999 23c13.333 0 25.166 -4.16699 35.499 -12.5s15.5 -19.833 15.5 -34.5c0 -12 -4 -23.667 -12 -35l-142 -199c-16.667 -22 -33.667 -32.667 -51 -32c-13.333 0 -24.833 4.83301 -34.5 14.5
s-14.5 21.167 -14.5 34.5z" />
    <glyph glyph-name="icircumflex" unicode="&#xee;" horiz-adv-x="450" 
d="M-27 1087c0 13.333 6.33301 26.333 19 39l194 181c10.667 10.667 23.667 16 39 16s28.333 -5.33301 39 -16l195 -181c12 -12 18 -25 18 -39c0 -10.667 -4.66699 -20 -14 -28s-20.333 -12 -33 -12c-10.667 0 -21.667 4 -33 12l-172 151l-172 -151
c-10.667 -8 -21.667 -12 -33 -12c-12 0 -22.833 4 -32.5 12s-14.5 17.333 -14.5 28zM164 45v799c0 18 5.83301 32.667 17.5 44s26.334 17 44.001 17s32.334 -5.83301 44.001 -17.5s17.5 -26.167 17.5 -43.5v-799c0 -18 -5.83301 -32.667 -17.5 -44s-26.334 -17 -44.001 -17
s-32.334 5.66699 -44.001 17s-17.5 26 -17.5 44z" />
    <glyph glyph-name="idieresis" unicode="&#xef;" horiz-adv-x="450" 
d="M-37 1157c0 23.333 8.16699 42.833 24.5 58.5s35.5 23.5 57.5 23.5s41.167 -7.83301 57.5 -23.5s24.5 -35.167 24.5 -58.5s-8.16699 -42.833 -24.5 -58.5s-35.5 -23.5 -57.5 -23.5s-41.167 7.83301 -57.5 23.5s-24.5 35.167 -24.5 58.5zM164 45v799
c0 18 5.83301 32.667 17.5 44s26.334 17 44.001 17s32.334 -5.83301 44.001 -17.5s17.5 -26.167 17.5 -43.5v-799c0 -18 -5.83301 -32.667 -17.5 -44s-26.334 -17 -44.001 -17s-32.334 5.66699 -44.001 17s-17.5 26 -17.5 44zM303 1157c0 23.333 8.16699 42.833 24.5 58.5
s35.5 23.5 57.5 23.5s41.167 -7.83301 57.5 -23.5s24.5 -35.167 24.5 -58.5s-8.16699 -42.833 -24.5 -58.5s-35.5 -23.5 -57.5 -23.5s-41.167 7.83301 -57.5 23.5s-24.5 35.167 -24.5 58.5z" />
    <glyph glyph-name="eth" unicode="&#xf0;" horiz-adv-x="1114" 
d="M113 412c0 126.667 40.498 229.665 121.498 308.998s184.5 119 310.5 119c70.667 0 137.834 -17.5 201.501 -52.5s113.834 -81.167 150.501 -138.5c-35.333 169.333 -117.333 313.333 -246 432l-125 -104c-9.33301 -8 -20.833 -12 -34.5 -12s-25.334 4.33301 -35.001 13
s-14.5 19.334 -14.5 32.001c0 15.333 7.66699 29 23 41l115 94c-60 50.667 -142.667 103.334 -248 158.001c-18 8 -27 22.333 -27 43c0 12 4.5 22.167 13.5 30.5s20.167 12.5 33.5 12.5c8 0 16.333 -2.33301 25 -7c102.667 -45.333 195.334 -104 278.001 -176l103 86
c12 9.33301 23.5 14.166 34.5 14.499s21.667 -4.66699 32 -15s15.5 -20.833 15.5 -31.5c0 -15.333 -7 -28.333 -21 -39l-92 -78c187.333 -172 281 -399.333 281 -682c0 -134 -40 -248.5 -120 -343.5s-191 -142.5 -333 -142.5c-75.333 0 -142.333 13.333 -201 40
s-105 61.834 -139 105.501s-59.5 90.5 -76.5 140.5s-25.5 100.333 -25.5 151zM230.998 411.998c0 -96.667 30.168 -177.499 90.501 -242.499s138.166 -97.5 233.499 -97.5c101.333 0 182 33.333 242 100s90 146 90 238c0 101.333 -32.5 182.166 -97.5 242.499
s-141.167 90.5 -228.5 90.5c-104 0 -185 -29.833 -243 -89.5s-87 -140.167 -87 -241.5z" />
    <glyph glyph-name="ntilde" unicode="&#xf1;" horiz-adv-x="1157" 
d="M164 45v798.999c0 18 5.83301 32.667 17.5 44s26.334 17 44.001 17s32.334 -5.83301 44.001 -17.5s17.5 -26.167 17.5 -43.5v-107c68 117.333 179.333 176 334 176c117.333 0 210.5 -38.167 279.5 -114.5s103.5 -175.166 103.5 -296.499v-457
c0 -18 -5.83301 -32.667 -17.5 -44s-26.5 -17 -44.5 -17s-32.667 5.66699 -44 17s-17 26 -17 44v455c0 94 -24.667 167.667 -74 221s-120.333 80 -213 80c-88.667 0 -162 -30 -220 -90s-87 -139.333 -87 -238v-428c0 -18 -5.83301 -32.667 -17.5 -44
s-26.334 -17 -44.001 -17s-32.334 5.66699 -44.001 17s-17.5 26 -17.5 44zM291 1103.5c0 12.333 4 23.499 12 33.499c8 10.667 15 19.334 21 26.001c40.667 50.667 91 76 151 76c35.333 0 70.333 -9.66699 105 -29c8 -4 18.833 -10 32.5 -18l30.5 -17.5
c6.66699 -3.66699 14.5 -7.16699 23.5 -10.5s16.833 -5 23.5 -5c19.333 0 43.333 14.333 72 43l20 21c12 12 25 18 39 18c12 0 22.833 -3.66699 32.5 -11s14.5 -17.333 14.5 -30c0 -13.333 -4 -25 -12 -35l-25 -30c-44 -48 -90.333 -72 -139 -72
c-30 0 -70.333 14.333 -121 43c-45.333 24.667 -77.333 37 -96 37c-28.667 0 -54 -13 -76 -39l-22 -25c-12 -12 -25 -18 -39 -18c-12 0 -22.833 4 -32.5 12s-14.5 18.167 -14.5 30.5z" />
    <glyph glyph-name="ograve" unicode="&#xf2;" horiz-adv-x="1146" 
d="M106 444.5c0 132.333 44.167 243.5 132.5 333.5s200 135 335 135s246.5 -45 334.5 -135s132 -201.167 132 -333.5s-44 -243.666 -132 -333.999s-199.5 -135.5 -334.5 -135.5s-246.667 45.167 -335 135.5s-132.5 201.666 -132.5 333.999zM229 444.5
c0 -103.667 33.167 -190 99.5 -259s148 -103.5 245 -103.5s178.667 34.5 245 103.5s99.5 155.333 99.5 259s-33.167 190 -99.5 259s-148 103.5 -245 103.5s-178.667 -34.5 -245 -103.5s-99.5 -155.333 -99.5 -259zM358 1315c0 13.333 5.16797 24.5 15.501 33.5
s22.5 13.5 36.5 13.5c19.333 0 33.666 -7.66699 42.999 -23l147 -209c8 -12 12 -22.667 12 -32c0 -13.333 -4.66699 -24.833 -14 -34.5s-21 -14.5 -35 -14.5c-19.333 0 -36.333 10.667 -51 32l-141 199c-8.66699 11.333 -13 23 -13 35z" />
    <glyph glyph-name="oacute" unicode="&#xf3;" horiz-adv-x="1146" 
d="M106 444.5c0 132.333 44.167 243.5 132.5 333.5s200 135 335 135s246.5 -45 334.5 -135s132 -201.167 132 -333.5s-44 -243.666 -132 -333.999s-199.5 -135.5 -334.5 -135.5s-246.667 45.167 -335 135.5s-132.5 201.666 -132.5 333.999zM229 444.5
c0 -103.667 33.167 -190 99.5 -259s148 -103.5 245 -103.5s178.667 34.5 245 103.5s99.5 155.333 99.5 259s-33.167 190 -99.5 259s-148 103.5 -245 103.5s-178.667 -34.5 -245 -103.5s-99.5 -155.333 -99.5 -259zM483 1098c0 9.33301 4.33496 20 13.002 32l147 209
c9.33301 15.333 23.666 23 42.999 23c13.333 0 25.166 -4.16699 35.499 -12.5s15.5 -19.833 15.5 -34.5c0 -12 -4 -23.667 -12 -35l-141 -199c-16.667 -22 -34 -32.667 -52 -32c-13.333 0 -24.833 4.83301 -34.5 14.5s-14.5 21.167 -14.5 34.5z" />
    <glyph glyph-name="ocircumflex" unicode="&#xf4;" horiz-adv-x="1146" 
d="M106 444.5c0 132.333 44.167 243.5 132.5 333.5s200 135 335 135s246.5 -45 334.5 -135s132 -201.167 132 -333.5s-44 -243.666 -132 -333.999s-199.5 -135.5 -334.5 -135.5s-246.667 45.167 -335 135.5s-132.5 201.666 -132.5 333.999zM229 444.5
c0 -103.667 33.167 -190 99.5 -259s148 -103.5 245 -103.5s178.667 34.5 245 103.5s99.5 155.333 99.5 259s-33.167 190 -99.5 259s-148 103.5 -245 103.5s-178.667 -34.5 -245 -103.5s-99.5 -155.333 -99.5 -259zM322 1087c0 13.333 6.00098 26.333 18.001 39l195 181
c10.667 10.667 23.5 16 38.5 16s27.833 -5.33301 38.5 -16l195 -181c12 -12 18 -25 18 -39c0 -10.667 -4.66699 -20 -14 -28s-20.333 -12 -33 -12c-10.667 0 -21.667 4 -33 12l-172 151l-172 -151c-10.667 -8 -21.334 -12 -32.001 -12c-12 0 -22.833 4 -32.5 12
s-14.5 17.333 -14.5 28z" />
    <glyph glyph-name="otilde" unicode="&#xf5;" horiz-adv-x="1146" 
d="M106 444.5c0 132.333 44.167 243.5 132.5 333.5s200 135 335 135s246.5 -45 334.5 -135s132 -201.167 132 -333.5s-44 -243.666 -132 -333.999s-199.5 -135.5 -334.5 -135.5s-246.667 45.167 -335 135.5s-132.5 201.666 -132.5 333.999zM229 444.5
c0 -103.667 33.167 -190 99.5 -259s148 -103.5 245 -103.5s178.667 34.5 245 103.5s99.5 155.333 99.5 259s-33.167 190 -99.5 259s-148 103.5 -245 103.5s-178.667 -34.5 -245 -103.5s-99.5 -155.333 -99.5 -259zM303 1103.5c0 12.333 3.99805 23.499 11.998 33.499
c8 10.667 15 19.334 21 26.001c40.667 50.667 91 76 151 76c35.333 0 70.333 -9.66699 105 -29c8 -4 18.833 -10 32.5 -18s24 -13.833 31 -17.5s14.833 -7.16699 23.5 -10.5s16.334 -5 23.001 -5c19.333 0 43.333 14.333 72 43l21 21c12 12 25 18 39 18
c12 0 22.833 -3.66699 32.5 -11s14.5 -17.333 14.5 -30c0 -13.333 -4.33301 -25 -13 -35l-24 -30c-44 -48 -90.333 -72 -139 -72c-30 0 -70.333 14.333 -121 43c-45.333 24.667 -77.666 37 -96.999 37c-28.667 0 -53.667 -13 -75 -39l-23 -25c-12 -12 -25 -18 -39 -18
c-12 0 -22.833 4 -32.5 12s-14.5 18.167 -14.5 30.5z" />
    <glyph glyph-name="odieresis" unicode="&#xf6;" horiz-adv-x="1146" 
d="M106 444.5c0 132.333 44.167 243.5 132.5 333.5s200 135 335 135s246.5 -45 334.5 -135s132 -201.167 132 -333.5s-44 -243.666 -132 -333.999s-199.5 -135.5 -334.5 -135.5s-246.667 45.167 -335 135.5s-132.5 201.666 -132.5 333.999zM229 444.5
c0 -103.667 33.167 -190 99.5 -259s148 -103.5 245 -103.5s178.667 34.5 245 103.5s99.5 155.333 99.5 259s-33.167 190 -99.5 259s-148 103.5 -245 103.5s-178.667 -34.5 -245 -103.5s-99.5 -155.333 -99.5 -259zM311 1157c0 23.333 8.16699 42.833 24.5 58.5
s35.5 23.5 57.5 23.5s41.167 -7.83301 57.5 -23.5s24.5 -35.167 24.5 -58.5s-8.16699 -42.833 -24.5 -58.5s-35.5 -23.5 -57.5 -23.5s-41.167 7.83301 -57.5 23.5s-24.5 35.167 -24.5 58.5zM651 1157c0 23.333 8.16699 42.833 24.5 58.5s35.5 23.5 57.5 23.5
s41.167 -7.83301 57.5 -23.5s24.5 -35.167 24.5 -58.5s-8.16699 -42.833 -24.5 -58.5s-35.5 -23.5 -57.5 -23.5s-41.167 7.83301 -57.5 23.5s-24.5 35.167 -24.5 58.5z" />
    <glyph glyph-name="divide" unicode="&#xf7;" horiz-adv-x="1167" 
d="M133 661.5c0 16.333 5.83301 29.666 17.5 39.999s25.834 15.5 42.501 15.5h782c16.667 0 30.667 -5.16699 42 -15.5s17 -23.666 17 -39.999s-5.83301 -29.666 -17.5 -39.999s-25.5 -15.5 -41.5 -15.5h-782c-16.667 0 -30.834 5.16699 -42.501 15.5
s-17.5 23.666 -17.5 39.999zM498 301c0 23.333 8.5 43.5 25.5 60.5s37 25.5 60 25.5s43.167 -8.5 60.5 -25.5s26 -37.167 26 -60.5s-8.66699 -43.5 -26 -60.5s-37.5 -25.5 -60.5 -25.5s-43 8.5 -60 25.5s-25.5 37.167 -25.5 60.5zM498 1022c0 23.333 8.5 43.5 25.5 60.5
s37 25.5 60 25.5s43.167 -8.5 60.5 -25.5s26 -37.167 26 -60.5s-8.66699 -43.5 -26 -60.5s-37.5 -25.5 -60.5 -25.5s-43 8.5 -60 25.5s-25.5 37.167 -25.5 60.5z" />
    <glyph glyph-name="oslash" unicode="&#xf8;" horiz-adv-x="1146" 
d="M106 -90c0 9.33301 4.33203 19.667 12.999 31l129 161c-94 87.333 -141.333 201.333 -142 342c0 132.667 44.167 244 132.5 334s199.833 135 334.5 135c95.333 0 183 -25 263 -75l129 161c8 10.667 18.667 16.334 32 17.001c26 0 40.333 -12.333 43 -37
c0 -10.667 -3.33301 -20.334 -10 -29.001l-131 -164c94 -91.333 141 -205.333 141 -342c0 -132.667 -44 -244 -132 -334s-199.667 -135 -335 -135c-101.333 0 -188.666 25.333 -261.999 76l-127 -157c-12 -13.333 -23.333 -20.333 -34 -21c-9.33301 0 -19 3.5 -29 10.5
s-15 15.833 -15 26.5zM228.999 444.001c0 -98 30.001 -181.667 90.001 -251l445 557c-54.667 38 -118.334 57 -191.001 57c-96.667 0 -178.167 -34.5 -244.5 -103.5s-99.5 -155.5 -99.5 -259.5zM381 139.001c57.333 -38 121.332 -57 191.999 -57
c96.667 0 178.334 34.5 245.001 103.5s100 155.167 100 258.5c0 98 -31 181.333 -93 250z" />
    <glyph glyph-name="ugrave" unicode="&#xf9;" horiz-adv-x="1157" 
d="M154 387v457c0 18 5.66699 32.667 17 44s26 17 44 17s32.667 -5.83301 44 -17.5s17 -26.167 17 -43.5v-455c0 -94 24.667 -167.667 74 -221s120.333 -80 213 -80c88.667 0 162 30 220 90s87 139.333 87 238v428c0 18 5.83301 32.667 17.5 44s26.334 17 44.001 17
s32.334 -5.83301 44.001 -17.5s17.5 -26.167 17.5 -43.5v-799c0 -18 -5.83301 -32.667 -17.5 -44s-26.334 -17 -44.001 -17s-32.334 5.66699 -44.001 17s-17.5 26 -17.5 44v107c-68 -117.333 -179 -176.333 -333 -177c-117.333 0 -210.5 38.333 -279.5 115
s-103.5 175.667 -103.5 297zM416 1315c0 13.333 5 24.5 15 33.5s22 13.5 36 13.5c19.333 0 33.666 -7.66699 42.999 -23l147 -209c8 -12 12.333 -22.667 13 -32c0 -13.333 -4.83301 -24.833 -14.5 -34.5s-21.167 -14.5 -34.5 -14.5c-19.333 0 -36.666 10.667 -51.999 32
l-141 199c-8 11.333 -12 23 -12 35z" />
    <glyph glyph-name="uacute" unicode="&#xfa;" horiz-adv-x="1157" 
d="M154 387v457c0 18 5.66699 32.667 17 44s26 17 44 17s32.667 -5.83301 44 -17.5s17 -26.167 17 -43.5v-455c0 -94 24.667 -167.667 74 -221s120.333 -80 213 -80c88.667 0 162 30 220 90s87 139.333 87 238v428c0 18 5.83301 32.667 17.5 44s26.334 17 44.001 17
s32.334 -5.83301 44.001 -17.5s17.5 -26.167 17.5 -43.5v-799c0 -18 -5.83301 -32.667 -17.5 -44s-26.334 -17 -44.001 -17s-32.334 5.66699 -44.001 17s-17.5 26 -17.5 44v107c-68 -117.333 -179 -176.333 -333 -177c-117.333 0 -210.5 38.333 -279.5 115
s-103.5 175.667 -103.5 297zM496 1098c0 9.33301 4.00098 20 12.001 32l147 209c9.33301 15.333 23.666 23 42.999 23c13.333 0 25.333 -4.16699 36 -12.5s16 -19.833 16 -34.5c0 -12 -4.33301 -23.667 -13 -35l-141 -199c-16.667 -22 -33.667 -32.667 -51 -32
c-13.333 0 -24.833 4.83301 -34.5 14.5s-14.5 21.167 -14.5 34.5z" />
    <glyph glyph-name="ucircumflex" unicode="&#xfb;" horiz-adv-x="1157" 
d="M154 387v457c0 18 5.66699 32.667 17 44s26 17 44 17s32.667 -5.83301 44 -17.5s17 -26.167 17 -43.5v-455c0 -94 24.667 -167.667 74 -221s120.333 -80 213 -80c88.667 0 162 30 220 90s87 139.333 87 238v428c0 18 5.83301 32.667 17.5 44s26.334 17 44.001 17
s32.334 -5.83301 44.001 -17.5s17.5 -26.167 17.5 -43.5v-799c0 -18 -5.83301 -32.667 -17.5 -44s-26.334 -17 -44.001 -17s-32.334 5.66699 -44.001 17s-17.5 26 -17.5 44v107c-68 -117.333 -179 -176.333 -333 -177c-117.333 0 -210.5 38.333 -279.5 115
s-103.5 175.667 -103.5 297zM332 1087c0 13.333 5.99902 26.333 17.999 39l195 181c10.667 10.667 23.5 16 38.5 16s28.167 -5.33301 39.5 -16l194 -181c12 -12 18.333 -25 19 -39c0 -10.667 -4.83301 -20 -14.5 -28s-20.667 -12 -33 -12s-23.166 4 -32.499 12l-172 151
l-172 -151c-9.33301 -8 -20.333 -12 -33 -12s-23.667 4 -33 12s-14 17.333 -14 28z" />
    <glyph glyph-name="udieresis" unicode="&#xfc;" horiz-adv-x="1157" 
d="M154 387v457c0 18 5.66699 32.667 17 44s26 17 44 17s32.667 -5.83301 44 -17.5s17 -26.167 17 -43.5v-455c0 -94 24.667 -167.667 74 -221s120.333 -80 213 -80c88.667 0 162 30 220 90s87 139.333 87 238v428c0 18 5.83301 32.667 17.5 44s26.334 17 44.001 17
s32.334 -5.83301 44.001 -17.5s17.5 -26.167 17.5 -43.5v-799c0 -18 -5.83301 -32.667 -17.5 -44s-26.334 -17 -44.001 -17s-32.334 5.66699 -44.001 17s-17.5 26 -17.5 44v107c-68 -117.333 -179 -176.333 -333 -177c-117.333 0 -210.5 38.333 -279.5 115
s-103.5 175.667 -103.5 297zM328 1157c0 23.333 8.16699 42.833 24.5 58.5s35.333 23.5 57 23.5s40.834 -7.83301 57.501 -23.5s25 -35.167 25 -58.5s-8.33301 -42.833 -25 -58.5s-35.834 -23.5 -57.501 -23.5s-40.667 7.83301 -57 23.5s-24.5 35.167 -24.5 58.5zM668 1157
c0 23.333 8.16699 42.833 24.5 58.5s35.333 23.5 57 23.5s40.667 -7.83301 57 -23.5s24.5 -35.167 24.5 -58.5s-8.16699 -42.833 -24.5 -58.5s-35.333 -23.5 -57 -23.5s-40.667 7.83301 -57 23.5s-24.5 35.167 -24.5 58.5z" />
    <glyph glyph-name="yacute" unicode="&#xfd;" horiz-adv-x="886" 
d="M27 850c0 15.333 4.99902 28.334 14.999 39.001s24 16 42 16c24.667 0 42.334 -13 53.001 -39l309 -729l304 733c9.33301 23.333 26.333 35 51 35c16.667 0 30 -5.16699 40 -15.5s15 -23.5 15 -39.5c0 -6.66699 -2 -15.667 -6 -27l-301 -729
c-92.667 -222.667 -223 -383.667 -391 -483c-10.667 -6.66699 -23 -10 -37 -10c-16.667 0 -29.667 4.66699 -39 14s-14 21.666 -14 36.999c0 19.333 12 36.333 36 51c114.667 79.333 207.667 180.333 279 303l-348 813c-5.33301 14 -8 24.333 -8 31zM368.999 1098
c0 9.33301 4.00098 20 12.001 32l147 209c9.33301 15.333 23.666 23 42.999 23c13.333 0 25.333 -4.16699 36 -12.5s16 -19.833 16 -34.5c0 -12 -4.33301 -23.667 -13 -35l-141 -199c-16.667 -22 -33.667 -32.667 -51 -32c-13.333 0 -24.833 4.83301 -34.5 14.5
s-14.5 21.167 -14.5 34.5z" />
    <glyph glyph-name="thorn" unicode="&#xfe;" horiz-adv-x="1208" 
d="M164 -338v1657c0 18 5.83301 32.667 17.5 44s26.334 17 44.001 17s32.334 -5.66699 44.001 -17s17.5 -26 17.5 -44v-594c83.333 125.333 205.333 188 366 188c125.333 0 231.5 -44.333 318.5 -133s130.5 -200.5 130.5 -335.5s-43.333 -247 -130 -336
s-193 -133.5 -319 -133.5c-161.333 0 -283.333 63 -366 189v-502c0 -18 -5.83301 -32.667 -17.5 -44s-26.334 -17 -44.001 -17s-32.334 5.66699 -44.001 17s-17.5 26 -17.5 44zM287 444.5c0 -102.333 32.333 -188.666 97 -258.999s148.167 -105.5 250.5 -105.5
s185.333 34.167 249 102.5s95.5 155.666 95.5 261.999s-31.833 193.666 -95.5 261.999s-146.667 102.5 -249 102.5s-185.833 -35.167 -250.5 -105.5s-97 -156.666 -97 -258.999z" />
    <glyph glyph-name="ydieresis" unicode="&#xff;" horiz-adv-x="886" 
d="M27 850c0 15.333 4.99902 28.334 14.999 39.001s24 16 42 16c24.667 0 42.334 -13 53.001 -39l309 -729l304 733c9.33301 23.333 26.333 35 51 35c16.667 0 30 -5.16699 40 -15.5s15 -23.5 15 -39.5c0 -6.66699 -2 -15.667 -6 -27l-301 -729
c-92.667 -222.667 -223 -383.667 -391 -483c-10.667 -6.66699 -23 -10 -37 -10c-16.667 0 -29.667 4.66699 -39 14s-14 21.666 -14 36.999c0 19.333 12 36.333 36 51c114.667 79.333 207.667 180.333 279 303l-348 813c-5.33301 14 -8 24.333 -8 31zM194.999 1157
c0 23.333 7.83301 42.833 23.5 58.5s35 23.5 58 23.5s42.333 -7.83301 58 -23.5s23.5 -35.167 23.5 -58.5s-7.83301 -42.833 -23.5 -58.5s-35 -23.5 -58 -23.5s-42.333 7.83301 -58 23.5s-23.5 35.167 -23.5 58.5zM534.999 1157c0 23.333 7.83301 42.833 23.5 58.5
s35 23.5 58 23.5s42.333 -7.83301 58 -23.5s23.5 -35.167 23.5 -58.5s-7.83301 -42.833 -23.5 -58.5s-35 -23.5 -58 -23.5s-42.333 7.83301 -58 23.5s-23.5 35.167 -23.5 58.5z" />
    <glyph glyph-name="OE" unicode="&#x152;" horiz-adv-x="2355" 
d="M106 682c0 195.333 64.6689 362 194.002 500s294.333 207 495 207c120 0 228.167 -28 324.5 -84s175.166 -132.667 236.499 -230v228c0 18 5.83301 32.667 17.5 44s26.167 17 43.5 17h789c15.333 0 28.333 -5.5 39 -16.5s16 -24 16 -39s-5.5 -28 -16.5 -39
s-23.833 -16.5 -38.5 -16.5h-727v-493h422c15.333 0 28.333 -5.5 39 -16.5s16 -24 16 -39s-5.5 -28 -16.5 -39s-23.833 -16.5 -38.5 -16.5h-422v-538h729c15.333 0 28.333 -5.5 39 -16.5s16 -24 16 -39s-5.5 -28 -16.5 -39s-23.833 -16.5 -38.5 -16.5h-791
c-18 -0 -32.667 5.83301 -44 17.5s-17 26.167 -17 43.5v228c-58.667 -96.667 -136.834 -173.167 -234.501 -229.5s-206.5 -84.5 -326.5 -84.5c-200.667 0 -365.667 69 -495 207s-194 304.667 -194 500zM229.002 682c0 -164 52 -304.667 156 -422s240.667 -176 410 -176
s305.166 58.667 407.499 176s153.5 258 153.5 422s-51.167 304.667 -153.5 422s-238.166 176 -407.499 176s-306 -58.667 -410 -176s-156 -258 -156 -422z" />
    <glyph glyph-name="oe" unicode="&#x153;" horiz-adv-x="1912" 
d="M106 444.5c0 132.333 44.1689 243.5 132.502 333.5s199.833 135 334.5 135c88.667 0 168.667 -20.333 240 -61s126.666 -96.667 165.999 -168c39.333 69.333 93.5 124.833 162.5 166.5s146.5 62.5 232.5 62.5c125.333 0 228.333 -43.333 309 -130s121 -196 121 -328
c0 -13.333 -5 -25.333 -15 -36s-22 -16 -36 -16h-711c2.66699 -87.333 35.167 -163 97.5 -227s144.5 -96 246.5 -96c113.333 0 206.333 43 279 129c15.333 18 31 27 47 27c15.333 0 27.666 -5.16699 36.999 -15.5s14 -22.5 14 -36.5c0 -12 -4 -24.333 -12 -37
c-36.667 -50.667 -87.167 -92 -151.5 -124s-135.5 -48 -213.5 -48c-92.667 0 -174.167 20.5 -244.5 61.5s-124.5 96.5 -162.5 166.5c-39.333 -69.333 -94.5 -124.666 -165.5 -165.999s-151.167 -62 -240.5 -62c-135.333 0 -247 45.167 -335 135.5s-132 201.666 -132 333.999
zM229.002 444.5c0 -103.667 33.167 -190 99.5 -259s148 -103.5 245 -103.5s178.667 34.5 245 103.5s99.5 155.333 99.5 259s-33.167 190 -99.5 259s-148 103.5 -245 103.5s-178.667 -34.5 -245 -103.5s-99.5 -155.333 -99.5 -259zM1047 506h645.001
c-8 87.333 -41.5 160 -100.5 218s-131.5 87 -217.5 87c-88.667 0 -163.334 -29.333 -224.001 -88s-95 -131 -103 -217z" />
    <glyph glyph-name="Ydieresis" unicode="&#x178;" horiz-adv-x="1130" 
d="M10 1325c0 16.667 5.16895 30.001 15.502 40.001s23.833 15 40.5 15c22 0 39.667 -9.33301 53 -28l446 -639l447 639c13.333 19.333 31 28.666 53 27.999c16.667 0 30 -5 40 -15s15 -23.333 15 -40c0 -10.667 -4 -22.334 -12 -35.001l-481 -692v-553
c0 -18 -5.83301 -32.667 -17.5 -44s-26.334 -17 -44.001 -17s-32.334 5.66699 -44.001 17s-17.5 26 -17.5 44v553l-481 692c-8.66699 12.667 -13 24.334 -13 35.001zM283.002 1607.5c0 23 8.16699 42.5 24.5 58.5s35.333 24 57 24s40.667 -8 57 -24s24.5 -35.5 24.5 -58.5
s-8.16699 -42.333 -24.5 -58s-35.333 -23.5 -57 -23.5s-40.667 7.83301 -57 23.5s-24.5 35 -24.5 58zM684.002 1607.5c0 23 8.16699 42.5 24.5 58.5s35.5 24 57.5 24s41.167 -8 57.5 -24s24.5 -35.5 24.5 -58.5s-8.16699 -42.333 -24.5 -58s-35.5 -23.5 -57.5 -23.5
s-41.167 7.83301 -57.5 23.5s-24.5 35 -24.5 58z" />
    <glyph glyph-name="circumflex" unicode="&#x2c6;" horiz-adv-x="749" 
d="M123 1087c0 13.333 5.99805 26.333 17.998 39l195 181c10.667 10.667 23.5 16 38.5 16s28.167 -5.33301 39.5 -16l194 -181c12 -12 18.333 -25 19 -39c0 -10.667 -4.83301 -20 -14.5 -28s-20.667 -12 -33 -12s-23.166 4 -32.499 12l-172 151l-172 -151
c-9.33301 -8 -20.166 -12 -32.499 -12s-23.333 4 -33 12s-14.5 17.333 -14.5 28z" />
    <glyph glyph-name="tilde" unicode="&#x2dc;" horiz-adv-x="823" 
d="M123 1103.5c0 12.333 4 23.499 12 33.499c8 10.667 15 19.334 21 26.001c40.667 50.667 91 76 151 76c35.333 0 70.333 -9.66699 105 -29c8 -4 18.833 -10 32.5 -18l30.5 -17.5c6.66699 -3.66699 14.5 -7.16699 23.5 -10.5s16.833 -5 23.5 -5
c19.333 0 43.333 14.333 72 43l20 21c12 12 25 18 39 18c12 0 22.833 -3.66699 32.5 -11s14.5 -17.333 14.5 -30c0 -13.333 -4 -25 -12 -35l-24 -30c-44 -48 -90.667 -72 -140 -72c-30 0 -70.333 14.333 -121 43c-45.333 24.667 -77.333 37 -96 37
c-28.667 0 -54 -13 -76 -39l-22 -25c-12 -12 -25 -18 -39 -18c-12 0 -22.833 4 -32.5 12s-14.5 18.167 -14.5 30.5z" />
    <glyph glyph-name="uni2000" unicode="&#x2000;" horiz-adv-x="858" 
 />
    <glyph glyph-name="uni2001" unicode="&#x2001;" horiz-adv-x="1718" 
 />
    <glyph glyph-name="uni2002" unicode="&#x2002;" horiz-adv-x="858" 
 />
    <glyph glyph-name="uni2003" unicode="&#x2003;" horiz-adv-x="1718" 
 />
    <glyph glyph-name="uni2004" unicode="&#x2004;" horiz-adv-x="571" 
 />
    <glyph glyph-name="uni2005" unicode="&#x2005;" horiz-adv-x="428" 
 />
    <glyph glyph-name="uni2006" unicode="&#x2006;" horiz-adv-x="284" 
 />
    <glyph glyph-name="uni2007" unicode="&#x2007;" horiz-adv-x="284" 
 />
    <glyph glyph-name="uni2008" unicode="&#x2008;" horiz-adv-x="212" 
 />
    <glyph glyph-name="uni2009" unicode="&#x2009;" horiz-adv-x="342" 
 />
    <glyph glyph-name="uni200A" unicode="&#x200a;" horiz-adv-x="94" 
 />
    <glyph glyph-name="uni2010" unicode="&#x2010;" horiz-adv-x="897" 
d="M143 507.5c0 16.333 5.16699 29 15.5 38s23.166 13.5 38.499 13.5h503c15.333 0 28.166 -4.5 38.499 -13.5s15.5 -21.667 15.5 -38s-5.16699 -28.833 -15.5 -37.5s-23.166 -13 -38.499 -13h-503c-15.333 0 -28.166 4.33301 -38.499 13s-15.5 21.167 -15.5 37.5z" />
    <glyph glyph-name="uni2011" unicode="&#x2011;" horiz-adv-x="897" 
d="M143 507.5c0 16.333 5.16699 29 15.5 38s23.166 13.5 38.499 13.5h503c15.333 0 28.166 -4.5 38.499 -13.5s15.5 -21.667 15.5 -38s-5.16699 -28.833 -15.5 -37.5s-23.166 -13 -38.499 -13h-503c-15.333 0 -28.166 4.33301 -38.499 13s-15.5 21.167 -15.5 37.5z" />
    <glyph glyph-name="figuredash" unicode="&#x2012;" horiz-adv-x="897" 
d="M143 507.5c0 16.333 5.16699 29 15.5 38s23.166 13.5 38.499 13.5h503c15.333 0 28.166 -4.5 38.499 -13.5s15.5 -21.667 15.5 -38s-5.16699 -28.833 -15.5 -37.5s-23.166 -13 -38.499 -13h-503c-15.333 0 -28.166 4.33301 -38.499 13s-15.5 21.167 -15.5 37.5z" />
    <glyph glyph-name="endash" unicode="&#x2013;" horiz-adv-x="1169" 
d="M143 507.5c0 16.333 5.16699 29 15.5 38s23.166 13.5 38.499 13.5h776c15.333 0 28 -4.5 38 -13.5s15 -21.667 15 -38s-5.16699 -28.833 -15.5 -37.5s-22.833 -13 -37.5 -13h-776c-15.333 0 -28.166 4.33301 -38.499 13s-15.5 21.167 -15.5 37.5z" />
    <glyph glyph-name="emdash" unicode="&#x2014;" horiz-adv-x="1570" 
d="M143 507.5c0 16.333 5.16699 29 15.5 38s23.166 13.5 38.499 13.5h1177c15.333 0 28 -4.5 38 -13.5s15 -21.667 15 -38s-5 -28.833 -15 -37.5s-22.667 -13 -38 -13h-1177c-15.333 0 -28.166 4.33301 -38.499 13s-15.5 21.167 -15.5 37.5z" />
    <glyph glyph-name="quoteleft" unicode="&#x2018;" horiz-adv-x="448" 
d="M154 909l-0.000976562 88.001c0 118.667 18.333 228 55 328c13.333 36.667 34.333 55 63 55c35.333 0 53.333 -16.333 54 -49c0 -6.66699 -3.66699 -20.334 -11 -41.001c-34 -101.333 -51 -199 -51 -293v-88c0 -16.667 -5.16699 -30.334 -15.5 -41.001
s-23.666 -16 -39.999 -16s-29.5 5.33301 -39.5 16s-15 24.334 -15 41.001z" />
    <glyph glyph-name="quoteright" unicode="&#x2019;" horiz-adv-x="448" 
d="M143 901c0 6.66699 3.66797 20.333 11.001 41c34 101.333 51 199 51 293v88c0 16.667 5.16699 30.334 15.5 41.001s23.666 16 39.999 16s29.5 -5.33301 39.5 -16s15 -24.334 15 -41.001v-88c0 -118.667 -18.333 -228 -55 -328c-13.333 -36.667 -34.333 -55 -63 -55
c-36 0 -54 16.333 -54 49z" />
    <glyph glyph-name="quotesinglbase" unicode="&#x201a;" horiz-adv-x="421" 
d="M96 -283c0 6.66699 3.33301 20.334 10 41.001c34 101.333 51.333 199 52 293v88c0 16.667 5 30.5 15 41.5s23.333 16.5 40 16.5s30 -5.5 40 -16.5s15 -24.833 15 -41.5v-88c0 -118.667 -18.333 -227.667 -55 -327c-13.333 -36.667 -34.333 -55.334 -63 -56.001
c-36 0 -54 16.333 -54 49z" />
    <glyph glyph-name="quotedblleft" unicode="&#x201c;" horiz-adv-x="811" 
d="M154 909l-0.000976562 88.001c0 118.667 18.333 228 55 328c13.333 36.667 34.333 55 63 55c35.333 0 53.333 -16.333 54 -49c0 -6.66699 -3.66699 -20.334 -11 -41.001c-34 -101.333 -51 -199 -51 -293v-88c0 -16.667 -5.16699 -30.334 -15.5 -41.001
s-23.666 -16 -39.999 -16s-29.5 5.33301 -39.5 16s-15 24.334 -15 41.001zM515.999 909.001l-0.000976562 88.001c0 118.667 18.333 228 55 328c13.333 36.667 34.666 55 63.999 55c35.333 0 53 -16.333 53 -49c0 -6.66699 -3.33301 -20.334 -10 -41.001
c-34 -101.333 -51 -199 -51 -293v-88c0 -16.667 -5.16699 -30.334 -15.5 -41.001s-23.666 -16 -39.999 -16s-29.666 5.33301 -39.999 16s-15.5 24.334 -15.5 41.001z" />
    <glyph glyph-name="quotedblright" unicode="&#x201d;" horiz-adv-x="811" 
d="M143 901c0 6.66699 3.66797 20.333 11.001 41c34 101.333 51 199 51 293v88c0 16.667 5.16699 30.334 15.5 41.001s23.666 16 39.999 16s29.5 -5.33301 39.5 -16s15 -24.334 15 -41.001v-88c0 -118.667 -18.333 -228 -55 -328c-13.333 -36.667 -34.333 -55 -63 -55
c-36 0 -54 16.333 -54 49zM506.001 900.999c0 6.66699 3.33398 20.333 10.001 41c34 101.333 51 199 51 293v88c0 16.667 5.16699 30.334 15.5 41.001s23.666 16 39.999 16s29.666 -5.33301 39.999 -16s15.5 -24.334 15.5 -41.001v-88c0 -118.667 -18.333 -228 -55 -328
c-13.333 -36.667 -34.666 -55 -63.999 -55c-35.333 0 -53 16.333 -53 49z" />
    <glyph glyph-name="quotedblbase" unicode="&#x201e;" horiz-adv-x="784" 
d="M96 -283c0 6.66699 3.33301 20.334 10 41.001c34 101.333 51.333 199 52 293v88c0 16.667 5 30.5 15 41.5s23.333 16.5 40 16.5s30 -5.5 40 -16.5s15 -24.833 15 -41.5v-88c0 -118.667 -18.333 -227.667 -55 -327c-13.333 -36.667 -34.333 -55.334 -63 -56.001
c-36 0 -54 16.333 -54 49zM459 -283c0 6.66699 3.33496 20.334 10.002 41.001c34 101.333 51 199 51 293v88c0 16.667 5.16699 30.5 15.5 41.5s23.666 16.5 39.999 16.5s29.666 -5.5 39.999 -16.5s15.5 -24.833 15.5 -41.5v-88c0 -118.667 -18.667 -227.667 -56 -327
c-13.333 -36.667 -34.333 -55.334 -63 -56.001c-35.333 0 -53 16.333 -53 49z" />
    <glyph glyph-name="bullet" unicode="&#x2022;" horiz-adv-x="724" 
d="M133 657.5c0 64.333 22.167 118.666 66.5 162.999s98.666 66.5 162.999 66.5s118.666 -22.167 162.999 -66.5s66.5 -98.666 66.5 -162.999s-22.167 -118.666 -66.5 -162.999s-98.666 -66.5 -162.999 -66.5s-118.666 22.167 -162.999 66.5s-66.5 98.666 -66.5 162.999z
" />
    <glyph glyph-name="ellipsis" unicode="&#x2026;" horiz-adv-x="1437" 
d="M154 74c0 23.333 8.5 43.5 25.5 60.5s37 25.5 60 25.5s43.167 -8.5 60.5 -25.5s26 -37.167 26 -60.5s-8.66699 -43.5 -26 -60.5s-37.5 -25.5 -60.5 -25.5s-43 8.5 -60 25.5s-25.5 37.167 -25.5 60.5zM633 74c0 23.333 8.5 43.5 25.5 60.5s37.167 25.5 60.5 25.5
s43.5 -8.5 60.5 -25.5s25.5 -37.167 25.5 -60.5s-8.5 -43.5 -25.5 -60.5s-37.167 -25.5 -60.5 -25.5s-43.5 8.5 -60.5 25.5s-25.5 37.167 -25.5 60.5zM1112 74c0 23.333 8.5 43.5 25.5 60.5s37.167 25.5 60.5 25.5s43.5 -8.5 60.5 -25.5s25.5 -37.167 25.5 -60.5
s-8.5 -43.5 -25.5 -60.5s-37.167 -25.5 -60.5 -25.5s-43.5 8.5 -60.5 25.5s-25.5 37.167 -25.5 60.5z" />
    <glyph glyph-name="uni202F" unicode="&#x202f;" horiz-adv-x="342" 
 />
    <glyph glyph-name="guilsinglleft" unicode="&#x2039;" horiz-adv-x="700" 
d="M123 436.5c0 13.667 5.33301 25.8301 16 36.4971l324 311c13.333 10.667 26.333 16.334 39 17.001c15.333 0 28.333 -4.83301 39 -14.5s16 -21.167 16 -34.5c0 -15.333 -6.66699 -29.666 -20 -42.999l-289 -273l289 -272c13.333 -13.333 20 -27.666 20 -42.999
c0 -13.333 -5.5 -24.833 -16.5 -34.5s-23.833 -14.5 -38.5 -14.5c-12 0 -25 5.33301 -39 16l-324 311c-10.667 11.333 -16 23.833 -16 37.5z" />
    <glyph glyph-name="guilsinglright" unicode="&#x203a;" horiz-adv-x="700" 
d="M143 121c0 15.333 7 29.6689 21 43.002l289 272l-289 273c-13.333 13.333 -20.333 27.666 -21 42.999c0 13.333 5.5 24.833 16.5 34.5s24.167 14.5 39.5 14.5c12 0 25 -5.66699 39 -17l323 -311c10.667 -10.667 16.167 -22.834 16.5 -36.501
s-5.16699 -26.167 -16.5 -37.5l-323 -311c-13.333 -10.667 -26.333 -16 -39 -16c-15.333 0 -28.5 4.83301 -39.5 14.5s-16.5 21.167 -16.5 34.5z" />
    <glyph glyph-name="uni205F" unicode="&#x205f;" horiz-adv-x="428" 
 />
    <glyph glyph-name="Euro" unicode="&#x20ac;" horiz-adv-x="1462" 
d="M82 518.5c0 13.667 5.16699 24.8369 15.5 33.5039s22.833 13 37.5 13h168c-4 36.667 -6 75.667 -6 117c0 39.333 2 78.333 6 117h-168c-15.333 0 -28 4.33301 -38 13s-15 19.834 -15 33.501s5.16699 25 15.5 34s22.833 13.5 37.5 13.5h182
c31.333 148.667 94.166 268.5 188.499 359.5s211.833 136.5 352.5 136.5c194 0 346.333 -96.333 457 -289c9.33301 -16.667 14 -30.334 14 -41.001c0 -16.667 -5.5 -30 -16.5 -40s-24.5 -15 -40.5 -15c-20.667 0 -36.334 9.33301 -47.001 28
c-49.333 84.667 -103 147.5 -161 188.5s-126.667 61.5 -206 61.5c-108 0 -197.5 -35.833 -268.5 -107.5s-120.167 -165.5 -147.5 -281.5h459c15.333 0 28 -4.5 38 -13.5s15 -20.333 15 -34s-5 -24.834 -15 -33.501s-22.667 -13 -38 -13h-475c-4 -38 -6 -77 -6 -117
c0 -40.667 2 -79.667 6 -117h475c15.333 0 28 -4.33301 38 -13s15 -19.834 15 -33.501s-5 -25 -15 -34s-22.667 -13.5 -38 -13.5h-459c27.333 -116 76.5 -209.833 147.5 -281.5s160.5 -107.5 268.5 -107.5c79.333 0 148 20.5 206 61.5s111.667 103.833 161 188.5
c10.667 19.333 26.334 28.666 47.001 27.999c16.667 0 30.334 -5 41.001 -15s16 -23.333 16 -40c0 -10.667 -4.66699 -24.334 -14 -41.001c-110.667 -192.667 -263 -289 -457 -289c-140.667 0 -258 45.5 -352 136.5s-157 210.833 -189 359.5h-182
c-15.333 0 -28 4.5 -38 13.5s-15 20.333 -15 34z" />
    <glyph glyph-name="trademark" unicode="&#x2122;" horiz-adv-x="1519" 
d="M113 1327c0 24.667 13.667 37 41 37h452c27.333 0 41 -12.333 41 -37c0 -10.667 -4 -19.834 -12 -27.501s-17.667 -11.5 -29 -11.5h-184v-493c0 -12 -4.16699 -21.833 -12.5 -29.5s-17.833 -11.5 -28.5 -11.5c-28.667 0 -43 13.667 -43 41v493h-184
c-10.667 0 -20.167 3.83301 -28.5 11.5s-12.5 16.834 -12.5 27.501zM752 793l-0.000976562 540.003c0 26 13 39 39 39c16.667 0 29.334 -9.66699 38.001 -29l230 -475l229 475c9.33301 19.333 22.333 29 39 29c26 0 39 -13 39 -39v-540c0 -26 -13 -39 -39 -39
c-10.667 0 -20.167 3.66699 -28.5 11s-12.5 16.666 -12.5 27.999v378l-188 -393c-9.33301 -16.667 -22.333 -24.834 -39 -24.501s-29.667 8.5 -39 24.5l-189 393v-378c0 -10.667 -4 -19.834 -12 -27.501s-17.333 -11.5 -28 -11.5c-26 0 -39 13 -39 39z" />
    <glyph glyph-name="uniE000" unicode="&#xe000;" horiz-adv-x="905" 
d="M0 905h905v-905h-905v905z" />
    <glyph glyph-name="uniFB01" unicode="&#xfb01;" horiz-adv-x="1101" 
d="M25 837.5c0 15 4.66895 27.333 14.002 37s21.666 14.5 36.999 14.5h143v127c0 232 109.333 348 328 348h43c13.333 0 25.166 -4.83301 35.499 -14.5s15.5 -22 15.5 -37s-5.16699 -27.167 -15.5 -36.5s-22.166 -14 -35.499 -14h-37c-72.667 0 -126 -18.5 -160 -55.5
s-51 -99.833 -51 -188.5v-129h233c13.333 0 25.333 -5.16699 36 -15.5s16 -22.333 16 -36s-5.16699 -25.667 -15.5 -36s-22.5 -15.5 -36.5 -15.5h-233v-741c0 -18 -5.83301 -32.667 -17.5 -44s-26.334 -17 -44.001 -17s-32.334 5.66699 -44.001 17s-17.5 26 -17.5 44v741
h-143c-15.333 0 -27.666 4.83301 -36.999 14.5s-14 22 -14 37zM803.002 1143c0 20.667 7.5 38.5 22.5 53.5s32.667 22.5 53 22.5s38 -7.5 53 -22.5s22.5 -32.833 22.5 -53.5s-7.5 -38.5 -22.5 -53.5s-32.667 -22.5 -53 -22.5s-38 7.5 -53 22.5s-22.5 32.833 -22.5 53.5z
M817.002 45v799c0 18 5.83301 32.667 17.5 44s26.334 17 44.001 17s32.334 -5.83301 44.001 -17.5s17.5 -26.167 17.5 -43.5v-799c0 -18 -5.83301 -32.667 -17.5 -44s-26.334 -17 -44.001 -17s-32.334 5.66699 -44.001 17s-17.5 26 -17.5 44z" />
    <glyph glyph-name="uniFB02" unicode="&#xfb02;" horiz-adv-x="1107" 
d="M25 837.5c0 15 4.66895 27.333 14.002 37s21.666 14.5 36.999 14.5h143v127c0 232 109.333 348 328 348h43c13.333 0 25.166 -4.83301 35.499 -14.5s15.5 -22 15.5 -37s-5.16699 -27.167 -15.5 -36.5s-22.166 -14 -35.499 -14h-37c-72.667 0 -126 -18.5 -160 -55.5
s-51 -99.833 -51 -188.5v-129h233c13.333 0 25.333 -5.16699 36 -15.5s16 -22.333 16 -36s-5.16699 -25.667 -15.5 -36s-22.5 -15.5 -36.5 -15.5h-233v-741c0 -18 -5.83301 -32.667 -17.5 -44s-26.334 -17 -44.001 -17s-32.334 5.66699 -44.001 17s-17.5 26 -17.5 44v741
h-143c-15.333 0 -27.666 4.83301 -36.999 14.5s-14 22 -14 37zM821.002 45v1274c0 18 5.83301 32.667 17.5 44s26.334 17 44.001 17s32.334 -5.66699 44.001 -17s17.5 -26 17.5 -44v-1274c0 -18 -5.83301 -32.667 -17.5 -44s-26.334 -17 -44.001 -17
s-32.334 5.66699 -44.001 17s-17.5 26 -17.5 44z" />
    <glyph glyph-name="uniFB03" unicode="&#xfb03;" horiz-adv-x="1765" 
d="M1462 1159c0 22 7.66699 40.5 23 55.5s33.833 22.5 55.5 22.5s40 -7.5 55 -22.5s22.5 -33.5 22.5 -55.5s-7.5 -40.5 -22.5 -55.5s-33.333 -22.5 -55 -22.5s-40.167 7.5 -55.5 22.5s-23 33.5 -23 55.5zM1479 45v799c0 18 5.83301 32.667 17.5 44s26.334 17 44.001 17
s32.334 -5.83301 44.001 -17.5s17.5 -26.167 17.5 -43.5v-799c0 -18 -5.83301 -32.667 -17.5 -44s-26.334 -17 -44.001 -17s-32.334 5.66699 -44.001 17s-17.5 26 -17.5 44zM682 837.5c0 15 4.66895 27.333 14.002 37s21.666 14.5 36.999 14.5h143v127
c0 232 109.333 348 328 348h43c13.333 0 25.166 -4.83301 35.499 -14.5s15.5 -22 15.5 -37s-5.16699 -27.167 -15.5 -36.5s-22.166 -14 -35.499 -14h-37c-72.667 0 -126 -18.5 -160 -55.5s-51 -99.833 -51 -188.5v-129h233c13.333 0 25.333 -5.16699 36 -15.5
s16 -22.333 16 -36s-5.16699 -25.667 -15.5 -36s-22.5 -15.5 -36.5 -15.5h-233v-741c0 -18 -5.83301 -32.667 -17.5 -44s-26.334 -17 -44.001 -17s-32.334 5.66699 -44.001 17s-17.5 26 -17.5 44v741h-143c-15.333 0 -27.666 4.83301 -36.999 14.5s-14 22 -14 37z
M25.002 837.5c0 15 4.66895 27.333 14.002 37s21.666 14.5 36.999 14.5h143v127c0 232 109.333 348 328 348h43c13.333 0 25.166 -4.83301 35.499 -14.5s15.5 -22 15.5 -37s-5.16699 -27.167 -15.5 -36.5s-22.166 -14 -35.499 -14h-37c-72.667 0 -126 -18.5 -160 -55.5
s-51 -99.833 -51 -188.5v-129h233c13.333 0 25.333 -5.16699 36 -15.5s16 -22.333 16 -36s-5.16699 -25.667 -15.5 -36s-22.5 -15.5 -36.5 -15.5h-233v-741c0 -18 -5.83301 -32.667 -17.5 -44s-26.334 -17 -44.001 -17s-32.334 5.66699 -44.001 17s-17.5 26 -17.5 44v741
h-143c-15.333 0 -27.666 4.83301 -36.999 14.5s-14 22 -14 37z" />
    <glyph glyph-name="uniFB04" unicode="&#xfb04;" horiz-adv-x="1765" 
d="M1479 45v1274c0 18 5.83301 32.667 17.5 44s26.334 17 44.001 17s32.334 -5.66699 44.001 -17s17.5 -26 17.5 -44v-1274c0 -18 -5.83301 -32.667 -17.5 -44s-26.334 -17 -44.001 -17s-32.334 5.66699 -44.001 17s-17.5 26 -17.5 44zM682 837.5
c0 15 4.66895 27.333 14.002 37s21.666 14.5 36.999 14.5h143v127c0 232 109.333 348 328 348h43c13.333 0 25.166 -4.83301 35.499 -14.5s15.5 -22 15.5 -37s-5.16699 -27.167 -15.5 -36.5s-22.166 -14 -35.499 -14h-37c-72.667 0 -126 -18.5 -160 -55.5
s-51 -99.833 -51 -188.5v-129h233c13.333 0 25.333 -5.16699 36 -15.5s16 -22.333 16 -36s-5.16699 -25.667 -15.5 -36s-22.5 -15.5 -36.5 -15.5h-233v-741c0 -18 -5.83301 -32.667 -17.5 -44s-26.334 -17 -44.001 -17s-32.334 5.66699 -44.001 17s-17.5 26 -17.5 44v741
h-143c-15.333 0 -27.666 4.83301 -36.999 14.5s-14 22 -14 37zM25.002 837.5c0 15 4.66895 27.333 14.002 37s21.666 14.5 36.999 14.5h143v127c0 232 109.333 348 328 348h43c13.333 0 25.166 -4.83301 35.499 -14.5s15.5 -22 15.5 -37s-5.16699 -27.167 -15.5 -36.5
s-22.166 -14 -35.499 -14h-37c-72.667 0 -126 -18.5 -160 -55.5s-51 -99.833 -51 -188.5v-129h233c13.333 0 25.333 -5.16699 36 -15.5s16 -22.333 16 -36s-5.16699 -25.667 -15.5 -36s-22.5 -15.5 -36.5 -15.5h-233v-741c0 -18 -5.83301 -32.667 -17.5 -44
s-26.334 -17 -44.001 -17s-32.334 5.66699 -44.001 17s-17.5 26 -17.5 44v741h-143c-15.333 0 -27.666 4.83301 -36.999 14.5s-14 22 -14 37z" />
    <glyph glyph-name=".null" horiz-adv-x="0" 
 />
    <glyph glyph-name="nonmarkingreturn" horiz-adv-x="682" 
 />
    </font>
</defs>
</svg>
